<?xml version="1.0" encoding="UTF-8"?>
<svg width="700pt" height="700pt" version="1.1" viewBox="0 0 700 700" xmlns="http://www.w3.org/2000/svg" xmlns:xlink="http://www.w3.org/1999/xlink">
 <defs>
  <symbol id="al" overflow="visible">
   <path d="m22.203-23.203v3.5938c-1.1484-1.0703-2.3672-1.8672-3.6562-2.3906-1.293-0.53125-2.6719-0.79688-4.1406-0.79688-2.8672 0-5.0625 0.88281-6.5938 2.6406-1.5312 1.75-2.2969 4.2891-2.2969 7.6094 0 3.3125 0.76562 5.8516 2.2969 7.6094 1.5312 1.75 3.7266 2.625 6.5938 2.625 1.4688 0 2.8477-0.25781 4.1406-0.78125 1.2891-0.53125 2.5078-1.3281 3.6562-2.3906v3.5469c-1.1875 0.8125-2.4492 1.4219-3.7812 1.8281-1.3242 0.39453-2.7266 0.59375-4.2031 0.59375-3.8125 0-6.8125-1.1602-9-3.4844-2.1875-2.332-3.2812-5.5156-3.2812-9.5469 0-4.0391 1.0938-7.2227 3.2812-9.5469 2.1875-2.332 5.1875-3.5 9-3.5 1.5 0 2.9102 0.20312 4.2344 0.60938 1.332 0.39844 2.582 0.99219 3.75 1.7812z"/>
  </symbol>
  <symbol id="n" overflow="visible">
   <path d="m14.172-15.969c-0.34375-0.19531-0.72656-0.34375-1.1406-0.4375-0.40625-0.09375-0.85547-0.14062-1.3438-0.14062-1.75 0-3.0938 0.57031-4.0312 1.7031-0.9375 1.1367-1.4062 2.7734-1.4062 4.9062v9.9375h-3.125v-18.859h3.125v2.9375c0.64453-1.1445 1.4883-1.9922 2.5312-2.5469 1.0508-0.5625 2.3203-0.84375 3.8125-0.84375 0.21875 0 0.45312 0.015625 0.70312 0.046875 0.25781 0.023437 0.54688 0.0625 0.85938 0.125z"/>
  </symbol>
  <symbol id="e" overflow="visible">
   <path d="m19.375-10.203v1.5156h-14.234c0.13281 2.1367 0.77344 3.7617 1.9219 4.875 1.1562 1.1172 2.7578 1.6719 4.8125 1.6719 1.1875 0 2.3359-0.14453 3.4531-0.4375 1.1133-0.28906 2.2227-0.72656 3.3281-1.3125v2.9375c-1.1172 0.46875-2.2578 0.82422-3.4219 1.0625-1.168 0.25-2.3516 0.375-3.5469 0.375-3.0117 0-5.3984-0.875-7.1562-2.625-1.75-1.75-2.625-4.1172-2.625-7.1094 0-3.082 0.83203-5.5312 2.5-7.3438 1.6641-1.8125 3.9102-2.7188 6.7344-2.7188 2.5391 0 4.5469 0.82031 6.0156 2.4531 1.4766 1.6367 2.2188 3.8555 2.2188 6.6562zm-3.0938-0.90625c-0.023438-1.6953-0.49609-3.0508-1.4219-4.0625-0.92969-1.0078-2.1523-1.5156-3.6719-1.5156-1.7305 0-3.1172 0.49219-4.1562 1.4688-1.043 0.98047-1.6406 2.3555-1.7969 4.125z"/>
  </symbol>
  <symbol id="i" overflow="visible">
   <path d="m11.828-9.4844c-2.5117 0-4.25 0.28906-5.2188 0.85938-0.96094 0.57422-1.4375 1.5547-1.4375 2.9375 0 1.0938 0.35938 1.9648 1.0781 2.6094 0.72656 0.64844 1.7109 0.96875 2.9531 0.96875 1.7188 0 3.0977-0.60938 4.1406-1.8281 1.0391-1.2188 1.5625-2.8359 1.5625-4.8594v-0.6875zm6.1719-1.2812v10.766h-3.0938v-2.8594c-0.71094 1.1484-1.5938 1.9922-2.6562 2.5312-1.0547 0.53906-2.3398 0.8125-3.8594 0.8125-1.9375 0-3.4766-0.53906-4.6094-1.625-1.1367-1.082-1.7031-2.5312-1.7031-4.3438 0-2.125 0.70703-3.7227 2.125-4.7969 1.4141-1.082 3.5352-1.625 6.3594-1.625h4.3438v-0.29688c0-1.4258-0.46875-2.5312-1.4062-3.3125s-2.2578-1.1719-3.9531-1.1719c-1.0742 0-2.125 0.13281-3.1562 0.39062-1.0234 0.26172-2 0.64844-2.9375 1.1562v-2.8594c1.1328-0.4375 2.2344-0.76562 3.2969-0.98438 1.0703-0.21875 2.1094-0.32812 3.1094-0.32812 2.7266 0 4.7656 0.71094 6.1094 2.125 1.3516 1.418 2.0312 3.5586 2.0312 6.4219z"/>
  </symbol>
  <symbol id="af" overflow="visible">
   <path d="m6.3125-24.219v5.3594h6.3906v2.4062h-6.3906v10.234c0 1.543 0.20703 2.5312 0.625 2.9688 0.42578 0.4375 1.2852 0.65625 2.5781 0.65625h3.1875v2.5938h-3.1875c-2.3984 0-4.0469-0.44141-4.9531-1.3281-0.90625-0.89453-1.3594-2.5234-1.3594-4.8906v-10.234h-2.2812v-2.4062h2.2812v-5.3594z"/>
  </symbol>
  <symbol id="m" overflow="visible">
   <path d="m15.656-16v-10.203h3.0938v26.203h-3.0938v-2.8281c-0.64844 1.125-1.4688 1.9609-2.4688 2.5-0.99219 0.53906-2.1836 0.8125-3.5781 0.8125-2.2734 0-4.125-0.90625-5.5625-2.7188-1.4297-1.8203-2.1406-4.2109-2.1406-7.1719 0-2.9688 0.71094-5.3594 2.1406-7.1719 1.4375-1.8203 3.2891-2.7344 5.5625-2.7344 1.3945 0 2.5859 0.27344 3.5781 0.8125 1 0.54297 1.8203 1.375 2.4688 2.5zm-10.547 6.5938c0 2.2734 0.46094 4.0586 1.3906 5.3594 0.9375 1.293 2.2266 1.9375 3.875 1.9375 1.6328 0 2.9219-0.64453 3.8594-1.9375 0.94531-1.3008 1.4219-3.0859 1.4219-5.3594 0-2.2812-0.47656-4.0664-1.4219-5.3594-0.9375-1.3008-2.2266-1.9531-3.8594-1.9531-1.6484 0-2.9375 0.65234-3.875 1.9531-0.92969 1.293-1.3906 3.0781-1.3906 5.3594z"/>
  </symbol>
  <symbol id="ae" overflow="visible">
   <path d="m16.781-9.4062c0-2.2812-0.46875-4.0664-1.4062-5.3594-0.9375-1.3008-2.2266-1.9531-3.8594-1.9531-1.6367 0-2.9219 0.65234-3.8594 1.9531-0.9375 1.293-1.4062 3.0781-1.4062 5.3594 0 2.2734 0.46875 4.0586 1.4062 5.3594 0.9375 1.293 2.2227 1.9375 3.8594 1.9375 1.6328 0 2.9219-0.64453 3.8594-1.9375 0.9375-1.3008 1.4062-3.0859 1.4062-5.3594zm-10.531-6.5938c0.64453-1.125 1.4609-1.957 2.4531-2.5 1-0.53906 2.1914-0.8125 3.5781-0.8125 2.2812 0 4.1328 0.91406 5.5625 2.7344 1.4375 1.8125 2.1562 4.2031 2.1562 7.1719 0 2.9609-0.71875 5.3516-2.1562 7.1719-1.4297 1.8125-3.2812 2.7188-5.5625 2.7188-1.3867 0-2.5781-0.27344-3.5781-0.8125-0.99219-0.53906-1.8086-1.375-2.4531-2.5v2.8281h-3.125v-26.203h3.125z"/>
  </symbol>
  <symbol id="ad" overflow="visible">
   <path d="m11.094 1.75c-0.875 2.25-1.7305 3.7109-2.5625 4.3906-0.82422 0.6875-1.9336 1.0312-3.3281 1.0312h-2.4688v-2.5938h1.8125c0.85156 0 1.5156-0.20312 1.9844-0.60938 0.46875-0.39844 0.98828-1.3516 1.5625-2.8594l0.5625-1.4062-7.625-18.562h3.2812l5.8906 14.75 5.8906-14.75h3.2812z"/>
  </symbol>
  <symbol id="ac" overflow="visible">
   <path d="m6.7812-12v9.2031h5.4531c1.832 0 3.1875-0.375 4.0625-1.125 0.88281-0.75781 1.3281-1.9219 1.3281-3.4844 0-1.5703-0.44531-2.7266-1.3281-3.4688-0.875-0.75-2.2305-1.125-4.0625-1.125zm0-10.344v7.5781h5.0469c1.6562 0 2.8906-0.3125 3.7031-0.9375s1.2188-1.5781 1.2188-2.8594c0-1.2578-0.40625-2.2031-1.2188-2.8281-0.8125-0.63281-2.0469-0.95312-3.7031-0.95312zm-3.3906-2.7969h8.6875c2.5938 0 4.5859 0.54297 5.9844 1.625 1.4062 1.0742 2.1094 2.6055 2.1094 4.5938 0 1.5312-0.35938 2.7578-1.0781 3.6719-0.71875 0.90625-1.7773 1.4766-3.1719 1.7031 1.6758 0.35547 2.9766 1.1055 3.9062 2.25 0.92578 1.1367 1.3906 2.5586 1.3906 4.2656 0 2.2422-0.76562 3.9766-2.2969 5.2031-1.5234 1.2188-3.6953 1.8281-6.5156 1.8281h-9.0156z"/>
  </symbol>
  <symbol id="o" overflow="visible">
   <path d="m18.922-11.375v11.375h-3.0938v-11.281c0-1.7812-0.35156-3.1133-1.0469-4-0.69922-0.89453-1.7422-1.3438-3.125-1.3438-1.6797 0-3 0.53906-3.9688 1.6094-0.96094 1.0625-1.4375 2.5156-1.4375 4.3594v10.656h-3.125v-18.859h3.125v2.9375c0.73828-1.1328 1.6094-1.9844 2.6094-2.5469 1.0078-0.5625 2.1719-0.84375 3.4844-0.84375 2.1641 0 3.8008 0.67188 4.9062 2.0156 1.1133 1.3438 1.6719 3.3203 1.6719 5.9219z"/>
  </symbol>
  <symbol id="ak" overflow="visible">
   <path d="m3.25-18.859h3.0938v19.203c0 2.3945-0.46094 4.1289-1.375 5.2031-0.90625 1.082-2.375 1.625-4.4062 1.625h-1.1875v-2.625h0.82812c1.1758 0 1.9766-0.27734 2.4062-0.82812 0.42578-0.54297 0.64062-1.668 0.64062-3.375zm0-7.3438h3.0938v3.9219h-3.0938z"/>
  </symbol>
  <symbol id="j" overflow="visible">
   <path d="m17.938-15.234c0.76953-1.3945 1.6914-2.4219 2.7656-3.0781 1.082-0.66406 2.3516-1 3.8125-1 1.9688 0 3.4844 0.6875 4.5469 2.0625s1.5938 3.3359 1.5938 5.875v11.375h-3.1094v-11.281c0-1.8125-0.32422-3.1562-0.96875-4.0312-0.63672-0.875-1.6094-1.3125-2.9219-1.3125-1.6055 0-2.875 0.53906-3.8125 1.6094-0.92969 1.0625-1.3906 2.5156-1.3906 4.3594v10.656h-3.1094v-11.281c0-1.8203-0.32422-3.1641-0.96875-4.0312-0.63672-0.875-1.6211-1.3125-2.9531-1.3125-1.5859 0-2.8438 0.53906-3.7812 1.6094-0.92969 1.0742-1.3906 2.5273-1.3906 4.3594v10.656h-3.125v-18.859h3.125v2.9375c0.70703-1.1562 1.5508-2.0078 2.5312-2.5625 0.98828-0.55078 2.1641-0.82812 3.5312-0.82812 1.3633 0 2.5234 0.35156 3.4844 1.0469 0.96875 0.69922 1.6797 1.7109 2.1406 3.0312z"/>
  </symbol>
  <symbol id="aj" overflow="visible">
   <path d="m3.25-18.859h3.0938v18.859h-3.0938zm0-7.3438h3.0938v3.9219h-3.0938z"/>
  </symbol>
  <symbol id="ai" overflow="visible">
   <path d="m18.453-24.312v3.3125c-1.293-0.61328-2.5117-1.0703-3.6562-1.375-1.1484-0.30078-2.25-0.45312-3.3125-0.45312-1.8555 0-3.2891 0.35938-4.2969 1.0781-1 0.71875-1.5 1.7422-1.5 3.0625 0 1.1172 0.33203 1.9531 1 2.5156 0.66406 0.5625 1.9297 1.0234 3.7969 1.375l2.0625 0.42188c2.5312 0.48047 4.3984 1.3281 5.6094 2.5469 1.207 1.2188 1.8125 2.8516 1.8125 4.8906 0 2.4375-0.82031 4.2891-2.4531 5.5469-1.6367 1.25-4.0273 1.875-7.1719 1.875-1.1992 0-2.4688-0.13672-3.8125-0.40625-1.3359-0.25781-2.7188-0.65625-4.1562-1.1875v-3.5c1.375 0.77344 2.7227 1.3555 4.0469 1.75 1.332 0.39844 2.6406 0.59375 3.9219 0.59375 1.9375 0 3.4297-0.37891 4.4844-1.1406 1.0625-0.76953 1.5938-1.8633 1.5938-3.2812 0-1.2266-0.38281-2.1914-1.1406-2.8906-0.76172-0.69531-2.0078-1.2188-3.7344-1.5625l-2.0625-0.40625c-2.543-0.50781-4.3828-1.3008-5.5156-2.375-1.1367-1.082-1.7031-2.582-1.7031-4.5 0-2.2188 0.78125-3.9688 2.3438-5.25 1.5703-1.2812 3.7344-1.9219 6.4844-1.9219 1.1758 0 2.375 0.10938 3.5938 0.32812 1.2266 0.21094 2.4844 0.52734 3.7656 0.95312z"/>
  </symbol>
  <symbol id="ah" overflow="visible">
   <path d="m10.562-16.688c-1.668 0-2.9844 0.65234-3.9531 1.9531-0.96094 1.293-1.4375 3.0703-1.4375 5.3281 0 2.25 0.47656 4.0273 1.4375 5.3281 0.95703 1.293 2.2734 1.9375 3.9531 1.9375 1.6445 0 2.9453-0.64844 3.9062-1.9531 0.96875-1.3008 1.4531-3.0703 1.4531-5.3125 0-2.2383-0.48438-4.0078-1.4531-5.3125-0.96094-1.3125-2.2617-1.9688-3.9062-1.9688zm0-2.625c2.6875 0 4.8008 0.875 6.3438 2.625 1.5391 1.75 2.3125 4.1797 2.3125 7.2812 0 3.0859-0.77344 5.5078-2.3125 7.2656-1.543 1.75-3.6562 2.625-6.3438 2.625-2.7109 0-4.8281-0.875-6.3594-2.625-1.5312-1.7578-2.2969-4.1797-2.2969-7.2656 0-3.1016 0.76562-5.5312 2.2969-7.2812s3.6484-2.625 6.3594-2.625z"/>
  </symbol>
  <symbol id="ag" overflow="visible">
   <path d="m3.25-26.203h3.0938v26.203h-3.0938z"/>
  </symbol>
  <symbol id="ab" overflow="visible">
   <path d="m1.7344-0.10938c-0.085937 0.054688-0.17969 0.089844-0.28125 0.10938-0.09375 0.019531-0.19531 0.03125-0.29688 0.03125-0.3125 0-0.5625-0.082031-0.75-0.25-0.1875-0.17578-0.28125-0.41406-0.28125-0.71875 0-0.30078 0.09375-0.53906 0.28125-0.71875 0.1875-0.17578 0.4375-0.26562 0.75-0.26562 0.10156 0 0.20312 0.011719 0.29688 0.03125 0.10156 0.023437 0.19531 0.058594 0.28125 0.10938v0.39062c-0.085937-0.0625-0.17188-0.10938-0.26562-0.14062-0.085938-0.03125-0.17969-0.046875-0.28125-0.046875-0.16797 0-0.30469 0.058594-0.40625 0.17188-0.09375 0.11719-0.14062 0.27344-0.14062 0.46875 0 0.1875 0.046875 0.33984 0.14062 0.45312 0.10156 0.11719 0.23828 0.17188 0.40625 0.17188 0.10156 0 0.19531-0.015625 0.28125-0.046875 0.09375-0.03125 0.17969-0.078125 0.26562-0.14062z"/>
  </symbol>
  <symbol id="b" overflow="visible">
   <path d="m1.2656-1.0312c-0.03125-0.019531-0.070313-0.035156-0.10938-0.046875-0.042969-0.007813-0.085938-0.015625-0.125-0.015625-0.11719 0-0.20312 0.042969-0.26562 0.125-0.0625 0.074219-0.09375 0.17969-0.09375 0.3125v0.65625h-0.45312v-1.4219h0.45312v0.23438c0.0625-0.09375 0.12891-0.16016 0.20312-0.20312 0.070312-0.039063 0.16016-0.0625 0.26562-0.0625h0.046875c0.019531 0 0.046875 0.007813 0.078125 0.015625z"/>
  </symbol>
  <symbol id="a" overflow="visible">
   <path d="m1.6406-0.71875v0.14062h-1.0625c0.007813 0.10547 0.046875 0.18359 0.10938 0.23438 0.0625 0.054688 0.15625 0.078125 0.28125 0.078125 0.09375 0 0.1875-0.007813 0.28125-0.03125 0.10156-0.03125 0.20703-0.078125 0.3125-0.14062v0.34375c-0.10547 0.042969-0.21484 0.074219-0.32812 0.09375-0.10547 0.019531-0.21094 0.03125-0.3125 0.03125-0.26172 0-0.46484-0.0625-0.60938-0.1875-0.13672-0.13281-0.20312-0.31641-0.20312-0.54688 0-0.23828 0.066406-0.42188 0.20312-0.54688 0.14453-0.13281 0.33594-0.20312 0.57812-0.20312 0.22656 0 0.41016 0.070313 0.54688 0.20312 0.13281 0.13672 0.20312 0.3125 0.20312 0.53125zm-0.46875-0.14062c0-0.09375-0.027344-0.16406-0.078125-0.21875-0.054688-0.050781-0.12109-0.078125-0.20312-0.078125-0.085937 0-0.15625 0.027344-0.21875 0.078125-0.054687 0.054687-0.085937 0.125-0.09375 0.21875z"/>
  </symbol>
  <symbol id="g" overflow="visible">
   <path d="m0.85938-0.64062c-0.09375 0-0.16797 0.015625-0.21875 0.046875-0.054687 0.03125-0.078125 0.078125-0.078125 0.14062s0.019531 0.10938 0.0625 0.14062c0.039062 0.03125 0.09375 0.046875 0.15625 0.046875 0.09375 0 0.16406-0.03125 0.21875-0.09375 0.0625-0.0625 0.09375-0.14062 0.09375-0.23438v-0.046875zm0.6875-0.17188v0.8125h-0.45312v-0.20312c-0.0625 0.085937-0.13672 0.14844-0.21875 0.1875-0.074219 0.03125-0.16406 0.046875-0.26562 0.046875-0.14844 0-0.26562-0.039062-0.35938-0.125-0.09375-0.082031-0.14062-0.19141-0.14062-0.32812 0-0.16406 0.054687-0.28516 0.17188-0.35938 0.11328-0.082031 0.29688-0.125 0.54688-0.125h0.26562v-0.03125c0-0.070312-0.03125-0.125-0.09375-0.15625-0.054688-0.039062-0.14062-0.0625-0.26562-0.0625-0.09375 0-0.18359 0.011719-0.26562 0.03125-0.085938 0.023438-0.16406 0.054688-0.23438 0.09375v-0.34375c0.09375-0.03125 0.1875-0.050781 0.28125-0.0625 0.10156-0.007812 0.20703-0.015625 0.3125-0.015625 0.25 0 0.42969 0.054687 0.54688 0.15625 0.11328 0.09375 0.17188 0.25781 0.17188 0.48438z"/>
  </symbol>
  <symbol id="f" overflow="visible">
   <path d="m0.71875-1.8281v0.40625h0.46875v0.32812h-0.46875v0.59375c0 0.074219 0.007812 0.12109 0.03125 0.14062 0.03125 0.023437 0.082031 0.03125 0.15625 0.03125h0.23438v0.32812h-0.39062c-0.17969 0-0.30469-0.035156-0.375-0.10938-0.074219-0.070313-0.10938-0.20312-0.10938-0.39062v-0.59375h-0.23438v-0.32812h0.23438v-0.40625z"/>
  </symbol>
  <symbol id="k" overflow="visible">
   <path d="m1.1875-1.2031v-0.76562h0.45312v1.9688h-0.45312v-0.20312c-0.0625 0.085937-0.13672 0.14844-0.21875 0.1875-0.074219 0.03125-0.15625 0.046875-0.25 0.046875-0.17969 0-0.32422-0.066406-0.4375-0.20312-0.11719-0.13281-0.17188-0.3125-0.17188-0.53125s0.054687-0.39453 0.17188-0.53125c0.11328-0.14453 0.25781-0.21875 0.4375-0.21875 0.09375 0 0.17578 0.023437 0.25 0.0625 0.082031 0.042969 0.15625 0.10547 0.21875 0.1875zm-0.29688 0.90625c0.09375 0 0.16406-0.03125 0.21875-0.09375 0.050781-0.070313 0.078125-0.17578 0.078125-0.3125 0-0.13281-0.027344-0.23828-0.078125-0.3125-0.054687-0.070313-0.125-0.10938-0.21875-0.10938-0.10547 0-0.18359 0.039062-0.23438 0.10938-0.042969 0.074219-0.0625 0.17969-0.0625 0.3125 0 0.13672 0.019531 0.24219 0.0625 0.3125 0.050781 0.0625 0.12891 0.09375 0.23438 0.09375z"/>
  </symbol>
  <symbol id="r" overflow="visible">
   <path d="m0.96875-0.29688c0.10156 0 0.17578-0.03125 0.21875-0.09375 0.050781-0.070313 0.078125-0.17578 0.078125-0.3125 0-0.13281-0.027344-0.23828-0.078125-0.3125-0.042969-0.070313-0.11719-0.10938-0.21875-0.10938-0.09375 0-0.16797 0.039062-0.21875 0.10938-0.054688 0.074219-0.078125 0.17969-0.078125 0.3125 0 0.13672 0.023437 0.24219 0.078125 0.3125 0.050781 0.0625 0.125 0.09375 0.21875 0.09375zm-0.29688-0.90625c0.0625-0.082031 0.12891-0.14453 0.20312-0.1875 0.082031-0.039063 0.17188-0.0625 0.26562-0.0625 0.17578 0 0.31641 0.074219 0.42188 0.21875 0.11328 0.13672 0.17188 0.3125 0.17188 0.53125s-0.058594 0.39844-0.17188 0.53125c-0.10547 0.13672-0.24609 0.20312-0.42188 0.20312-0.09375 0-0.18359-0.015625-0.26562-0.046875-0.074219-0.039062-0.14062-0.10156-0.20312-0.1875v0.20312h-0.45312v-1.9688h0.45312z"/>
  </symbol>
  <symbol id="q" overflow="visible">
   <path d="m0.03125-1.4219h0.45312l0.375 0.96875 0.32812-0.96875h0.45312l-0.59375 1.5625c-0.0625 0.15625-0.13672 0.26562-0.21875 0.32812-0.074219 0.0625-0.17969 0.09375-0.3125 0.09375h-0.25v-0.29688h0.14062c0.070312 0 0.125-0.015625 0.15625-0.046875 0.039062-0.023438 0.070312-0.0625 0.09375-0.125v-0.046875z"/>
  </symbol>
  <symbol id="p" overflow="visible">
   <path d="m1-1.1562c0.070312 0 0.12891-0.015625 0.17188-0.046875 0.039063-0.039063 0.0625-0.09375 0.0625-0.15625s-0.023437-0.10938-0.0625-0.14062c-0.042969-0.039062-0.10156-0.0625-0.17188-0.0625h-0.28125v0.40625zm0.015625 0.82812c0.09375 0 0.16406-0.019531 0.21875-0.0625 0.050781-0.039063 0.078125-0.10156 0.078125-0.1875 0-0.082031-0.027344-0.14453-0.078125-0.1875-0.054687-0.039063-0.125-0.0625-0.21875-0.0625h-0.29688v0.5zm0.45312-0.6875c0.10156 0.03125 0.17969 0.089844 0.23438 0.17188 0.0625 0.085938 0.09375 0.18359 0.09375 0.29688 0 0.1875-0.0625 0.32812-0.1875 0.42188-0.125 0.085938-0.3125 0.125-0.5625 0.125h-0.8125v-1.8906h0.73438c0.25781 0 0.44531 0.042969 0.5625 0.125 0.125 0.074219 0.1875 0.19922 0.1875 0.375 0 0.09375-0.023438 0.17188-0.0625 0.23438-0.042969 0.0625-0.10547 0.10938-0.1875 0.14062z"/>
  </symbol>
  <symbol id="h" overflow="visible">
   <path d="m1.6406-0.85938v0.85938h-0.45312v-0.65625c0-0.125-0.007812-0.20703-0.015625-0.25 0-0.050781-0.007813-0.085938-0.015625-0.10938-0.023438-0.03125-0.046875-0.050781-0.078125-0.0625-0.03125-0.019531-0.070313-0.03125-0.10938-0.03125-0.09375 0-0.16797 0.039063-0.21875 0.10938-0.054688 0.074219-0.078125 0.17188-0.078125 0.29688v0.70312h-0.45312v-1.4219h0.45312v0.21875c0.070313-0.082031 0.14453-0.14453 0.21875-0.1875 0.070313-0.039063 0.15625-0.0625 0.25-0.0625 0.16406 0 0.28906 0.054687 0.375 0.15625 0.082031 0.09375 0.125 0.24219 0.125 0.4375z"/>
  </symbol>
  <symbol id="l" overflow="visible">
   <path d="m0.21875-1.4219h0.45312v1.3906c0 0.19531-0.046875 0.34375-0.14062 0.4375-0.09375 0.10156-0.22656 0.15625-0.39062 0.15625h-0.23438v-0.29688h0.09375c0.082031 0 0.14062-0.023437 0.17188-0.0625 0.03125-0.042969 0.046875-0.12109 0.046875-0.23438zm0-0.54688h0.45312v0.375h-0.45312z"/>
  </symbol>
  <symbol id="d" overflow="visible">
   <path d="m1.5312-1.1875c0.0625-0.082031 0.12891-0.14453 0.20312-0.1875 0.082031-0.050781 0.17188-0.078125 0.26562-0.078125 0.15625 0 0.27344 0.054687 0.35938 0.15625 0.09375 0.09375 0.14062 0.24219 0.14062 0.4375v0.85938h-0.45312v-0.73438-0.03125-0.0625c0-0.09375-0.015625-0.16016-0.046875-0.20312-0.03125-0.050781-0.078125-0.078125-0.14062-0.078125-0.085937 0-0.15234 0.039063-0.20312 0.10938-0.042969 0.074219-0.070312 0.17188-0.078125 0.29688v0.70312h-0.45312v-0.73438c0-0.15625-0.015625-0.25391-0.046875-0.29688-0.023437-0.050781-0.070313-0.078125-0.14062-0.078125-0.085938 0-0.15234 0.039063-0.20312 0.10938-0.042969 0.074219-0.0625 0.17188-0.0625 0.29688v0.70312h-0.45312v-1.4219h0.45312v0.21875c0.050781-0.082031 0.11328-0.14453 0.1875-0.1875 0.070313-0.039063 0.15625-0.0625 0.25-0.0625s0.17578 0.027344 0.25 0.078125c0.070313 0.042969 0.12891 0.10547 0.17188 0.1875z"/>
  </symbol>
  <symbol id="aa" overflow="visible">
   <path d="m0.21875-1.4219h0.45312v1.4219h-0.45312zm0-0.54688h0.45312v0.375h-0.45312z"/>
  </symbol>
  <symbol id="z" overflow="visible">
   <path d="m1.5469-1.8281v0.39062c-0.10547-0.039062-0.20312-0.070312-0.29688-0.09375-0.09375-0.03125-0.1875-0.046875-0.28125-0.046875-0.11719 0-0.20312 0.023437-0.26562 0.0625-0.054687 0.03125-0.078125 0.078125-0.078125 0.14062 0 0.054688 0.015625 0.09375 0.046875 0.125 0.039063 0.023438 0.11328 0.042969 0.21875 0.0625l0.20312 0.046875c0.20703 0.042969 0.35156 0.10938 0.4375 0.20312 0.09375 0.085938 0.14062 0.20312 0.14062 0.35938 0 0.21094-0.0625 0.36719-0.1875 0.46875-0.11719 0.09375-0.30469 0.14062-0.5625 0.14062-0.11719 0-0.23438-0.011719-0.35938-0.03125-0.11719-0.019531-0.23438-0.050781-0.35938-0.09375v-0.42188c0.125 0.0625 0.23828 0.11719 0.34375 0.15625 0.11328 0.03125 0.22266 0.046875 0.32812 0.046875 0.10156 0 0.17969-0.015625 0.23438-0.046875 0.0625-0.039063 0.09375-0.09375 0.09375-0.15625s-0.023437-0.10938-0.0625-0.14062c-0.03125-0.03125-0.10547-0.0625-0.21875-0.09375l-0.1875-0.03125c-0.1875-0.039062-0.32812-0.10156-0.42188-0.1875-0.085938-0.09375-0.125-0.21875-0.125-0.375 0-0.1875 0.054688-0.32812 0.17188-0.42188 0.125-0.10156 0.30078-0.15625 0.53125-0.15625 0.10156 0 0.20703 0.011719 0.3125 0.03125 0.11328 0.011719 0.22656 0.03125 0.34375 0.0625z"/>
  </symbol>
  <symbol id="c" overflow="visible">
   <path d="m0.89062-1.125c-0.10547 0-0.18359 0.039062-0.23438 0.10938-0.054688 0.074219-0.078125 0.17969-0.078125 0.3125 0 0.13672 0.023437 0.24219 0.078125 0.3125 0.050781 0.074219 0.12891 0.10938 0.23438 0.10938 0.10156 0 0.17969-0.035156 0.23438-0.10938 0.050781-0.070313 0.078125-0.17578 0.078125-0.3125 0-0.13281-0.027344-0.23828-0.078125-0.3125-0.054688-0.070313-0.13281-0.10938-0.23438-0.10938zm0-0.32812c0.25 0 0.44141 0.070313 0.57812 0.20312 0.13281 0.125 0.20312 0.30859 0.20312 0.54688 0 0.23047-0.070313 0.41406-0.20312 0.54688-0.13672 0.125-0.32812 0.1875-0.57812 0.1875-0.24219 0-0.43359-0.0625-0.57812-0.1875-0.13672-0.13281-0.20312-0.31641-0.20312-0.54688 0-0.23828 0.066406-0.42188 0.20312-0.54688 0.14453-0.13281 0.33594-0.20312 0.57812-0.20312z"/>
  </symbol>
  <symbol id="y" overflow="visible">
   <path d="m0.21875-1.9688h0.45312v1.9688h-0.45312z"/>
  </symbol>
  <symbol id="x" overflow="visible">
   <path d="m1.1562-1.9688v0.29688h-0.25c-0.074219 0-0.12109 0.011719-0.14062 0.03125-0.023437 0.023437-0.03125 0.0625-0.03125 0.125v0.09375h0.375v0.32812h-0.375v1.0938h-0.45312v-1.0938h-0.23438v-0.32812h0.23438v-0.09375c0-0.15625 0.039062-0.26953 0.125-0.34375 0.082031-0.070313 0.21094-0.10938 0.39062-0.10938z"/>
  </symbol>
  <symbol id="w" overflow="visible">
   <path d="m1.6406-0.85938v0.85938h-0.45312v-0.65625c0-0.125-0.007812-0.20703-0.015625-0.25 0-0.050781-0.007813-0.085938-0.015625-0.10938-0.023438-0.03125-0.046875-0.050781-0.078125-0.0625-0.03125-0.019531-0.070313-0.03125-0.10938-0.03125-0.09375 0-0.16797 0.039063-0.21875 0.10938-0.054688 0.074219-0.078125 0.17188-0.078125 0.29688v0.70312h-0.45312v-1.9688h0.45312v0.76562c0.070313-0.082031 0.14453-0.14453 0.21875-0.1875 0.070313-0.039063 0.15625-0.0625 0.25-0.0625 0.16406 0 0.28906 0.054687 0.375 0.15625 0.082031 0.09375 0.125 0.24219 0.125 0.4375z"/>
  </symbol>
  <symbol id="v" overflow="visible">
   <path d="m0.23438-1.8906h0.54688l0.6875 1.2969v-1.2969h0.46875v1.8906h-0.54688l-0.6875-1.2969v1.2969h-0.46875z"/>
  </symbol>
  <symbol id="u" overflow="visible">
   <path d="m0.20312-0.54688v-0.875h0.45312v0.14062 0.29688 0.23438 0.25c0.007812 0.042969 0.019531 0.074219 0.03125 0.09375 0.019531 0.03125 0.046875 0.058594 0.078125 0.078125 0.03125 0.011719 0.066406 0.015625 0.10938 0.015625 0.09375 0 0.16406-0.035156 0.21875-0.10938 0.050781-0.070313 0.078125-0.17188 0.078125-0.29688v-0.70312h0.45312v1.4219h-0.45312v-0.20312c-0.0625 0.085937-0.13672 0.14844-0.21875 0.1875-0.074219 0.03125-0.15625 0.046875-0.25 0.046875-0.16797 0-0.29297-0.046875-0.375-0.14062-0.085937-0.10156-0.125-0.25-0.125-0.4375z"/>
  </symbol>
  <symbol id="t" overflow="visible">
   <path d="m0.23438-1.8906h0.8125c0.23828 0 0.42188 0.054687 0.54688 0.15625 0.13281 0.10547 0.20312 0.25781 0.20312 0.45312 0 0.21094-0.070313 0.36719-0.20312 0.46875-0.125 0.10547-0.30859 0.15625-0.54688 0.15625h-0.32812v0.65625h-0.48438zm0.48438 0.35938v0.51562h0.28125c0.09375 0 0.16406-0.019531 0.21875-0.0625 0.050781-0.039063 0.078125-0.10938 0.078125-0.20312 0-0.082031-0.027344-0.14453-0.078125-0.1875-0.054688-0.039062-0.125-0.0625-0.21875-0.0625z"/>
  </symbol>
  <symbol id="s" overflow="visible">
   <path d="m1.3594-1.375v0.375c-0.0625-0.039062-0.125-0.070312-0.1875-0.09375-0.0625-0.019531-0.125-0.03125-0.1875-0.03125-0.125 0-0.22656 0.039062-0.29688 0.10938-0.074219 0.074219-0.10938 0.17969-0.10938 0.3125 0 0.125 0.035156 0.23047 0.10938 0.3125 0.070312 0.074219 0.17188 0.10938 0.29688 0.10938 0.070313 0 0.14062-0.007812 0.20312-0.03125 0.0625-0.019531 0.11719-0.050781 0.17188-0.09375v0.35938c-0.074219 0.03125-0.14844 0.050781-0.21875 0.0625-0.074219 0.0078125-0.14844 0.015625-0.21875 0.015625-0.25 0-0.44922-0.0625-0.59375-0.1875-0.14844-0.13281-0.21875-0.31641-0.21875-0.54688 0-0.23828 0.070313-0.42188 0.21875-0.54688 0.14453-0.13281 0.34375-0.20312 0.59375-0.20312 0.082031 0 0.15625 0.011719 0.21875 0.03125 0.070313 0.011719 0.14453 0.027344 0.21875 0.046875z"/>
  </symbol>
 </defs>
 <g>
  <path d="m405.36 280 145.56-145.56c15.289-15.289 15.289-40.074 0-55.363s-40.074-15.289-55.363 0l-145.56 145.56-145.56-145.56c-15.289-15.289-40.074-15.289-55.363 0s-15.289 40.074 0 55.363l145.56 145.56-145.56 145.56c-15.289 15.289-15.289 40.074 0 55.363s40.074 15.289 55.363 0l145.56-145.56 145.56 145.56c15.289 15.289 40.074 15.289 55.363 0s15.289-40.074 0-55.363z"/>
 
 </g>
</svg>
