<?xml version="1.0" encoding="UTF-8"?>
<svg width="700pt" height="700pt" version="1.1" viewBox="90 0 550 550" xmlns="http://www.w3.org/2000/svg" xmlns:xlink="http://www.w3.org/1999/xlink">
 <defs>
  <symbol id="r" overflow="visible">
   <path d="m27.578-1.6562c-1.418 0.74219-2.8984 1.2969-4.4375 1.6719-1.543 0.375-3.1523 0.5625-4.8281 0.5625-5 0-8.9648-1.3945-11.891-4.1875-2.918-2.7891-4.375-6.582-4.375-11.375 0-4.7891 1.457-8.582 4.375-11.375 2.9258-2.8008 6.8906-4.2031 11.891-4.2031 1.6758 0 3.2852 0.1875 4.8281 0.5625 1.5391 0.375 3.0195 0.93359 4.4375 1.6719v6.2188c-1.4297-0.97656-2.8398-1.6953-4.2344-2.1562-1.3984-0.45703-2.8672-0.6875-4.4062-0.6875-2.7617 0-4.9336 0.88672-6.5156 2.6562-1.5859 1.7734-2.375 4.2109-2.375 7.3125 0 3.1055 0.78906 5.543 2.375 7.3125 1.582 1.7617 3.7539 2.6406 6.5156 2.6406 1.5391 0 3.0078-0.22266 4.4062-0.67188 1.3945-0.45703 2.8047-1.1758 4.2344-2.1562z"/>
  </symbol>
  <symbol id="c" overflow="visible">
   <path d="m20.188-16.391c-0.63672-0.28906-1.2656-0.50391-1.8906-0.64062-0.61719-0.14453-1.2422-0.21875-1.875-0.21875-1.8438 0-3.2656 0.59375-4.2656 1.7812s-1.5 2.8867-1.5 5.0938v10.375h-7.2031v-22.516h7.2031v3.7031c0.92578-1.4766 1.9883-2.5547 3.1875-3.2344 1.1953-0.67578 2.6328-1.0156 4.3125-1.0156 0.23828 0 0.5 0.011719 0.78125 0.03125 0.28125 0.023438 0.6875 0.070312 1.2188 0.14062z"/>
  </symbol>
  <symbol id="a" overflow="visible">
   <path d="m25.938-11.312v2.0469h-16.828c0.17578 1.6875 0.78516 2.9531 1.8281 3.7969 1.0391 0.84375 2.5 1.2656 4.375 1.2656 1.5195 0 3.0703-0.22266 4.6562-0.67188 1.5938-0.44531 3.2266-1.1289 4.9062-2.0469v5.5625c-1.7109 0.63672-3.418 1.1172-5.125 1.4375-1.6992 0.33203-3.3984 0.5-5.0938 0.5-4.0742 0-7.2422-1.0312-9.5-3.0938-2.2617-2.0703-3.3906-4.9766-3.3906-8.7188 0-3.6758 1.1094-6.5664 3.3281-8.6719 2.2188-2.1016 5.2695-3.1562 9.1562-3.1562 3.5391 0 6.375 1.0703 8.5 3.2031 2.125 2.125 3.1875 4.9766 3.1875 8.5469zm-7.4062-2.3906c0-1.375-0.40234-2.4766-1.2031-3.3125-0.79297-0.84375-1.8281-1.2656-3.1094-1.2656-1.3984 0-2.5312 0.39844-3.4062 1.1875-0.86719 0.78125-1.4062 1.9141-1.625 3.3906z"/>
  </symbol>
  <symbol id="g" overflow="visible">
   <path d="m13.547-10.125c-1.5 0-2.6328 0.25781-3.3906 0.76562-0.75 0.5-1.125 1.25-1.125 2.25 0 0.90625 0.30078 1.6211 0.90625 2.1406 0.61328 0.51172 1.4609 0.76562 2.5469 0.76562 1.3516 0 2.4883-0.48438 3.4062-1.4531 0.92578-0.96875 1.3906-2.1875 1.3906-3.6562v-0.8125zm11-2.7188v12.844h-7.2656v-3.3438c-0.96094 1.375-2.043 2.375-3.25 3-1.2109 0.61328-2.6797 0.92188-4.4062 0.92188-2.3359 0-4.2305-0.67578-5.6875-2.0312-1.4492-1.3633-2.1719-3.1289-2.1719-5.2969 0-2.6445 0.90625-4.582 2.7188-5.8125 1.8203-1.2383 4.6758-1.8594 8.5625-1.8594h4.2344v-0.5625c0-1.1328-0.44922-1.9688-1.3438-2.5-0.89844-0.53125-2.2969-0.79688-4.2031-0.79688-1.543 0-2.9766 0.15625-4.2969 0.46875-1.3242 0.3125-2.5586 0.77734-3.7031 1.3906v-5.4844c1.5391-0.375 3.0859-0.66016 4.6406-0.85938 1.5625-0.19531 3.1172-0.29688 4.6719-0.29688 4.0625 0 6.9922 0.80469 8.7969 2.4062 1.8008 1.6055 2.7031 4.2109 2.7031 7.8125z"/>
  </symbol>
  <symbol id="b" overflow="visible">
   <path d="m11.312-28.906v6.3906h7.4219v5.1406h-7.4219v9.5625c0 1.043 0.20703 1.75 0.625 2.125 0.41406 0.36719 1.2422 0.54688 2.4844 0.54688h3.6875v5.1406h-6.1719c-2.8438 0-4.8594-0.59375-6.0469-1.7812-1.1797-1.1875-1.7656-3.1953-1.7656-6.0312v-9.5625h-3.5781v-5.1406h3.5781v-6.3906z"/>
  </symbol>
  <symbol id="f" overflow="visible">
   <path d="m18.781-19.219v-12.062h7.2344v31.281h-7.2344v-3.25c-1 1.3242-2.1016 2.293-3.2969 2.9062-1.1875 0.61328-2.5625 0.92188-4.125 0.92188-2.7734 0-5.0547-1.0977-6.8438-3.2969-1.7812-2.207-2.6719-5.0469-2.6719-8.5156s0.89062-6.3047 2.6719-8.5156c1.7891-2.207 4.0703-3.3125 6.8438-3.3125 1.5508 0 2.9258 0.3125 4.125 0.9375 1.1953 0.625 2.2969 1.5938 3.2969 2.9062zm-4.75 14.578c1.5391 0 2.7188-0.5625 3.5312-1.6875s1.2188-2.7578 1.2188-4.9062c0-2.1445-0.40625-3.7812-1.2188-4.9062s-1.9922-1.6875-3.5312-1.6875c-1.5312 0-2.7031 0.5625-3.5156 1.6875-0.80469 1.125-1.2031 2.7617-1.2031 4.9062 0 2.1484 0.39844 3.7812 1.2031 4.9062 0.8125 1.125 1.9844 1.6875 3.5156 1.6875z"/>
  </symbol>
  <symbol id="e" overflow="visible">
   <path d="m15.438-4.6406c1.5391 0 2.7188-0.5625 3.5312-1.6875s1.2188-2.7578 1.2188-4.9062c0-2.1445-0.40625-3.7812-1.2188-4.9062s-1.9922-1.6875-3.5312-1.6875c-1.543 0-2.7266 0.57031-3.5469 1.7031-0.82422 1.125-1.2344 2.7578-1.2344 4.8906 0 2.125 0.41016 3.7578 1.2344 4.8906 0.82031 1.1367 2.0039 1.7031 3.5469 1.7031zm-4.7812-14.578c0.98828-1.3125 2.0859-2.2812 3.2969-2.9062 1.207-0.625 2.5938-0.9375 4.1562-0.9375 2.7812 0 5.0625 1.1055 6.8438 3.3125 1.7812 2.2109 2.6719 5.0469 2.6719 8.5156s-0.89062 6.3086-2.6719 8.5156c-1.7812 2.1992-4.0625 3.2969-6.8438 3.2969-1.5625 0-2.9492-0.30859-4.1562-0.92188-1.2109-0.625-2.3086-1.5938-3.2969-2.9062v3.25h-7.2031v-31.281h7.2031z"/>
  </symbol>
  <symbol id="i" overflow="visible">
   <path d="m0.5-22.516h7.2031l6.0469 15.281 5.1406-15.281h7.2031l-9.4688 24.641c-0.94922 2.5078-2.0586 4.2656-3.3281 5.2656-1.2617 1-2.9336 1.5-5.0156 1.5h-4.1562v-4.7344h2.25c1.2188 0 2.1016-0.19531 2.6562-0.57812 0.5625-0.38672 0.99219-1.0859 1.2969-2.0938l0.20312-0.625z"/>
  </symbol>
  <symbol id="h" overflow="visible">
   <path d="m15.797-18.391c1.2188 0 2.1406-0.26562 2.7656-0.79688 0.63281-0.53906 0.95312-1.3359 0.95312-2.3906 0-1.0312-0.32031-1.8164-0.95312-2.3594-0.625-0.53906-1.5469-0.8125-2.7656-0.8125h-4.2812v6.3594zm0.26562 13.125c1.5508 0 2.7188-0.32812 3.5-0.98438 0.78906-0.65625 1.1875-1.6484 1.1875-2.9844 0-1.2891-0.39062-2.2578-1.1719-2.9062-0.77344-0.65625-1.9453-0.98438-3.5156-0.98438h-4.5469v7.8594zm7.2031-10.797c1.6562 0.48047 2.9375 1.3711 3.8438 2.6719 0.91406 1.3047 1.375 2.8984 1.375 4.7812 0 2.8984-0.98047 5.0586-2.9375 6.4844-1.9609 1.418-4.9336 2.125-8.9219 2.125h-12.844v-30.016h11.625c4.1641 0 7.1797 0.63281 9.0469 1.8906 1.875 1.2617 2.8125 3.2773 2.8125 6.0469 0 1.4688-0.34375 2.7148-1.0312 3.7344-0.6875 1.0234-1.6797 1.7812-2.9688 2.2812z"/>
  </symbol>
  <symbol id="d" overflow="visible">
   <path d="m26.094-13.703v13.703h-7.2344v-10.5c0-1.9375-0.046875-3.2734-0.14062-4.0156-0.085938-0.73828-0.23047-1.2812-0.4375-1.625-0.28125-0.46875-0.66797-0.83203-1.1562-1.0938-0.48047-0.25781-1.0273-0.39062-1.6406-0.39062-1.5 0-2.6836 0.57812-3.5469 1.7344-0.85547 1.1562-1.2812 2.7617-1.2812 4.8125v11.078h-7.2031v-22.516h7.2031v3.2969c1.082-1.3125 2.2344-2.2812 3.4531-2.9062s2.5664-0.9375 4.0469-0.9375c2.5938 0 4.5625 0.79688 5.9062 2.3906 1.3516 1.5938 2.0312 3.918 2.0312 6.9688z"/>
  </symbol>
  <symbol id="q" overflow="visible">
   <path d="m3.7812-30.016h7.7344v24.172h13.594v5.8438h-21.328z"/>
  </symbol>
  <symbol id="p" overflow="visible">
   <path d="m3.4531-31.281h7.2031v17.031l8.2812-8.2656h8.3594l-11 10.328 11.875 12.188h-8.7344l-8.7812-9.3906v9.3906h-7.2031z"/>
  </symbol>
  <symbol id="o" overflow="visible">
   <path d="m3.4531-22.516h7.2031v22.516h-7.2031zm0-8.7656h7.2031v5.875h-7.2031z"/>
  </symbol>
  <symbol id="n" overflow="visible">
   <path d="m18.281-31.281v4.7188h-3.9844c-1.0234 0-1.7344 0.1875-2.1406 0.5625-0.39844 0.36719-0.59375 1.0078-0.59375 1.9219v1.5625h6.1562v5.1406h-6.1562v17.375h-7.2031v-17.375h-3.5781v-5.1406h3.5781v-1.5625c0-2.457 0.67969-4.2695 2.0469-5.4375 1.375-1.1758 3.4922-1.7656 6.3594-1.7656z"/>
  </symbol>
  <symbol id="m" overflow="visible">
   <path d="m26.094-13.703v13.703h-7.2344v-10.453c0-1.9688-0.046875-3.3203-0.14062-4.0625-0.085938-0.73828-0.23047-1.2812-0.4375-1.625-0.28125-0.46875-0.66797-0.83203-1.1562-1.0938-0.48047-0.25781-1.0273-0.39062-1.6406-0.39062-1.5 0-2.6836 0.57812-3.5469 1.7344-0.85547 1.1562-1.2812 2.7617-1.2812 4.8125v11.078h-7.2031v-31.281h7.2031v12.062c1.082-1.3125 2.2344-2.2812 3.4531-2.9062s2.5664-0.9375 4.0469-0.9375c2.5938 0 4.5625 0.79688 5.9062 2.3906 1.3516 1.5938 2.0312 3.918 2.0312 6.9688z"/>
  </symbol>
  <symbol id="l" overflow="visible">
   <path d="m3.7812-30.016h8.6406l10.922 20.594v-20.594h7.3281v30.016h-8.6406l-10.906-20.594v20.594h-7.3438z"/>
  </symbol>
  <symbol id="k" overflow="visible">
   <path d="m3.7812-30.016h12.844c3.8203 0 6.7539 0.85156 8.7969 2.5469 2.0391 1.6992 3.0625 4.1172 3.0625 7.25 0 3.1484-1.0234 5.5703-3.0625 7.2656-2.043 1.6992-4.9766 2.5469-8.7969 2.5469h-5.1094v10.406h-7.7344zm7.7344 5.6094v8.3906h4.2812c1.5 0 2.6562-0.36328 3.4688-1.0938 0.82031-0.73828 1.2344-1.7734 1.2344-3.1094 0-1.3438-0.41406-2.375-1.2344-3.0938-0.8125-0.72656-1.9688-1.0938-3.4688-1.0938z"/>
  </symbol>
  <symbol id="j" overflow="visible">
   <path d="m3.4531-22.516h7.2031v22.109c0 3.0195-0.72656 5.3203-2.1719 6.9062-1.4492 1.5938-3.5469 2.3906-6.2969 2.3906h-3.5469v-4.7344h1.2344c1.375 0 2.3125-0.30859 2.8125-0.92188 0.50781-0.61719 0.76562-1.8281 0.76562-3.6406zm0-8.7656h7.2031v5.875h-7.2031z"/>
  </symbol>
 </defs>
 <g>
  <path d="m216.51 416.79h-81.285c-2.7383 0.003907-5.3008-1.3555-6.8359-3.625-6.4102-9.3867-9.8281-20.5-9.7969-31.871-0.039063-18.145 8.5312-35.23 23.094-46.055s33.398-14.098 50.762-8.832c17.363 5.2695 31.199 18.461 37.289 35.551 6.0938 17.094 3.7227 36.062-6.3945 51.125-1.5156 2.3008-4.0781 3.6914-6.832 3.707zm-76.672-16.469h71.977v-0.003906c3.0703-5.8711 4.6836-12.395 4.6953-19.023-0.63672-14.113-8.5352-26.891-20.875-33.773-12.34-6.8789-27.363-6.8789-39.703 0-12.34 6.8828-20.234 19.66-20.871 33.773 0 6.6406 1.6406 13.176 4.7773 19.023z"/>
  <path d="m575.07 416.79h-106.23c-3.0703-0.039062-5.8672-1.7852-7.2461-4.5312-9.7383-18.773-10.105-41.031-0.98828-60.117 8.8945-18.703 25.836-32.324 46.012-37s41.383 0.10547 57.598 12.988c16.219 12.879 25.672 32.453 25.684 53.164 0.011719 10.773-2.5547 21.391-7.4961 30.965-1.3945 2.7695-4.2266 4.5195-7.3281 4.5312zm-100.88-16.469 95.613-0.003906c6.6953-16.719 4.168-35.727-6.6719-50.109-10.84-14.387-28.41-22.062-46.332-20.234-17.918 1.8281-33.578 12.891-41.289 29.168-3.3086 6.8867-5.0273 14.43-5.0273 22.07 0.019531 6.5469 1.2773 13.031 3.707 19.105z"/>
  <path d="m178.05 263.53c-1.7812 0-3.5156-0.57812-4.9414-1.6484l-45.457-33.602c-6.8125 4.8047-15.504 6.0703-23.402 3.4062-7.8945-2.668-14.043-8.9414-16.547-16.891-2.5039-7.9492-1.0664-16.617 3.8789-23.328 3.9023-5.4023 9.7461-9.0898 16.305-10.293-0.96094-7.8594 1.6992-15.73 7.2305-21.395 5.5312-5.668 13.332-8.5195 21.215-7.75 7.8789 0.76562 14.984 5.0703 19.32 11.695 4.332 6.6289 5.4219 14.863 2.9648 22.391l45.543 33.602h-0.003906c2.4336 1.7812 3.6953 4.75 3.293 7.7383-0.39453 2.9805-2.3828 5.5039-5.1875 6.5898-4.3828 1.6445-8.2109 4.5-11.035 8.2344-2.8164 3.8984-4.5508 8.4727-5.0234 13.262-0.27734 2.9609-2.1367 5.543-4.8594 6.75-0.99609 0.64453-2.1172 1.0664-3.293 1.2383zm-51.059-54.105v-0.003906c1.7461-0.003906 3.4453 0.54297 4.8594 1.5664l41.176 30.469c1.3438-2.8984 2.9688-5.6562 4.8594-8.2344 1.8906-2.6289 4.1016-5.0078 6.5859-7.082l-41.176-30.469c-1.75-1.3164-2.9062-3.2695-3.2109-5.4375-0.32812-2.1445 0.20312-4.3359 1.4844-6.0938 1.543-2.0156 2.168-4.582 1.7266-7.082-0.57422-3.8594-3.4219-6.9922-7.2109-7.9297-3.7891-0.9375-7.7695 0.50391-10.082 3.6484-3.1211 4.2773-2.1992 10.273 2.0586 13.422 2.1289 1.5547 3.3828 4.0352 3.375 6.6719-0.015625 1.7539-0.59375 3.457-1.6445 4.8594-1.3008 1.7578-3.2422 2.9297-5.4062 3.2539-2.1641 0.32422-4.3672-0.22266-6.125-1.5273-4.2773-3.1172-10.273-2.1992-13.422 2.0625-3.1289 4.3047-2.2109 10.324 2.0586 13.504 4.2812 3.1211 10.273 2.1992 13.422-2.0586 1.5039-2.2227 3.9922-3.5742 6.6719-3.625z"/>
  <path d="m468.84 416.79h-202.18c-2.6797 0.011719-5.1992-1.2773-6.7539-3.4609-10.859-14.965-18.664-31.922-22.977-49.906-5.2812-25.281-19.527-47.805-40.105-63.41l-9.8008-7.1641c-11.672-9.3203-17.66-24.043-15.801-38.863 1.8555-14.82 11.285-27.609 24.898-33.766 13.613-6.1523 29.445-4.7812 41.797 3.6172l9.7188 7.1641c21.039 14.977 46.754 21.902 72.469 19.52 36.227-1.7773 71.91 9.3398 100.72 31.375 24.766 17.875 43.84 42.527 54.93 70.988 0.86719 2.0508 0.86719 4.3711 0 6.4219-3.3164 6.8555-5.0352 14.375-5.0234 21.988 0.011719 8.1641 1.957 16.207 5.6797 23.473 1.4727 2.5469 1.4727 5.6875 0 8.2344-1.6328 2.5625-4.543 4.0195-7.5742 3.7891zm-197.65-16.469 185.87-0.003906c-1.7656-6.1875-2.6797-12.586-2.7188-19.023-0.015625-8.8438 1.7188-17.605 5.1055-25.773-10.199-24.148-26.836-45.027-48.094-60.367-25.617-19.715-57.387-29.723-89.68-28.246-29.652 2.7109-59.289-5.3242-83.508-22.648l-9.7188-7.1641c-5.6367-4.1367-12.688-5.8711-19.602-4.8203-6.9141 1.0508-13.133 4.7969-17.289 10.422-4.2812 5.6328-6.1328 12.746-5.1445 19.75 0.99219 7.0078 4.7383 13.328 10.414 17.555l9.7188 7.1641c23.77 17.93 40.262 43.84 46.445 72.965 3.5039 14.371 9.5859 27.988 17.953 40.188z"/>
  <path d="m435.98 525.58h-171.95c-19.273-0.011719-37.645-8.1797-50.566-22.484l-13.422-14.824c-9.7539-10.887-23.676-17.117-38.293-17.129-23.523 0-45.355-12.227-57.648-32.281l-16.387-26.023c-1.5898-2.543-1.6719-5.7461-0.21484-8.3633 1.4531-2.6211 4.2188-4.2422 7.2148-4.2383h510.59c2.9961-0.003906 5.7617 1.6172 7.2148 4.2383 1.457 2.6172 1.375 5.8203-0.21484 8.3633l-16.059 26.023c-12.414 19.926-34.168 32.109-57.645 32.281-14.621 0.011719-28.543 6.2422-38.297 17.129l-13.422 14.824c-12.996 14.391-31.504 22.566-50.895 22.484zm-326.53-108.87 8.2344 13.508 0.003906-0.003906c9.3281 15.359 26.004 24.727 43.977 24.707 19.34 0.058593 37.746 8.3203 50.645 22.73l13.422 14.824 0.003907-0.003906c9.7617 10.867 23.688 17.066 38.293 17.051h171.95c14.605 0.015625 28.531-6.1836 38.293-17.051l13.426-14.82c12.91-14.328 31.277-22.523 50.562-22.566 17.938-0.10547 34.555-9.4414 43.977-24.707l8.2344-13.508z"/>
  <path d="m409.46 234.62c-4.5469 0-8.2344-3.6875-8.2344-8.2383-0.035156-9.0898 3.6914-17.793 10.297-24.047 3.9102-3.2227 6.1758-8.0234 6.1758-13.094 0-5.0664-2.2656-9.8711-6.1758-13.094-6.6289-6.2266-10.387-14.914-10.387-24.004 0-9.0938 3.7578-17.781 10.387-24.008 3.7891-3.207 6.0391-7.8789 6.1758-12.848 0-4.5469 3.6875-8.2344 8.2344-8.2344 4.5469 0 8.2344 3.6875 8.2344 8.2344-0.023437 8.9609-3.6445 17.535-10.047 23.801-3.8086 3.293-6.0273 8.0586-6.0938 13.094 0.046874 5.0156 2.2734 9.7656 6.0938 13.012 6.6523 6.2305 10.43 14.934 10.43 24.047 0 9.1133-3.7773 17.82-10.43 24.047-3.875 3.2539-6.1328 8.0391-6.1758 13.094 0 2.2305-0.90234 4.3633-2.5 5.9141s-3.7578 2.3906-5.9844 2.3242z"/>
  <path d="m449.32 162.15c-4.5469 0-8.2344-3.6875-8.2344-8.2344 0.023438-9.082 3.7383-17.762 10.293-24.047 3.9141-3.2227 6.1797-8.0273 6.1797-13.094 0-5.0703-2.2656-9.8711-6.1797-13.094-6.625-6.2266-10.383-14.914-10.383-24.008 0-9.0898 3.7578-17.777 10.383-24.004 3.8555-3.2344 6.1094-7.9844 6.1797-13.012 0-4.5508 3.6836-8.2383 8.2344-8.2383 4.5469 0 8.2344 3.6875 8.2344 8.2383-0.007813 9.0742-3.7617 17.746-10.375 23.965-3.8594 3.2539-6.0859 8.043-6.0859 13.094 0 5.0469 2.2266 9.8398 6.0859 13.094 6.625 6.2266 10.383 14.914 10.383 24.004 0 9.0938-3.7578 17.781-10.383 24.008-3.8359 3.2734-6.0586 8.0508-6.0938 13.094 0 4.5469-3.6875 8.2344-8.2383 8.2344z"/>
  <path d="m489.09 234.62c-4.5469 0-8.2344-3.6875-8.2344-8.2383 0.042969-9.0742 3.7539-17.75 10.293-24.047 3.9141-3.2227 6.1797-8.0234 6.1797-13.094 0-5.0664-2.2656-9.8711-6.1797-13.094-6.625-6.2266-10.383-14.914-10.383-24.004 0-9.0938 3.7578-17.781 10.383-24.008 3.7773-3.2227 6.0195-7.8867 6.1758-12.848 0-4.5469 3.6875-8.2344 8.2383-8.2344 4.5469 0 8.2344 3.6875 8.2344 8.2344-0.023437 9.082-3.7422 17.762-10.293 24.047-4.0547 3.1211-6.4258 7.9414-6.4258 13.055s2.3711 9.9336 6.4258 13.051c6.6523 6.2305 10.426 14.938 10.426 24.047 0 9.1133-3.7734 17.82-10.426 24.051-3.875 3.25-6.1328 8.0352-6.1797 13.094-0.13281 4.4492-3.7812 7.9883-8.2344 7.9883z"/>
  
 </g>
</svg>
