<?xml version="1.0" encoding="UTF-8"?>
<svg width="700pt" height="700pt" version="1.1" viewBox="0 0 700 700" xmlns="http://www.w3.org/2000/svg">
 <path d="m513.45 231.18c-13.188-47.672-22.668-96.293-28.348-145.43-0.32031-4.7812 3.125-8.9922 7.875-9.625 2.3203-0.24219 4.6445 0.44922 6.4531 1.9297 1.8086 1.4805 2.9492 3.6211 3.1719 5.9453 5.4492 48.078 14.695 95.652 27.648 142.27 1.3672 4.5898-1.207 9.4219-5.7734 10.852h-2.625c-3.7773-0.007812-7.1445-2.3906-8.4023-5.9492zm-338.45 5.9492h2.625c3.8711-0.054688 7.2617-2.6016 8.3984-6.3008 13.352-47.543 23.004-96.043 28.875-145.07 0.32031-4.7812-3.125-8.9922-7.875-9.625-2.3203-0.24219-4.6445 0.44922-6.4531 1.9297-1.8086 1.4805-2.9492 3.6211-3.1719 5.9453-5.4492 48.078-14.695 95.652-27.648 142.27-1.418 4.4375 0.89062 9.2109 5.25 10.852zm428.75-182.18c0 2.3203-0.92188 4.5469-2.5625 6.1875s-3.8672 2.5625-6.1875 2.5625h-26.25v441.35c0 2.3203-0.92188 4.5469-2.5625 6.1875s-3.8672 2.5625-6.1875 2.5625h-97.648c-2.5 0.042969-4.8828-1.0508-6.4766-2.9766-1.7617-1.7344-2.6016-4.1992-2.2734-6.6484 6.6484-69.125 30.449-184.98 37.625-219.1-68.777-12.598-121.45-145.07-141.23-201.77-19.773 56.699-72.449 189.18-141.23 201.77 7.1758 34.125 30.977 149.98 37.625 219.1 0.32812 2.4492-0.51172 4.9141-2.2734 6.6484-1.5938 1.9258-3.9766 3.0195-6.4766 2.9766h-97.648c-4.832 0-8.75-3.918-8.75-8.75v-441.35h-26.25c-4.832 0-8.75-3.918-8.75-8.75s3.918-8.75 8.75-8.75h490c2.3203 0 4.5469 0.92188 6.1875 2.5625s2.5625 3.8672 2.5625 6.1875zm-265.65 8.75h-51.277c0.52734 1.7109 0.52734 3.5391 0 5.25-1.2266 6.125-29.398 148.75-105 201.95-1.4219 1.0391-3.1406 1.5898-4.8984 1.5781-2.8633 0.074219-5.5664-1.3086-7.1758-3.6758-1.3555-1.8984-1.8984-4.2617-1.5039-6.5625 0.39453-2.3008 1.6914-4.3477 3.6055-5.6875 70-49 96.949-189.35 97.301-190.93 0.35156-1.5742 0-1.2266 0-1.9258h-122.5l-0.003906 432.6h11.727v-175c0-4.832 3.918-8.75 8.75-8.75 2.3203 0 4.5469 0.92188 6.1875 2.5625s2.5625 3.8672 2.5625 6.1875v175h20.824c-2.8008-39.727-7.875-72.977-7.875-73.324-0.77344-4.8359 2.5195-9.3789 7.3516-10.152 4.832-0.77344 9.375 2.5195 10.148 7.3516 0 0 5.4258 35 8.3984 76.125h12.777c-8.5742-81.551-37.449-216.3-37.801-216.3-0.61328-2.5898 0.035156-5.3164 1.75-7.3516 1.6328-2.1094 4.1562-3.3359 6.8242-3.3242 61.426-0.69922 118.65-139.3 139.83-205.62zm213.15 0h-122.5v1.9258c0 0.69922 28 141.93 97.301 190.93 1.9102 1.3398 3.207 3.3867 3.6016 5.6875 0.39453 2.3008-0.14453 4.6641-1.5039 6.5625-1.6094 2.3672-4.3125 3.75-7.1719 3.6758-1.7617 0.011719-3.4805-0.53906-4.9023-1.5781-75.074-52.5-103.25-195.82-105-201.95-0.52734-1.7109-0.52734-3.5391 0-5.25h-49.176c21.176 66.324 78.398 204.93 140 204.93 2.6719-0.015625 5.1914 1.2148 6.8281 3.3242 1.7109 2.0352 2.3633 4.7617 1.75 7.3516 0 1.3984-29.227 135.45-38.324 217h13.648c2.9766-41.125 8.2266-75.773 8.3984-76.125 0.77344-4.832 5.3164-8.125 10.152-7.3516 4.832 0.77344 8.1211 5.3164 7.3477 10.152 0 0-5.0742 33.602-7.875 73.324h18.727v-175c0-4.832 3.918-8.75 8.75-8.75 2.3203 0 4.5469 0.92188 6.1875 2.5625s2.5625 3.8672 2.5625 6.1875v175h11.727z"/>
</svg>
