<?xml version="1.0" encoding="UTF-8"?>
<svg width="700pt" height="700pt" version="1.1" viewBox="0 0 700 700" xmlns="http://www.w3.org/2000/svg" xmlns:xlink="http://www.w3.org/1999/xlink">
 <defs>
  <symbol id="m" overflow="visible">
   <path d="m29.312-1.75c-1.5117 0.78125-3.0898 1.3711-4.7344 1.7656-1.6367 0.40625-3.3398 0.60938-5.1094 0.60938-5.3125 0-9.5273-1.4844-12.641-4.4531-3.1055-2.9688-4.6562-7-4.6562-12.094s1.5508-9.125 4.6562-12.094c3.1133-2.9688 7.3281-4.4531 12.641-4.4531 1.7695 0 3.4727 0.19922 5.1094 0.59375 1.6445 0.39844 3.2227 0.99219 4.7344 1.7812v6.5938c-1.5312-1.0391-3.0391-1.8008-4.5156-2.2812-1.4805-0.48828-3.0391-0.73438-4.6719-0.73438-2.9375 0-5.2461 0.94531-6.9219 2.8281-1.6797 1.875-2.5156 4.4648-2.5156 7.7656 0 3.293 0.83594 5.8828 2.5156 7.7656 1.6758 1.875 3.9844 2.8125 6.9219 2.8125 1.6328 0 3.1914-0.23828 4.6719-0.71875 1.4766-0.48828 2.9844-1.2539 4.5156-2.2969z"/>
  </symbol>
  <symbol id="k" overflow="visible">
   <path d="m21.453-17.406c-0.67969-0.3125-1.3516-0.53906-2.0156-0.6875-0.65625-0.15625-1.3203-0.23438-1.9844-0.23438-1.9688 0-3.4844 0.63281-4.5469 1.8906-1.0547 1.2617-1.5781 3.0703-1.5781 5.4219v11.016h-7.6562v-23.922h7.6562v3.9219c0.97656-1.5625 2.1016-2.7031 3.375-3.4219 1.2812-0.71875 2.8125-1.0781 4.5938-1.0781 0.25 0 0.52344 0.011719 0.82812 0.03125 0.30078 0.023438 0.73438 0.070312 1.2969 0.14062z"/>
  </symbol>
  <symbol id="a" overflow="visible">
   <path d="m27.562-12.031v2.1875h-17.891c0.1875 1.793 0.83203 3.1367 1.9375 4.0312 1.1133 0.89844 2.6719 1.3438 4.6719 1.3438 1.6016 0 3.25-0.23438 4.9375-0.70312 1.6875-0.47656 3.4219-1.2031 5.2031-2.1719v5.8906c-1.8047 0.6875-3.6094 1.2031-5.4219 1.5469-1.8125 0.35156-3.6211 0.53125-5.4219 0.53125-4.3359 0-7.7031-1.0977-10.109-3.2969-2.3984-2.207-3.5938-5.2969-3.5938-9.2656 0-3.9062 1.1758-6.9727 3.5312-9.2031 2.3633-2.2383 5.6094-3.3594 9.7344-3.3594 3.7578 0 6.7695 1.1367 9.0312 3.4062 2.2578 2.2617 3.3906 5.2812 3.3906 9.0625zm-7.8594-2.5312c0-1.457-0.42969-2.6289-1.2812-3.5156-0.84375-0.89453-1.9492-1.3438-3.3125-1.3438-1.4922 0-2.6992 0.41797-3.625 1.25-0.91797 0.83594-1.4922 2.0391-1.7188 3.6094z"/>
  </symbol>
  <symbol id="j" overflow="visible">
   <path d="m14.391-10.766c-1.5938 0-2.793 0.27344-3.5938 0.8125-0.80469 0.54297-1.2031 1.3398-1.2031 2.3906 0 0.96875 0.32031 1.7305 0.96875 2.2812 0.64453 0.54297 1.5469 0.8125 2.7031 0.8125 1.4375 0 2.6445-0.51562 3.625-1.5469 0.98828-1.0312 1.4844-2.3203 1.4844-3.875v-0.875zm11.688-2.8906v13.656h-7.7031v-3.5469c-1.0312 1.4492-2.1875 2.5078-3.4688 3.1719s-2.8398 1-4.6719 1c-2.4805 0-4.4961-0.72266-6.0469-2.1719-1.543-1.4453-2.3125-3.3203-2.3125-5.625 0-2.8125 0.96094-4.8672 2.8906-6.1719 1.9375-1.3125 4.9688-1.9688 9.0938-1.9688h4.5156v-0.60938c0-1.207-0.48047-2.0938-1.4375-2.6562-0.94922-0.5625-2.4375-0.84375-4.4688-0.84375-1.6367 0-3.1562 0.16797-4.5625 0.5-1.4062 0.32422-2.7188 0.8125-3.9375 1.4688v-5.8281c1.6445-0.40625 3.2891-0.70703 4.9375-0.90625 1.6562-0.20703 3.3047-0.3125 4.9531-0.3125 4.3203 0 7.4375 0.85547 9.3438 2.5625 1.9141 1.6992 2.875 4.4609 2.875 8.2812z"/>
  </symbol>
  <symbol id="i" overflow="visible">
   <path d="m12.031-30.719v6.7969h7.875v5.4688h-7.875v10.141c0 1.1172 0.21875 1.8711 0.65625 2.2656 0.4375 0.38672 1.3125 0.57812 2.625 0.57812h3.9375v5.4688h-6.5625c-3.0234 0-5.1641-0.62891-6.4219-1.8906-1.2617-1.2578-1.8906-3.3984-1.8906-6.4219v-10.141h-3.7969v-5.4688h3.7969v-6.7969z"/>
  </symbol>
  <symbol id="h" overflow="visible">
   <path d="m19.953-20.422v-12.812h7.6875v33.234h-7.6875v-3.4531c-1.0547 1.4062-2.2148 2.4375-3.4844 3.0938-1.2734 0.65625-2.7422 0.98438-4.4062 0.98438-2.9492 0-5.3711-1.1719-7.2656-3.5156-1.8867-2.3438-2.8281-5.3594-2.8281-9.0469s0.94141-6.7031 2.8281-9.0469c1.8945-2.3438 4.3164-3.5156 7.2656-3.5156 1.6562 0 3.1172 0.33594 4.3906 1 1.2812 0.65625 2.4453 1.6836 3.5 3.0781zm-5.0469 15.484c1.6445 0 2.8945-0.59766 3.75-1.7969 0.86328-1.1953 1.2969-2.9297 1.2969-5.2031 0-2.2812-0.43359-4.0195-1.2969-5.2188-0.85547-1.1953-2.1055-1.7969-3.75-1.7969-1.625 0-2.8711 0.60156-3.7344 1.7969-0.85547 1.1992-1.2812 2.9375-1.2812 5.2188 0 2.2734 0.42578 4.0078 1.2812 5.2031 0.86328 1.1992 2.1094 1.7969 3.7344 1.7969z"/>
  </symbol>
  <symbol id="g" overflow="visible">
   <path d="m16.406-4.9375c1.6328 0 2.8828-0.59766 3.75-1.7969 0.86328-1.1953 1.2969-2.9297 1.2969-5.2031 0-2.2812-0.43359-4.0195-1.2969-5.2188-0.86719-1.1953-2.1172-1.7969-3.75-1.7969-1.6367 0-2.8906 0.60547-3.7656 1.8125-0.875 1.1992-1.3125 2.9336-1.3125 5.2031 0 2.2617 0.4375 3.9961 1.3125 5.2031 0.875 1.1992 2.1289 1.7969 3.7656 1.7969zm-5.0781-15.484c1.0508-1.3945 2.2188-2.4219 3.5-3.0781 1.2812-0.66406 2.7539-1 4.4219-1 2.9453 0 5.3672 1.1719 7.2656 3.5156 1.8945 2.3438 2.8438 5.3594 2.8438 9.0469s-0.94922 6.7031-2.8438 9.0469c-1.8984 2.3438-4.3203 3.5156-7.2656 3.5156-1.668 0-3.1406-0.33594-4.4219-1s-2.4492-1.6914-3.5-3.0781v3.4531h-7.6562v-33.234h7.6562z"/>
  </symbol>
  <symbol id="f" overflow="visible">
   <path d="m0.53125-23.922h7.6562l6.4219 16.234 5.4688-16.234h7.6562l-10.062 26.188c-1.0117 2.6641-2.1953 4.5234-3.5469 5.5781-1.3438 1.0625-3.1211 1.5938-5.3281 1.5938h-4.4219v-5.0156h2.3906c1.3008 0 2.2422-0.21094 2.8281-0.625 0.59375-0.40625 1.0547-1.1484 1.3906-2.2188l0.20312-0.65625z"/>
  </symbol>
  <symbol id="e" overflow="visible">
   <path d="m4.0156-31.891h9.1875l11.594 21.875v-21.875h7.7969v31.891h-9.1875l-11.594-21.875v21.875h-7.7969z"/>
  </symbol>
  <symbol id="b" overflow="visible">
   <path d="m3.6719-23.922h7.6562v23.922h-7.6562zm0-9.3125h7.6562v6.2344h-7.6562z"/>
  </symbol>
  <symbol id="l" overflow="visible">
   <path d="m27.734-14.562v14.562h-7.7031v-11.156c0-2.0625-0.046875-3.4844-0.14062-4.2656-0.085937-0.78125-0.24219-1.3594-0.46875-1.7344-0.30469-0.5-0.71094-0.88281-1.2188-1.1562-0.51172-0.28125-1.0938-0.42188-1.75-0.42188-1.5938 0-2.8516 0.61719-3.7656 1.8438-0.90625 1.2305-1.3594 2.9375-1.3594 5.125v11.766h-7.6562v-23.922h7.6562v3.5c1.1445-1.3945 2.3633-2.4219 3.6562-3.0781 1.3008-0.66406 2.7383-1 4.3125-1 2.7578 0 4.8516 0.85156 6.2812 2.5469 1.4375 1.6875 2.1562 4.1523 2.1562 7.3906z"/>
  </symbol>
  <symbol id="d" overflow="visible">
   <path d="m3.6719-23.922h7.6562v23.5c0 3.1953-0.77344 5.6406-2.3125 7.3281-1.543 1.6875-3.7734 2.5312-6.6875 2.5312h-3.7812v-5.0156h1.3281c1.4453 0 2.4414-0.32812 2.9844-0.98438 0.53906-0.65625 0.8125-1.9453 0.8125-3.8594zm0-9.3125h7.6562v6.2344h-7.6562z"/>
  </symbol>
  <symbol id="c" overflow="visible">
   <path d="m11.328-3.4531v12.547h-7.6562v-33.016h7.6562v3.5c1.0508-1.3945 2.2188-2.4219 3.5-3.0781 1.2812-0.66406 2.7539-1 4.4219-1 2.9453 0 5.3672 1.1719 7.2656 3.5156 1.8945 2.3438 2.8438 5.3594 2.8438 9.0469s-0.94922 6.7031-2.8438 9.0469c-1.8984 2.3438-4.3203 3.5156-7.2656 3.5156-1.668 0-3.1406-0.33594-4.4219-1s-2.4492-1.6914-3.5-3.0781zm5.0781-15.5c-1.6367 0-2.8906 0.60547-3.7656 1.8125-0.875 1.1992-1.3125 2.9336-1.3125 5.2031 0 2.2617 0.4375 3.9961 1.3125 5.2031 0.875 1.1992 2.1289 1.7969 3.7656 1.7969 1.6328 0 2.8828-0.59766 3.75-1.7969 0.86328-1.1953 1.2969-2.9297 1.2969-5.2031 0-2.2812-0.43359-4.0195-1.2969-5.2188-0.86719-1.1953-2.1172-1.7969-3.75-1.7969z"/>
  </symbol>
 </defs>
 <g>
  <path d="m560 148.75h-17.5v-96.25h-17.5v96.25h-17.5v-96.25h-17.5v96.25h-17.5v-96.25h-17.5v122.5c0 6.9609 2.7656 13.641 7.6875 18.562s11.602 7.6875 18.562 7.6875h8.75v306.25h52.5v-306.25h8.75c6.9609 0 13.641-2.7656 18.562-7.6875s7.6875-11.602 7.6875-18.562v-122.5h-17.5zm-52.5 341.25v-245h17.5v245zm17.5-262.5h-17.5v-26.25h17.5zm35-52.5c0 2.3203-0.92188 4.5469-2.5625 6.1875s-3.8672 2.5625-6.1875 2.5625h-70c-4.832 0-8.75-3.918-8.75-8.75v-8.75h87.5z"/>
  <path d="m376.25 175h-17.5c0 4.832-3.918 8.75-8.75 8.75s-8.75-3.918-8.75-8.75h-17.5c0 9.3789 5.0039 18.043 13.125 22.734 8.1211 4.6875 18.129 4.6875 26.25 0 8.1211-4.6914 13.125-13.355 13.125-22.734z"/>
  <path d="m358.75 140h17.5v17.5h-17.5z"/>
  <path d="m428.75 253.75h-52.5v-21.754c10.281-3.1484 19.258-9.5625 25.574-18.266 6.3125-8.7031 9.6211-19.23 9.4258-29.98v-8.75c9.3789 0 18.043-5.0039 22.734-13.125 4.6875-8.1211 4.6875-18.129 0-26.25-4.6914-8.1211-13.355-13.125-22.734-13.125v-17.5h26.25v-17.5h-26.25c0-31.402-24.613-52.5-61.25-52.5s-61.25 21.098-61.25 52.5h-8.75c-4.832 0-8.75-3.918-8.75-8.75v-8.75h-17.5v8.75c0 6.9609 2.7656 13.641 7.6875 18.562s11.602 7.6875 18.562 7.6875h8.75v17.5c-9.3789 0-18.043 5.0039-22.734 13.125-4.6875 8.1211-4.6875 18.129 0 26.25 4.6914 8.1211 13.355 13.125 22.734 13.125v8.75c-0.19531 10.75 3.1133 21.277 9.4258 29.98 6.3164 8.7031 15.293 15.117 25.574 18.266v21.754h-52.5c-12.809-0.21094-25.16 4.7656-34.246 13.797-16.551-6.668-35.027-6.7344-51.625-0.19141-5.293-6.9102-13.723-10.676-22.402-10.008l19.66-26.914-14.133-10.324-15.379 21.164-7.6914-25.086-16.809 5.125 7.6992 25.113-24.684-8.9414-5.9492 16.457 31.344 11.375c-5.3828 3.0898-9.4844 7.9922-11.578 13.832-2.0938 5.8398-2.043 12.234 0.14844 18.035l16.566 44.066h-28.422v166.25h323.75v-88.496c9.8945-1.9453 18.805-7.2773 25.191-15.082 6.3906-7.8008 9.8555-17.586 9.8086-27.672v-86.703c0-19.742-19.625-35.797-43.75-35.797zm26.25 35.797v51.703h-26.25v-12.371l-8.75-8.75v-48.879h8.75c14.227 0 26.25 8.3828 26.25 18.297zm-176.38 112.95c-33.617-0.53516-33.617-19.844-33.617-26.25v-17.5h26.25v17.5h18.918l52.5-17.5h70.961c1.9766 0 4.7148 0 6.3711 0.16797v8.582c0 2.3203-0.92188 4.5469-2.5625 6.1875s-3.8672 2.5625-6.1875 2.5625h-53.918zm-51.117-43.75v17.5c-0.054688 5.9844 1.0273 11.922 3.1953 17.5h-46.945v-35zm140-87.5c0.30469 4.7266-1.4414 9.3594-4.793 12.707-3.3477 3.3516-7.9805 5.0977-12.707 4.793h-17.5v-17.5zm-35 61.25v-26.25h17.5c9.3633 0.27344 18.426-3.3242 25.051-9.9492s10.223-15.688 9.9492-25.051h17.5v56.121l8.75 8.75v5.1289h-71.418l-50.977 16.992-0.10547-22.129 8.75-8.75v-56.113h17.5v61.25zm87.5-183.75c0 2.3203-0.92188 4.5469-2.5625 6.1875s-3.8672 2.5625-6.1875 2.5625v-17.5c2.3203 0 4.5469 0.92188 6.1875 2.5625s2.5625 3.8672 2.5625 6.1875zm-70-96.25c21.148 0 43.75 9.1953 43.75 35h-87.5c0-25.805 22.602-35 43.75-35zm8.75 52.5v8.75c0 2.3203-0.92188 4.5469-2.5625 6.1875s-3.8672 2.5625-6.1875 2.5625h-43.75v-17.5zm-78.75 43.75c0-4.832 3.918-8.75 8.75-8.75v17.5c-4.832 0-8.75-3.918-8.75-8.75zm26.25 35v-43.75h17.5v17.5h17.5v-17.5h8.75c6.9609 0 13.641-2.7656 18.562-7.6875s7.6875-11.602 7.6875-18.562v-8.75h17.5v78.75c0 25.805-22.602 35-43.75 35s-43.75-9.1953-43.75-35zm43.75 52.5c3.0117 0 5.9062-0.19141 8.75-0.47266v17.973h-17.5v-17.973c2.8438 0.28125 5.7383 0.47266 8.75 0.47266zm-78.75 35h8.75v48.879l-8.75 8.75v12.371h-26.25v-51.703c0-9.9141 12.023-18.297 26.25-18.297zm-42.938 11.707c-0.51953 2.1602-0.78906 4.3711-0.8125 6.5898v51.703h-21.973l-13.727-57.609c11.691-4.6133 24.656-4.8555 36.512-0.68359zm-74.199 40.32 13.562-4.0938-5.0586-16.758-14.664 4.4258-5.9492-15.855v0.003906c-0.85156-2.2617-0.72656-4.7773 0.33984-6.9414 1.0664-2.168 2.9844-3.8008 5.2969-4.5039l14.578-4.4531h-0.003906c2.3125-0.71094 4.8125-0.43359 6.9102 0.76953 2.0977 1.1992 3.6094 3.2109 4.168 5.5625l14.246 59.816h-26.672zm12.137 35.473v35h-35v-35zm-35 131.25v-78.75h114.08c5.2656 3.2891 11.082 5.6016 17.168 6.8242v71.926zm253.75-17.5v17.5h-70v-17.5h-17.5v17.5h-17.5v-28.168l35-8.75v-15.582h70v15.582l35 8.75v28.168h-17.5v-17.5zm17.5-33.082v-19.418h-105v19.418l-17.5 4.375v-23.793h1.418l72.625-24.211 58.984 21.297c2.2578 0.84375 4.5859 1.5 6.957 1.9609v24.746zm41.125-41.527c-7.1602 4.9766-16.344 6.0312-24.449 2.7969l-19.23-6.9375h11.305c6.9609 0 13.641-2.7656 18.562-7.6875s7.6875-11.602 7.6875-18.562v-8.75h17.5v17.5c0.0625 8.6602-4.2031 16.781-11.375 21.641z"/>
  <path d="m367.5 315h17.5v17.5h-17.5z"/>
 </g>
</svg>
