<?xml version="1.0" encoding="UTF-8"?>
<svg width="700pt" height="700pt" version="1.1" viewBox="0 0 700 700" xmlns="http://www.w3.org/2000/svg" xmlns:xlink="http://www.w3.org/1999/xlink">
 <defs>
  <symbol id="t" overflow="visible">
   <path d="m3.6562-0.21875c-0.1875 0.09375-0.38672 0.16797-0.59375 0.21875-0.19922 0.050781-0.40625 0.078125-0.625 0.078125-0.66797 0-1.1992-0.17969-1.5938-0.54688-0.38672-0.375-0.57812-0.87891-0.57812-1.5156 0-0.64453 0.19141-1.1484 0.57812-1.5156 0.39453-0.375 0.92578-0.5625 1.5938-0.5625 0.21875 0 0.42578 0.027344 0.625 0.078125 0.20703 0.054687 0.40625 0.125 0.59375 0.21875v0.82812c-0.1875-0.125-0.375-0.21875-0.5625-0.28125-0.17969-0.0625-0.37109-0.09375-0.57812-0.09375-0.36719 0-0.65625 0.12109-0.875 0.35938-0.21094 0.23047-0.3125 0.55469-0.3125 0.96875 0 0.40625 0.10156 0.73047 0.3125 0.96875 0.21875 0.23047 0.50781 0.34375 0.875 0.34375 0.20703 0 0.39844-0.023437 0.57812-0.078125 0.1875-0.0625 0.375-0.16016 0.5625-0.29688z"/>
  </symbol>
  <symbol id="d" overflow="visible">
   <path d="m2.6875-2.1719c-0.085938-0.039063-0.16797-0.070313-0.25-0.09375-0.085938-0.019531-0.16797-0.03125-0.25-0.03125-0.25 0-0.44531 0.085937-0.57812 0.25-0.125 0.15625-0.1875 0.38281-0.1875 0.67188v1.375h-0.96875v-2.9844h0.96875v0.48438c0.11328-0.19531 0.25-0.33594 0.40625-0.42188 0.16406-0.09375 0.35938-0.14062 0.57812-0.14062h0.10938c0.039063 0 0.09375 0.007812 0.15625 0.015625z"/>
  </symbol>
  <symbol id="a" overflow="visible">
   <path d="m3.4375-1.5v0.26562h-2.2344c0.03125 0.23047 0.11328 0.40234 0.25 0.51562 0.13281 0.10547 0.32812 0.15625 0.57812 0.15625 0.20703 0 0.41406-0.023438 0.625-0.078125 0.20703-0.0625 0.42188-0.15625 0.64062-0.28125v0.73438c-0.21875 0.09375-0.44531 0.16406-0.67188 0.20312-0.23047 0.039062-0.45312 0.0625-0.67188 0.0625-0.54297 0-0.96484-0.13281-1.2656-0.40625-0.30469-0.28125-0.45312-0.67188-0.45312-1.1719 0-0.47656 0.14453-0.85938 0.4375-1.1406 0.30078-0.28125 0.70703-0.42188 1.2188-0.42188 0.46875 0 0.84375 0.14062 1.125 0.42188s0.42188 0.66406 0.42188 1.1406zm-0.96875-0.32812c0-0.17578-0.058594-0.31641-0.17188-0.42188-0.10547-0.11328-0.24219-0.17188-0.40625-0.17188-0.1875 0-0.33984 0.054687-0.45312 0.15625-0.11719 0.10547-0.1875 0.25-0.21875 0.4375z"/>
  </symbol>
  <symbol id="k" overflow="visible">
   <path d="m1.7969-1.3438c-0.19922 0-0.35156 0.039062-0.45312 0.10938-0.09375 0.0625-0.14062 0.16406-0.14062 0.29688 0 0.11719 0.035156 0.21094 0.10938 0.28125 0.082031 0.0625 0.19531 0.09375 0.34375 0.09375 0.17578 0 0.32812-0.0625 0.45312-0.1875s0.1875-0.28516 0.1875-0.48438v-0.10938zm1.4688-0.35938v1.7031h-0.96875v-0.4375c-0.125 0.17969-0.27344 0.30859-0.4375 0.39062-0.15625 0.082031-0.35156 0.125-0.57812 0.125-0.3125 0-0.57031-0.085938-0.76562-0.26562-0.1875-0.1875-0.28125-0.42188-0.28125-0.70312 0-0.35156 0.11719-0.61328 0.35938-0.78125 0.23828-0.16406 0.61719-0.25 1.1406-0.25h0.5625v-0.0625c0-0.15625-0.0625-0.26562-0.1875-0.32812-0.11719-0.070312-0.29688-0.10938-0.54688-0.10938-0.21094 0-0.40234 0.023437-0.57812 0.0625-0.17969 0.042969-0.33984 0.10156-0.48438 0.17188v-0.71875c0.19531-0.050781 0.39844-0.085938 0.60938-0.10938 0.20703-0.03125 0.41406-0.046875 0.625-0.046875 0.53906 0 0.92969 0.10938 1.1719 0.32812 0.23828 0.21094 0.35938 0.55469 0.35938 1.0312z"/>
  </symbol>
  <symbol id="c" overflow="visible">
   <path d="m1.5-3.8438v0.85938h0.98438v0.67188h-0.98438v1.2812c0 0.13672 0.023438 0.23047 0.078125 0.28125 0.0625 0.042969 0.17578 0.0625 0.34375 0.0625h0.48438v0.6875h-0.8125c-0.38672 0-0.65625-0.078125-0.8125-0.23438s-0.23438-0.42188-0.23438-0.79688v-1.2812h-0.46875v-0.67188h0.46875v-0.85938z"/>
  </symbol>
  <symbol id="j" overflow="visible">
   <path d="m2.5-2.5469v-1.6094h0.95312v4.1562h-0.95312v-0.4375c-0.13672 0.17969-0.28125 0.30859-0.4375 0.39062-0.15625 0.082031-0.33984 0.125-0.54688 0.125-0.375 0-0.68359-0.14453-0.92188-0.4375-0.23047-0.28906-0.34375-0.67188-0.34375-1.1406 0-0.45703 0.11328-0.83203 0.34375-1.125 0.23828-0.28906 0.54688-0.4375 0.92188-0.4375 0.19531 0 0.375 0.042969 0.53125 0.125 0.16406 0.085938 0.31641 0.21484 0.45312 0.39062zm-0.64062 1.9375c0.20703 0 0.36328-0.070313 0.46875-0.21875 0.11328-0.15625 0.17188-0.37891 0.17188-0.67188 0-0.28125-0.058594-0.49219-0.17188-0.64062-0.10547-0.15625-0.26172-0.23438-0.46875-0.23438-0.19922 0-0.35547 0.078125-0.46875 0.23438-0.10547 0.14844-0.15625 0.35938-0.15625 0.64062 0 0.29297 0.050781 0.51562 0.15625 0.67188 0.11328 0.14844 0.26953 0.21875 0.46875 0.21875z"/>
  </symbol>
  <symbol id="i" overflow="visible">
   <path d="m2.0469-0.60938c0.20703 0 0.36328-0.070313 0.46875-0.21875 0.11328-0.15625 0.17188-0.37891 0.17188-0.67188 0-0.28125-0.058594-0.49219-0.17188-0.64062-0.10547-0.15625-0.26172-0.23438-0.46875-0.23438-0.19922 0-0.35547 0.078125-0.46875 0.23438-0.10547 0.14844-0.15625 0.35938-0.15625 0.64062 0 0.29297 0.050781 0.51562 0.15625 0.67188 0.11328 0.14844 0.26953 0.21875 0.46875 0.21875zm-0.625-1.9375c0.125-0.17578 0.26562-0.30469 0.42188-0.39062 0.16406-0.082031 0.35156-0.125 0.5625-0.125 0.36328 0 0.66406 0.14844 0.90625 0.4375 0.23828 0.29297 0.35938 0.66797 0.35938 1.125 0 0.46875-0.12109 0.85156-0.35938 1.1406-0.24219 0.29297-0.54297 0.4375-0.90625 0.4375-0.21094 0-0.39844-0.042969-0.5625-0.125-0.15625-0.082031-0.29688-0.21094-0.42188-0.39062v0.4375h-0.96875v-4.1562h0.96875z"/>
  </symbol>
  <symbol id="h" overflow="visible">
   <path d="m0.0625-2.9844h0.95312l0.8125 2.0156 0.6875-2.0156h0.95312l-1.2656 3.2656c-0.125 0.33203-0.27344 0.56641-0.4375 0.70312-0.16797 0.13281-0.39062 0.20312-0.67188 0.20312h-0.54688v-0.64062h0.29688c0.16406 0 0.28516-0.027344 0.35938-0.078125 0.070313-0.054688 0.12891-0.14062 0.17188-0.26562l0.03125-0.09375z"/>
  </symbol>
  <symbol id="e" overflow="visible">
   <path d="m3.2344-2.5c0.11328-0.17578 0.25391-0.3125 0.42188-0.40625 0.16406-0.10156 0.35156-0.15625 0.5625-0.15625 0.33203 0 0.58594 0.10938 0.76562 0.32812 0.1875 0.21094 0.28125 0.51172 0.28125 0.90625v1.8281h-0.96875v-1.5625c0.007813-0.019531 0.015625-0.039062 0.015625-0.0625v-0.10938c0-0.21875-0.03125-0.375-0.09375-0.46875s-0.16406-0.14062-0.29688-0.14062c-0.1875 0-0.33594 0.078125-0.4375 0.23438-0.09375 0.14844-0.14062 0.35938-0.14062 0.64062v1.4688h-0.96875v-1.5625c0-0.33203-0.03125-0.54688-0.09375-0.64062-0.054688-0.09375-0.15234-0.14062-0.29688-0.14062-0.17969 0-0.32031 0.078125-0.42188 0.23438-0.09375 0.14844-0.14062 0.35938-0.14062 0.64062v1.4688h-0.96875v-2.9844h0.96875v0.4375c0.11328-0.17578 0.24219-0.30469 0.39062-0.39062 0.15625-0.082031 0.32812-0.125 0.51562-0.125 0.20703 0 0.39062 0.054688 0.54688 0.15625 0.15625 0.09375 0.27344 0.23047 0.35938 0.40625z"/>
  </symbol>
  <symbol id="b" overflow="visible">
   <path d="m1.875-2.375c-0.21094 0-0.37109 0.078125-0.48438 0.23438-0.10547 0.14844-0.15625 0.35938-0.15625 0.64062 0 0.29297 0.050781 0.51562 0.15625 0.67188 0.11328 0.14844 0.27344 0.21875 0.48438 0.21875 0.20703 0 0.36719-0.070313 0.48438-0.21875 0.11328-0.15625 0.17188-0.37891 0.17188-0.67188 0-0.28125-0.058594-0.49219-0.17188-0.64062-0.11719-0.15625-0.27734-0.23438-0.48438-0.23438zm0-0.6875c0.51953 0 0.92188 0.14062 1.2031 0.42188 0.28906 0.27344 0.4375 0.65234 0.4375 1.1406 0 0.5-0.14844 0.89062-0.4375 1.1719-0.28125 0.27344-0.68359 0.40625-1.2031 0.40625-0.51172 0-0.91406-0.13281-1.2031-0.40625-0.29297-0.28125-0.4375-0.67188-0.4375-1.1719 0-0.48828 0.14453-0.86719 0.4375-1.1406 0.28906-0.28125 0.69141-0.42188 1.2031-0.42188z"/>
  </symbol>
  <symbol id="g" overflow="visible">
   <path d="m3.4688-1.8281v1.8281h-0.96875v-1.3906c0-0.25781-0.007812-0.4375-0.015625-0.53125-0.011719-0.10156-0.03125-0.17578-0.0625-0.21875-0.03125-0.0625-0.085937-0.10938-0.15625-0.14062-0.0625-0.039062-0.13281-0.0625-0.20312-0.0625-0.21094 0-0.37109 0.078125-0.48438 0.23438-0.10547 0.15625-0.15625 0.37109-0.15625 0.64062v1.4688h-0.96875v-2.9844h0.96875v0.4375c0.13281-0.17578 0.28516-0.30469 0.45312-0.39062 0.16406-0.082031 0.34375-0.125 0.53125-0.125 0.34375 0 0.60156 0.10938 0.78125 0.32812 0.1875 0.21094 0.28125 0.51172 0.28125 0.90625z"/>
  </symbol>
  <symbol id="f" overflow="visible">
   <path d="m0.45312-4.1562h0.96875v2.2656l1.0938-1.0938h1.1094l-1.4531 1.3594 1.5625 1.625h-1.1562l-1.1562-1.25v1.25h-0.96875z"/>
  </symbol>
  <symbol id="s" overflow="visible">
   <path d="m0.45312-2.9844h0.96875v2.9844h-0.96875zm0-1.1719h0.96875v0.78125h-0.96875z"/>
  </symbol>
  <symbol id="r" overflow="visible">
   <path d="m2.4219-4.1562v0.625h-0.51562c-0.13672 0-0.23438 0.027344-0.29688 0.078125-0.054687 0.054687-0.078125 0.13672-0.078125 0.25v0.21875h0.82812v0.67188h-0.82812v2.3125h-0.95312v-2.3125h-0.46875v-0.67188h0.46875v-0.21875c0-0.32031 0.085937-0.5625 0.26562-0.71875 0.1875-0.15625 0.47266-0.23438 0.85938-0.23438z"/>
  </symbol>
  <symbol id="q" overflow="visible">
   <path d="m3.4688-1.8281v1.8281h-0.96875v-1.3906c0-0.25781-0.007812-0.4375-0.015625-0.53125-0.011719-0.10156-0.03125-0.17578-0.0625-0.21875-0.03125-0.0625-0.085937-0.10938-0.15625-0.14062-0.0625-0.039062-0.13281-0.0625-0.20312-0.0625-0.21094 0-0.37109 0.078125-0.48438 0.23438-0.10547 0.15625-0.15625 0.37109-0.15625 0.64062v1.4688h-0.96875v-4.1562h0.96875v1.6094c0.13281-0.17578 0.28516-0.30469 0.45312-0.39062 0.16406-0.082031 0.34375-0.125 0.53125-0.125 0.34375 0 0.60156 0.10938 0.78125 0.32812 0.1875 0.21094 0.28125 0.51172 0.28125 0.90625z"/>
  </symbol>
  <symbol id="p" overflow="visible">
   <path d="m0.5-3.9844h1.1562l1.4375 2.7344v-2.7344h0.98438v3.9844h-1.1562l-1.4375-2.7344v2.7344h-0.98438z"/>
  </symbol>
  <symbol id="o" overflow="visible">
   <path d="m0.42188-1.1719v-1.8125h0.96875v0.29688 0.60938 0.48438c0 0.24219 0.003906 0.41797 0.015625 0.53125 0.007812 0.10547 0.03125 0.17969 0.0625 0.21875 0.039062 0.0625 0.09375 0.11719 0.15625 0.15625 0.0625 0.03125 0.13281 0.046875 0.21875 0.046875 0.19531 0 0.35156-0.078125 0.46875-0.23438 0.11328-0.15625 0.17188-0.36719 0.17188-0.64062v-1.4688h0.95312v2.9844h-0.95312v-0.4375c-0.14844 0.17969-0.30469 0.30859-0.46875 0.39062-0.15625 0.082031-0.33594 0.125-0.53125 0.125-0.34375 0-0.60938-0.10156-0.79688-0.3125-0.17969-0.21875-0.26562-0.53125-0.26562-0.9375z"/>
  </symbol>
  <symbol id="n" overflow="visible">
   <path d="m0.5-3.9844h1.7031c0.50781 0 0.89844 0.11719 1.1719 0.34375 0.26953 0.21875 0.40625 0.53906 0.40625 0.95312 0 0.41797-0.13672 0.74219-0.40625 0.96875-0.27344 0.21875-0.66406 0.32812-1.1719 0.32812h-0.67188v1.3906h-1.0312zm1.0312 0.75v1.1094h0.5625c0.19531 0 0.34766-0.046875 0.45312-0.14062 0.11328-0.10156 0.17188-0.24219 0.17188-0.42188 0-0.17578-0.058594-0.3125-0.17188-0.40625-0.10547-0.09375-0.25781-0.14062-0.45312-0.14062z"/>
  </symbol>
  <symbol id="m" overflow="visible">
   <path d="m0.45312-2.9844h0.96875v2.9375c0 0.39453-0.10156 0.69531-0.29688 0.90625-0.1875 0.21875-0.46484 0.32812-0.82812 0.32812h-0.48438v-0.64062h0.17188c0.17578 0 0.29688-0.042969 0.35938-0.125 0.070312-0.074219 0.10938-0.23047 0.10938-0.46875zm0-1.1719h0.96875v0.78125h-0.96875z"/>
  </symbol>
  <symbol id="l" overflow="visible">
   <path d="m2.875-2.8906v0.76562c-0.125-0.082031-0.25781-0.14453-0.39062-0.1875-0.13672-0.039062-0.27344-0.0625-0.40625-0.0625-0.27344 0-0.48047 0.078125-0.625 0.23438-0.14844 0.15625-0.21875 0.37109-0.21875 0.64062 0 0.28125 0.070313 0.5 0.21875 0.65625 0.14453 0.15625 0.35156 0.23438 0.625 0.23438 0.14453 0 0.28516-0.019531 0.42188-0.0625 0.13281-0.039063 0.25781-0.10938 0.375-0.20312v0.78125c-0.14844 0.0625-0.29688 0.10156-0.45312 0.125-0.15625 0.03125-0.3125 0.046875-0.46875 0.046875-0.54297 0-0.96484-0.13281-1.2656-0.40625-0.30469-0.28125-0.45312-0.67188-0.45312-1.1719 0-0.48828 0.14844-0.86719 0.45312-1.1406 0.30078-0.28125 0.72266-0.42188 1.2656-0.42188 0.15625 0 0.3125 0.015625 0.46875 0.046875 0.15625 0.023437 0.30469 0.0625 0.45312 0.125z"/>
  </symbol>
 </defs>
 <g>
  <path d="m571.79 428.86c-6.4609-0.46094-12.941 0.52734-18.973 2.8945-24.578 9.6172-48.926 14.496-72.371 14.496h-7.9453v-35c0-2.3203-0.92188-4.5469-2.5625-6.1875s-3.8672-2.5625-6.1875-2.5625h-71.504c-1.8164-5.1133-5.168-9.5391-9.5977-12.676-4.4297-3.1328-9.7227-4.8164-15.148-4.8242-0.49609 0-0.98828 0.015625-1.4844 0.042969-1.9297-5.582-5.6992-10.344-10.688-13.504-4.9922-3.1602-10.906-4.5273-16.777-3.8867v-0.15234h-154.8c-2.0508 0-4.0977 0.23828-6.0938 0.71094-4.9805-5.9922-12.367-9.4609-20.156-9.4609-7.793 0-15.18 3.4688-20.156 9.4609-7.8125-1.8555-16.047-0.035157-22.352 4.9414-6.3047 4.9805-9.9844 12.566-9.9922 20.598 0 0.49609 0.015625 0.98828 0.042969 1.4844-6.043 2.1133-11.098 6.3672-14.219 11.953-3.1211 5.5898-4.0859 12.125-2.7188 18.379-0.39844 1.0117-0.60547 2.0938-0.60547 3.1836 0.027344 24.371 5.7031 48.406 16.574 70.219l1.8477 3.6953h0.003906c1.4805 2.9648 4.5117 4.8359 7.8242 4.8359h87.5c3.3125 0 6.3438-1.8711 7.8242-4.8359l1.8477-3.6953h0.003906c10.871-21.812 16.547-45.848 16.574-70.219 0-1.0898-0.20703-2.1719-0.60547-3.1836 1.3672-6.2539 0.40234-12.789-2.7188-18.379-3.1211-5.5859-8.1758-9.8398-14.219-11.953 0.027344-0.49219 0.042969-0.98828 0.042969-1.4844 0-2.9805-0.50781-5.9414-1.5039-8.75h108.01l-0.015625 0.042969c-0.5-0.027344-0.99219-0.042969-1.4883-0.042969-6.8594 0.007812-13.445 2.6992-18.348 7.4961-4.9023 4.8008-7.7344 11.324-7.8867 18.184-13.184 6.4727-24.277 16.52-32.016 29-7.7422 12.48-11.812 26.887-11.75 41.57v52.5c0 2.3203 0.92188 4.5469 2.5625 6.1875s3.8672 2.5625 6.1875 2.5625h210c2.3203 0 4.5469-0.92188 6.1875-2.5625s2.5625-3.8672 2.5625-6.1875v-35h6.125c26.59 0 51.152 4.7188 73.008 14.023 9.9453 4.2188 21.105 4.6133 31.324 1.1016 10.219-3.5078 18.777-10.676 24.035-20.117l-15.289-8.5117c-3.1172 5.5938-8.168 9.8594-14.203 11.996v-33.492h-17.5v33.5c-0.50781-0.17969-1.0117-0.36719-1.5078-0.58203-5.1992-2.2148-10.527-4.1836-15.992-5.9141v-18.254h-17.5v13.57c-15.242-3.2617-30.789-4.875-46.375-4.8203h-6.125v-17.5h7.9453c25.633 0 52.129-5.2852 78.75-15.707 7.7734-3.0312 16.52-2.1914 23.57 2.2656 7.0508 4.4531 11.57 11.992 12.168 20.312 0.13281 1.8789 0.066406 3.7695-0.19922 5.6406l17.328 2.4727c0.4375-3.0859 0.55078-6.2109 0.33203-9.3242-0.76172-10.512-5.2891-20.395-12.746-27.844-7.457-7.4453-17.348-11.957-27.859-12.707zm-375.95 61.141h-76.672c-8-16.43-12.719-34.262-13.887-52.5h104.45c-1.168 18.238-5.8867 36.07-13.887 52.5zm-3.3359-96.25c0 1.5742-0.43359 3.1211-1.25 4.4688-1.7344 2.9023-1.6367 6.543 0.24219 9.3516 1.8789 2.8125 5.2109 4.2852 8.5547 3.7891 0.39844-0.066406 0.80078-0.10156 1.2031-0.10938 4.832 0.003906 8.7461 3.918 8.75 8.75h-105c0.003906-4.832 3.918-8.7461 8.75-8.75 0.40234 0.007812 0.80469 0.042969 1.2031 0.10938 3.3398 0.49219 6.668-0.98438 8.5469-3.7891 1.8789-2.8086 1.9727-6.4453 0.24609-9.3477-0.81641-1.3477-1.2461-2.8945-1.2461-4.4727 0.003906-4.832 3.918-8.7461 8.75-8.75 1.7305-0.003906 3.4219 0.50781 4.8594 1.4727 2.25 1.5156 5.0781 1.9023 7.6562 1.043 2.5742-0.85938 4.6055-2.8672 5.4961-5.4297 0.17578-0.50391 0.40234-0.98828 0.67188-1.4492 1.5547-2.7148 4.4453-4.3867 7.5742-4.3867 3.1289 0.003906 6.0156 1.6797 7.5664 4.3984 0.26562 0.45703 0.48828 0.9375 0.66406 1.4375 0.89062 2.5625 2.9219 4.5703 5.4961 5.4297 2.5781 0.85938 5.4062 0.47266 7.6562-1.043 1.4375-0.96484 3.1289-1.4766 4.8594-1.4727 4.832 0.003906 8.7461 3.918 8.75 8.75zm227.5 50.461c-2.5586-2.3008-5.5469-4.0781-8.793-5.2266 0.027344-0.49219 0.042969-0.98828 0.042969-1.4844 0-6.4648-2.3945-12.699-6.7227-17.5h15.473zm-105-41.711c1.5742 0 3.1211 0.43359 4.4688 1.25 2.8984 1.7266 6.5312 1.6328 9.3398-0.24219 2.8047-1.875 4.2852-5.1953 3.7969-8.5391-0.066407-0.40234-0.10156-0.80859-0.10547-1.2188 0-4.832 3.918-8.75 8.75-8.75s8.75 3.918 8.75 8.75c-0.007812 0.41016-0.042969 0.81641-0.10938 1.2188-0.48828 3.3438 0.99219 6.6641 3.7969 8.5391 2.8086 1.875 6.4414 1.9688 9.3398 0.24219 1.3477-0.81641 2.8945-1.25 4.4727-1.25 4.832 0.003906 8.7461 3.918 8.75 8.75 0 1.5742-0.43359 3.1211-1.25 4.4688-1.7344 2.9023-1.6367 6.543 0.24219 9.3516 1.8789 2.8125 5.2109 4.2852 8.5547 3.7891 0.39844-0.066406 0.80078-0.10156 1.2031-0.10938 4.832 0.003906 8.7461 3.918 8.75 8.75 0.003906 1.5312-0.40625 3.0352-1.1797 4.3555-1.5703 2.707-1.5781 6.0469-0.015624 8.7617 1.5625 2.7109 4.4531 4.3828 7.582 4.3828h-76.387c-18.07-0.015625-35.586 6.2148-49.59 17.633-0.14062-1.4375-0.63281-2.8203-1.4375-4.0234-0.96484-1.4375-1.4766-3.1289-1.4727-4.8594 0.003906-4.832 3.918-8.7461 8.75-8.75h2.3633c3.1289 0 6.0195-1.6719 7.582-4.3828 1.5625-2.7148 1.5547-6.0547-0.015624-8.7617-0.77344-1.3203-1.1836-2.8242-1.1797-4.3555 0.003906-4.832 3.918-8.7461 8.75-8.75 0.40234 0.007812 0.80469 0.042969 1.2031 0.10938 3.3438 0.49219 6.6719-0.98438 8.5508-3.793 1.875-2.8125 1.9688-6.4492 0.23438-9.3516-0.39453-0.66016-0.69922-1.3672-0.90625-2.1094-0.22266-0.76562-0.33594-1.5586-0.33203-2.3555 0.003906-4.832 3.918-8.7461 8.75-8.75zm140 122.5h-191.88c2.125-14.57 9.418-27.891 20.547-37.527 11.133-9.6406 25.359-14.953 40.082-14.973h105c2.3203 0 4.5469-0.92188 6.1875-2.5625s2.5625-3.8672 2.5625-6.1875v-43.75h17.5z"/>
  <path d="m593.45 205.37c-2.3203-1.8594-4.7344-3.5938-7.1953-5.2266v-68.891h-17.5v59.688c-10.926-4.4102-22.555-6.8281-34.332-7.1445-0.21875-0.015625-353.56-0.042969-355.38-0.042969-14.23 0-31.637 7.5469-47.789 20.301v-55.301h-17.5v71.824c-25.984 29.043-33.953 61.586-18.266 77.512 4.6172 4.6836 10.883 7.4297 18.266 8.0352v52.629h17.5v-10.258c0.078125 0.027343 0.14844 0.0625 0.22656 0.085937 2.7422 0.94531 5.6211 1.4258 8.5234 1.4219h420c2.9805 0 5.9414-0.50781 8.75-1.5039v10.254c-0.003906 4.832-3.918 8.7461-8.75 8.75h-164.05v17.5h164.05c6.9609-0.007812 13.633-2.7773 18.551-7.6992 4.9219-4.918 7.6914-11.59 7.6992-18.551v-43.75h-17.5v8.75c-0.003906 4.832-3.918 8.7461-8.75 8.75h-420c-0.96875 0.003906-1.9297-0.15625-2.8438-0.47266-3.5352-1.2109-5.9102-4.5391-5.9062-8.2773v-17.5h385v-17.5h-355.23c5.8047-4.2695 11.262-8.9961 16.316-14.137 25.094-25.469 36.105-54.688 29.055-73.363h44.648l-7.4453 14.887h-0.003906c-2.7852 5.5078-3.2617 11.898-1.3242 17.758s6.1328 10.703 11.652 13.465c5.5195 2.7578 11.91 3.2031 17.762 1.2383 5.8477-1.9648 10.676-6.1797 13.41-11.711l17.816-35.637h26.879l-7.4453 14.887c-2.7852 5.5078-3.2617 11.898-1.3242 17.758s6.1328 10.703 11.652 13.465c5.5195 2.7578 11.91 3.2031 17.762 1.2383 5.8477-1.9648 10.676-6.1797 13.41-11.711l17.816-35.637h26.879l-7.4453 14.887c-2.7852 5.5078-3.2617 11.898-1.3242 17.758s6.1328 10.703 11.652 13.465c5.5195 2.7578 11.91 3.2031 17.762 1.2383 5.8477-1.9648 10.676-6.1797 13.41-11.711l17.816-35.637h26.879l-7.4453 14.887c-2.7852 5.5078-3.2617 11.898-1.3242 17.758s6.1328 10.703 11.652 13.465c5.5195 2.7578 11.91 3.2031 17.762 1.2383 5.8477-1.9648 10.676-6.1797 13.41-11.711l17.66-35.309c12.027 1.0703 23.664 4.8047 34.066 10.938 7.5664 4.4688 14.766 10.012 18.66 18.086 4.3398 9.1094 4.3398 19.691 0 28.801-5.9023 12.262-20.699 20.453-33.031 24.781-8.6328 3.0273-17.715 4.5703-26.859 4.5664v17.5c17.621 0.007812 34.926-4.7148 50.102-13.672 10.34-6.0977 20.27-14.609 25.551-25.578 3.293-6.8672 5.0039-14.383 5.0117-22 0-14.535-7.5078-30.387-19.055-39.633zm-428.58 56.965c-15.809 16.047-34.637 26.418-47.957 26.418-4.0156 0-7.0312-0.98438-8.9531-2.9414-7.1289-7.2383-1.7812-32.855 23.129-58.141 15.805-16.047 34.633-26.418 47.953-26.418 4.0156 0 7.0312 0.98828 8.9531 2.9414 7.1328 7.2422 1.7852 32.859-23.125 58.141zm104.57-33.27c-1.4102 2.8164-4.832 3.957-7.6484 2.5469-2.8125-1.4062-3.9531-4.8281-2.5469-7.6445l11.359-22.715h12.742zm78.75 0c-1.4102 2.8164-4.832 3.957-7.6484 2.5469-2.8125-1.4062-3.9531-4.8281-2.5469-7.6445l11.359-22.715h12.742zm78.75 0c-1.4102 2.8164-4.832 3.957-7.6484 2.5469-2.8125-1.4062-3.9531-4.8281-2.5469-7.6445l11.359-22.715h12.742zm78.75 0c-1.4102 2.8164-4.832 3.957-7.6484 2.5469-2.8125-1.4062-3.9531-4.8281-2.5469-7.6445l11.359-22.715h12.742z"/>
  <path d="m157.5 218.75h17.5v17.5h-17.5z"/>
  <path d="m122.5 245h17.5v17.5h-17.5z"/>
  <path d="m516.25 43.75h17.5v17.5h-17.5z"/>
  <path d="m560 70h17.5v17.5h-17.5z"/>
  <path d="m370.04 140.39c3.2266 9.9883 10.492 18.168 20.031 22.551 4.9805 2.2188 10.375 3.3516 15.824 3.3281l75.355-0.019531c12.406-0.003906 24.41-4.3984 33.883-12.406 9.4766-8.0078 15.809-19.113 17.879-31.344h26.988c13.922-0.003906 27.273-5.5352 37.121-15.379 9.8438-9.8477 15.375-23.199 15.379-37.121-0.015625-13.918-5.5508-27.262-15.395-37.105s-23.188-15.379-37.105-15.395h-36.477c-32.938-0.007812-63.711 16.398-82.062 43.75h-65.211v17.5h10.906c-4.7344 4.8047-8.75 10.27-11.922 16.223-8.0273 15.059-9.9219 31.609-5.1953 45.418zm135.95-1.8984c-6.5508 6.582-15.457 10.273-24.742 10.258h-37.156c4.7344-4.8047 8.75-10.27 11.922-16.223 8.0273-15.055 9.918-31.609 5.1953-45.418-1-2.9258-2.3242-5.7305-3.9531-8.3594h23.992c9.2812 0 18.184 3.6836 24.75 10.25 6.5625 6.5625 10.25 15.465 10.25 24.746 0 9.2852-3.6914 18.188-10.258 24.746zm-22.555-92.934c12.23-6.9141 26.039-10.551 40.086-10.559h36.477c10.805 0 21.004 4.9922 27.637 13.523 6.6289 8.5352 8.9453 19.648 6.2773 30.121-2.668 10.469-10.023 19.121-19.93 23.441-4.4062 1.9336-9.1719 2.9258-13.984 2.9141h-26.992c-2.082-12.227-8.418-23.32-17.891-31.328-9.4688-8.0039-21.465-12.406-33.867-12.422h-17.566c5.7305-6.2266 12.395-11.52 19.754-15.691zm-92.762 57.648c7.9062-14.828 22.297-24.449 34.738-24.449h0.003907c2.957-0.027343 5.8867 0.57422 8.5977 1.7656 5.1055 2.4102 8.9688 6.8555 10.637 12.25 3.1133 9.1055 1.5898 20.891-4.082 31.52-9.8281 18.43-29.676 28.812-43.336 22.684-5.1055-2.4062-8.9688-6.8516-10.637-12.25-3.1172-9.1055-1.5898-20.887 4.0781-31.52z"/>
  <path d="m472.5 105h17.5v17.5h-17.5z"/>
  <path d="m227.63 170.62c30.617 0.09375 60.41-9.9336 84.742-28.52 23.82-18.164 41.25-43.43 49.766-72.148 3.5859-12.258 5.4805-24.945 5.6367-37.715 0.042968-3.4141-1.9102-6.543-4.9922-8.0117l-14.68-6.9766c-4.2539-2.0234-9.3516-0.3125-11.523 3.8672-4.9023 9.4375-11 18.199-18.145 26.074-4.6445 5.1055-9.707 9.8047-15.141 14.055h-151.4c-7.6953-6.0703-14.641-13.035-20.695-20.742-4.7695-6.0547-8.957-12.543-12.504-19.387-2.1758-4.1797-7.2695-5.8906-11.523-3.8672l-14.68 6.9766c-3.0859 1.4688-5.0352 4.5977-4.9922 8.0117 0.44141 36.867 15.402 72.074 41.637 97.98s61.625 40.422 98.496 40.402zm120.36-134.05 2.0938 0.99609h-0.003906c-0.32812 5.7812-1.0664 11.531-2.207 17.207l-9.1641-4.582c3.3555-4.3555 6.4531-8.9023 9.2812-13.621zm-75.172 42.176c-14.379 5.7188-29.711 8.6641-45.184 8.6719-15.559 0.019531-30.977-2.9258-45.434-8.6719zm-45.184 26.172c37.188-0.042969 72.84-14.832 99.141-41.125l16.289 8.1445v0.003906c-8.082 22.312-22.41 41.832-41.273 56.234-21.293 16.262-47.363 25.031-74.156 24.945-26.223 0.023438-51.762-8.3672-72.863-23.938-21.098-15.574-36.641-37.508-44.344-62.57l12.391-8.8555c26.52 30.078 64.715 47.266 104.82 47.16zm-120.35-68.348c1.5039 2.5156 3.0859 4.9766 4.7422 7.3867l-5.7695 4.1211c-0.50391-3.4844-0.85937-6.9883-1.0664-10.512z"/>
  <path d="m313.23 102.45-12.344-12.406c-19.379 19.273-45.574 30.133-72.906 30.227s-53.602-10.59-73.109-29.734l-12.25 12.492c22.797 22.367 53.488 34.852 85.426 34.742 31.934-0.10938 62.543-12.797 85.188-35.316z"/>
  <use x="70" y="576.40625" xlink:href="#t"/>
  <use x="74.011719" y="576.40625" xlink:href="#d"/>
  <use x="76.710938" y="576.40625" xlink:href="#a"/>
  <use x="80.417969" y="576.40625" xlink:href="#k"/>
  <use x="84.109375" y="576.40625" xlink:href="#c"/>
  <use x="86.722656" y="576.40625" xlink:href="#a"/>
  <use x="90.433594" y="576.40625" xlink:href="#j"/>
  <use x="96.25" y="576.40625" xlink:href="#i"/>
  <use x="100.167969" y="576.40625" xlink:href="#h"/>
  <use x="105.636719" y="576.40625" xlink:href="#e"/>
  <use x="111.332031" y="576.40625" xlink:href="#b"/>
  <use x="115.089844" y="576.40625" xlink:href="#g"/>
  <use x="118.984375" y="576.40625" xlink:href="#f"/>
  <use x="122.621094" y="576.40625" xlink:href="#s"/>
  <use x="124.496094" y="576.40625" xlink:href="#f"/>
  <use x="70" y="581.875" xlink:href="#r"/>
  <use x="72.378906" y="581.875" xlink:href="#d"/>
  <use x="75.078125" y="581.875" xlink:href="#b"/>
  <use x="78.832031" y="581.875" xlink:href="#e"/>
  <use x="86.4375" y="581.875" xlink:href="#c"/>
  <use x="89.050781" y="581.875" xlink:href="#q"/>
  <use x="92.941406" y="581.875" xlink:href="#a"/>
  <use x="98.554688" y="581.875" xlink:href="#p"/>
  <use x="103.132812" y="581.875" xlink:href="#b"/>
  <use x="106.890625" y="581.875" xlink:href="#o"/>
  <use x="110.785156" y="581.875" xlink:href="#g"/>
  <use x="116.582031" y="581.875" xlink:href="#n"/>
  <use x="120.589844" y="581.875" xlink:href="#d"/>
  <use x="123.285156" y="581.875" xlink:href="#b"/>
  <use x="127.042969" y="581.875" xlink:href="#m"/>
  <use x="128.917969" y="581.875" xlink:href="#a"/>
  <use x="132.625" y="581.875" xlink:href="#l"/>
  <use x="135.867188" y="581.875" xlink:href="#c"/>
 </g>
</svg>
