<?xml version="1.0" encoding="UTF-8"?>
<svg width="700pt" height="700pt" version="1.1" viewBox="0 0 700 700" xmlns="http://www.w3.org/2000/svg" xmlns:xlink="http://www.w3.org/1999/xlink">
 <defs>
  <symbol id="w" overflow="visible">
   <path d="m18.766-1.125c-0.96875 0.5-1.9805 0.875-3.0312 1.125-1.043 0.25781-2.1367 0.39062-3.2812 0.39062-3.3984 0-6.0898-0.94531-8.0781-2.8438-1.9922-1.9062-2.9844-4.4844-2.9844-7.7344 0-3.2578 0.99219-5.8359 2.9844-7.7344 1.9883-1.9062 4.6797-2.8594 8.0781-2.8594 1.1445 0 2.2383 0.13281 3.2812 0.39062 1.0508 0.25 2.0625 0.625 3.0312 1.125v4.2188c-0.98047-0.65625-1.9453-1.1406-2.8906-1.4531-0.94922-0.3125-1.9492-0.46875-3-0.46875-1.875 0-3.3516 0.60547-4.4219 1.8125-1.0742 1.1992-1.6094 2.8555-1.6094 4.9688 0 2.1055 0.53516 3.7617 1.6094 4.9688 1.0703 1.1992 2.5469 1.7969 4.4219 1.7969 1.0508 0 2.0508-0.14844 3-0.45312 0.94531-0.3125 1.9102-0.80078 2.8906-1.4688z"/>
  </symbol>
  <symbol id="d" overflow="visible">
   <path d="m13.734-11.141c-0.4375-0.19531-0.87109-0.34375-1.2969-0.4375-0.41797-0.10156-0.83984-0.15625-1.2656-0.15625-1.2617 0-2.2305 0.40625-2.9062 1.2188-0.67969 0.80469-1.0156 1.9531-1.0156 3.4531v7.0625h-4.8906v-15.312h4.8906v2.5156c0.625-1 1.3438-1.7266 2.1562-2.1875 0.82031-0.46875 1.8008-0.70312 2.9375-0.70312 0.16406 0 0.34375 0.011719 0.53125 0.03125 0.19531 0.011719 0.47656 0.039062 0.84375 0.078125z"/>
  </symbol>
  <symbol id="c" overflow="visible">
   <path d="m17.641-7.7031v1.4062h-11.453c0.125 1.1484 0.53906 2.0078 1.25 2.5781 0.70703 0.57422 1.7031 0.85938 2.9844 0.85938 1.0312 0 2.082-0.14844 3.1562-0.45312 1.082-0.3125 2.1914-0.77344 3.3281-1.3906v3.7656c-1.1562 0.4375-2.3125 0.76562-3.4688 0.98438-1.1562 0.22656-2.3125 0.34375-3.4688 0.34375-2.7734 0-4.9297-0.70312-6.4688-2.1094-1.5312-1.4062-2.2969-3.3789-2.2969-5.9219 0-2.5 0.75391-4.4609 2.2656-5.8906 1.5078-1.4375 3.582-2.1562 6.2188-2.1562 2.4062 0 4.332 0.73047 5.7812 2.1875 1.4453 1.4492 2.1719 3.3828 2.1719 5.7969zm-5.0312-1.625c0-0.92578-0.27344-1.6719-0.8125-2.2344-0.54297-0.57031-1.25-0.85938-2.125-0.85938-0.94922 0-1.7188 0.26562-2.3125 0.79688s-0.96484 1.2969-1.1094 2.2969z"/>
  </symbol>
  <symbol id="b" overflow="visible">
   <path d="m9.2188-6.8906c-1.0234 0-1.793 0.17188-2.3125 0.51562-0.51172 0.34375-0.76562 0.85547-0.76562 1.5312 0 0.625 0.20703 1.1172 0.625 1.4688 0.41406 0.34375 0.98828 0.51562 1.7188 0.51562 0.92578 0 1.7031-0.32812 2.3281-0.98438 0.63281-0.66406 0.95312-1.4922 0.95312-2.4844v-0.5625zm7.4688-1.8438v8.7344h-4.9219v-2.2656c-0.65625 0.92969-1.3984 1.6055-2.2188 2.0312-0.82422 0.41406-1.8242 0.625-3 0.625-1.5859 0-2.8711-0.45703-3.8594-1.375-0.99219-0.92578-1.4844-2.1289-1.4844-3.6094 0-1.7891 0.61328-3.1016 1.8438-3.9375 1.2383-0.84375 3.1797-1.2656 5.8281-1.2656h2.8906v-0.39062c0-0.76953-0.30859-1.332-0.92188-1.6875-0.61719-0.36328-1.5703-0.54688-2.8594-0.54688-1.0547 0-2.0312 0.10547-2.9375 0.3125-0.89844 0.21094-1.7305 0.52344-2.5 0.9375v-3.7344c1.0391-0.25 2.0859-0.44141 3.1406-0.57812 1.0625-0.13281 2.125-0.20312 3.1875-0.20312 2.7578 0 4.75 0.54688 5.9688 1.6406 1.2266 1.0859 1.8438 2.8555 1.8438 5.3125z"/>
  </symbol>
  <symbol id="a" overflow="visible">
   <path d="m7.7031-19.656v4.3438h5.0469v3.5h-5.0469v6.5c0 0.71094 0.14062 1.1875 0.42188 1.4375s0.83594 0.375 1.6719 0.375h2.5156v3.5h-4.1875c-1.9375 0-3.3125-0.39844-4.125-1.2031-0.80469-0.8125-1.2031-2.1797-1.2031-4.1094v-6.5h-2.4219v-3.5h2.4219v-4.3438z"/>
  </symbol>
  <symbol id="l" overflow="visible">
   <path d="m12.766-13.078v-8.2031h4.9219v21.281h-4.9219v-2.2188c-0.66797 0.90625-1.4062 1.5703-2.2188 1.9844s-1.7578 0.625-2.8281 0.625c-1.8867 0-3.4336-0.75-4.6406-2.25-1.2109-1.5-1.8125-3.4258-1.8125-5.7812 0-2.3633 0.60156-4.2969 1.8125-5.7969 1.207-1.5 2.7539-2.25 4.6406-2.25 1.0625 0 2 0.21484 2.8125 0.64062 0.82031 0.42969 1.5664 1.0859 2.2344 1.9688zm-3.2188 9.9219c1.0391 0 1.8359-0.37891 2.3906-1.1406 0.55078-0.76953 0.82812-1.8828 0.82812-3.3438 0-1.457-0.27734-2.5664-0.82812-3.3281-0.55469-0.76953-1.3516-1.1562-2.3906-1.1562-1.043 0-1.8398 0.38672-2.3906 1.1562-0.55469 0.76172-0.82812 1.8711-0.82812 3.3281 0 1.4609 0.27344 2.5742 0.82812 3.3438 0.55078 0.76172 1.3477 1.1406 2.3906 1.1406z"/>
  </symbol>
  <symbol id="k" overflow="visible">
   <path d="m10.5-3.1562c1.0508 0 1.8516-0.37891 2.4062-1.1406 0.55078-0.76953 0.82812-1.8828 0.82812-3.3438 0-1.457-0.27734-2.5664-0.82812-3.3281-0.55469-0.76953-1.3555-1.1562-2.4062-1.1562-1.0547 0-1.8594 0.38672-2.4219 1.1562-0.55469 0.77344-0.82812 1.8828-0.82812 3.3281 0 1.4492 0.27344 2.5586 0.82812 3.3281 0.5625 0.77344 1.3672 1.1562 2.4219 1.1562zm-3.25-9.9219c0.67578-0.88281 1.4219-1.5391 2.2344-1.9688 0.82031-0.42578 1.7656-0.64062 2.8281-0.64062 1.8945 0 3.4453 0.75 4.6562 2.25 1.207 1.5 1.8125 3.4336 1.8125 5.7969 0 2.3555-0.60547 4.2812-1.8125 5.7812-1.2109 1.5-2.7617 2.25-4.6562 2.25-1.0625 0-2.0078-0.21094-2.8281-0.625-0.8125-0.42578-1.5586-1.0859-2.2344-1.9844v2.2188h-4.8906v-21.281h4.8906z"/>
  </symbol>
  <symbol id="j" overflow="visible">
   <path d="m0.34375-15.312h4.8906l4.125 10.391 3.5-10.391h4.8906l-6.4375 16.766c-0.64844 1.6953-1.4023 2.8828-2.2656 3.5625-0.86719 0.6875-2 1.0312-3.4062 1.0312h-2.8438v-3.2188h1.5312c0.83203 0 1.4375-0.13672 1.8125-0.40625 0.38281-0.26172 0.67969-0.73047 0.89062-1.4062l0.14062-0.42188z"/>
  </symbol>
  <symbol id="i" overflow="visible">
   <path d="m2.5781-20.406h6.6875l4.6562 10.922 4.6719-10.922h6.6875v20.406h-4.9844v-14.938l-4.7031 11.016h-3.3281l-4.7031-11.016v14.938h-4.9844z"/>
  </symbol>
  <symbol id="e" overflow="visible">
   <path d="m2.3594-15.312h4.8906v15.312h-4.8906zm0-5.9688h4.8906v4h-4.8906z"/>
  </symbol>
  <symbol id="v" overflow="visible">
   <path d="m2.5781-20.406h5.25v7.4375l7.5938-7.4375h6.1094l-9.8281 9.6562 10.844 10.75h-6.5938l-8.125-8.0469v8.0469h-5.25z"/>
  </symbol>
  <symbol id="h" overflow="visible">
   <path d="m14.312-14.828v3.7188c-1.043-0.4375-2.0547-0.76562-3.0312-0.98438-0.98047-0.21875-1.9023-0.32812-2.7656-0.32812-0.92969 0-1.6211 0.11719-2.0781 0.34375-0.44922 0.23047-0.67188 0.58984-0.67188 1.0781 0 0.38672 0.17188 0.68359 0.51562 0.89062 0.34375 0.21094 0.95703 0.36719 1.8438 0.46875l0.85938 0.125c2.5078 0.32422 4.1953 0.85156 5.0625 1.5781 0.86328 0.73047 1.2969 1.8711 1.2969 3.4219 0 1.6367-0.60547 2.8672-1.8125 3.6875-1.1992 0.8125-2.9922 1.2188-5.375 1.2188-1.0234 0-2.0742-0.078125-3.1562-0.23438-1.0742-0.15625-2.1797-0.39453-3.3125-0.71875v-3.7188c0.96875 0.48047 1.9609 0.83984 2.9844 1.0781 1.0312 0.23047 2.0781 0.34375 3.1406 0.34375 0.95703 0 1.6758-0.12891 2.1562-0.39062 0.47656-0.26953 0.71875-0.66406 0.71875-1.1875 0-0.4375-0.16797-0.75781-0.5-0.96875-0.33594-0.21875-0.99609-0.38281-1.9844-0.5l-0.85938-0.10938c-2.1797-0.26953-3.7031-0.77344-4.5781-1.5156-0.875-0.73828-1.3125-1.8594-1.3125-3.3594 0-1.625 0.55078-2.8281 1.6562-3.6094 1.1133-0.78906 2.8203-1.1875 5.125-1.1875 0.89453 0 1.8359 0.074219 2.8281 0.21875 1 0.13672 2.082 0.35156 3.25 0.64062z"/>
  </symbol>
  <symbol id="u" overflow="visible">
   <path d="m2.3594-21.281h4.8906v21.281h-4.8906z"/>
  </symbol>
  <symbol id="g" overflow="visible">
   <path d="m17.75-9.3281v9.3281h-4.9219v-7.1406c0-1.3203-0.03125-2.2344-0.09375-2.7344s-0.16797-0.86719-0.3125-1.1094c-0.1875-0.3125-0.44922-0.55469-0.78125-0.73438-0.32422-0.17578-0.69531-0.26562-1.1094-0.26562-1.0234 0-1.8242 0.39844-2.4062 1.1875-0.58594 0.78125-0.875 1.8711-0.875 3.2656v7.5312h-4.8906v-15.312h4.8906v2.2344c0.73828-0.88281 1.5195-1.5391 2.3438-1.9688 0.83203-0.42578 1.75-0.64062 2.75-0.64062 1.7695 0 3.1133 0.54688 4.0312 1.6406 0.91406 1.0859 1.375 2.6562 1.375 4.7188z"/>
  </symbol>
  <symbol id="t" overflow="visible">
   <path d="m12.422-21.281v3.2188h-2.7031c-0.6875 0-1.1719 0.125-1.4531 0.375-0.27344 0.25-0.40625 0.6875-0.40625 1.3125v1.0625h4.1875v3.5h-4.1875v11.812h-4.8906v-11.812h-2.4375v-3.5h2.4375v-1.0625c0-1.6641 0.46094-2.8984 1.3906-3.7031 0.92578-0.80078 2.3672-1.2031 4.3281-1.2031z"/>
  </symbol>
  <symbol id="f" overflow="visible">
   <path d="m9.6406-12.188c-1.0859 0-1.9141 0.39062-2.4844 1.1719-0.57422 0.78125-0.85938 1.9062-0.85938 3.375s0.28516 2.5938 0.85938 3.375c0.57031 0.77344 1.3984 1.1562 2.4844 1.1562 1.0625 0 1.875-0.38281 2.4375-1.1562 0.57031-0.78125 0.85938-1.9062 0.85938-3.375s-0.28906-2.5938-0.85938-3.375c-0.5625-0.78125-1.375-1.1719-2.4375-1.1719zm0-3.5c2.6328 0 4.6914 0.71484 6.1719 2.1406 1.4766 1.418 2.2188 3.3867 2.2188 5.9062 0 2.5117-0.74219 4.4805-2.2188 5.9062-1.4805 1.418-3.5391 2.125-6.1719 2.125-2.6484 0-4.7148-0.70703-6.2031-2.125-1.4922-1.4258-2.2344-3.3945-2.2344-5.9062 0-2.5195 0.74219-4.4883 2.2344-5.9062 1.4883-1.4258 3.5547-2.1406 6.2031-2.1406z"/>
  </symbol>
  <symbol id="s" overflow="visible">
   <path d="m16.547-12.766c0.61328-0.94531 1.3477-1.6719 2.2031-2.1719 0.85156-0.5 1.7891-0.75 2.8125-0.75 1.7578 0 3.0977 0.54688 4.0156 1.6406 0.92578 1.0859 1.3906 2.6562 1.3906 4.7188v9.3281h-4.9219v-7.9844-0.35938c0.007813-0.13281 0.015625-0.32031 0.015625-0.5625 0-1.082-0.16406-1.8633-0.48438-2.3438-0.3125-0.48828-0.82422-0.73438-1.5312-0.73438-0.92969 0-1.6484 0.38672-2.1562 1.1562-0.51172 0.76172-0.77344 1.8672-0.78125 3.3125v7.5156h-4.9219v-7.9844c0-1.6953-0.14844-2.7852-0.4375-3.2656-0.29297-0.48828-0.8125-0.73438-1.5625-0.73438-0.9375 0-1.6641 0.38672-2.1719 1.1562-0.51172 0.76172-0.76562 1.8594-0.76562 3.2969v7.5312h-4.9219v-15.312h4.9219v2.2344c0.60156-0.86328 1.2891-1.5156 2.0625-1.9531 0.78125-0.4375 1.6406-0.65625 2.5781-0.65625 1.0625 0 2 0.25781 2.8125 0.76562 0.8125 0.51172 1.4258 1.2305 1.8438 2.1562z"/>
  </symbol>
  <symbol id="r" overflow="visible">
   <path d="m17.75-9.3281v9.3281h-4.9219v-7.1094c0-1.3438-0.03125-2.2656-0.09375-2.7656s-0.16797-0.86719-0.3125-1.1094c-0.1875-0.3125-0.44922-0.55469-0.78125-0.73438-0.32422-0.17578-0.69531-0.26562-1.1094-0.26562-1.0234 0-1.8242 0.39844-2.4062 1.1875-0.58594 0.78125-0.875 1.8711-0.875 3.2656v7.5312h-4.8906v-21.281h4.8906v8.2031c0.73828-0.88281 1.5195-1.5391 2.3438-1.9688 0.83203-0.42578 1.75-0.64062 2.75-0.64062 1.7695 0 3.1133 0.54688 4.0312 1.6406 0.91406 1.0859 1.375 2.6562 1.375 4.7188z"/>
  </symbol>
  <symbol id="q" overflow="visible">
   <path d="m2.5781-20.406h5.875l7.4219 14v-14h4.9844v20.406h-5.875l-7.4219-14v14h-4.9844z"/>
  </symbol>
  <symbol id="p" overflow="visible">
   <path d="m2.1875-5.9688v-9.3438h4.9219v1.5312c0 0.83594-0.007813 1.875-0.015625 3.125-0.011719 1.25-0.015625 2.0859-0.015625 2.5 0 1.2422 0.03125 2.1328 0.09375 2.6719 0.070313 0.54297 0.17969 0.93359 0.32812 1.1719 0.20703 0.32422 0.47266 0.57422 0.79688 0.75 0.32031 0.16797 0.69141 0.25 1.1094 0.25 1.0195 0 1.8203-0.39062 2.4062-1.1719 0.58203-0.78125 0.875-1.8672 0.875-3.2656v-7.5625h4.8906v15.312h-4.8906v-2.2188c-0.74219 0.89844-1.5234 1.5586-2.3438 1.9844-0.82422 0.41406-1.7344 0.625-2.7344 0.625-1.7617 0-3.1055-0.53906-4.0312-1.625-0.92969-1.082-1.3906-2.6602-1.3906-4.7344z"/>
  </symbol>
  <symbol id="o" overflow="visible">
   <path d="m2.5781-20.406h8.7344c2.5938 0 4.582 0.57812 5.9688 1.7344 1.3945 1.1484 2.0938 2.7891 2.0938 4.9219 0 2.1367-0.69922 3.7812-2.0938 4.9375-1.3867 1.1562-3.375 1.7344-5.9688 1.7344h-3.4844v7.0781h-5.25zm5.25 3.8125v5.7031h2.9219c1.0195 0 1.8047-0.25 2.3594-0.75 0.5625-0.5 0.84375-1.2031 0.84375-2.1094 0-0.91406-0.28125-1.6172-0.84375-2.1094-0.55469-0.48828-1.3398-0.73438-2.3594-0.73438z"/>
  </symbol>
  <symbol id="n" overflow="visible">
   <path d="m2.3594-15.312h4.8906v15.031c0 2.0508-0.49609 3.6172-1.4844 4.7031-0.98047 1.082-2.4062 1.625-4.2812 1.625h-2.4219v-3.2188h0.85938c0.92578 0 1.5625-0.21094 1.9062-0.625 0.35156-0.41797 0.53125-1.2461 0.53125-2.4844zm0-5.9688h4.8906v4h-4.8906z"/>
  </symbol>
  <symbol id="m" overflow="visible">
   <path d="m14.719-14.828v3.9844c-0.65625-0.45703-1.3242-0.79688-2-1.0156-0.66797-0.21875-1.3594-0.32812-2.0781-0.32812-1.3672 0-2.4336 0.40234-3.2031 1.2031-0.76172 0.79297-1.1406 1.9062-1.1406 3.3438 0 1.4297 0.37891 2.543 1.1406 3.3438 0.76953 0.79297 1.8359 1.1875 3.2031 1.1875 0.75781 0 1.4844-0.10938 2.1719-0.32812 0.6875-0.22656 1.3203-0.56641 1.9062-1.0156v4c-0.76172 0.28125-1.5391 0.48828-2.3281 0.625-0.78125 0.14453-1.5742 0.21875-2.375 0.21875-2.7617 0-4.9219-0.70703-6.4844-2.125-1.5547-1.4141-2.3281-3.3828-2.3281-5.9062 0-2.5312 0.77344-4.5039 2.3281-5.9219 1.5625-1.4141 3.7227-2.125 6.4844-2.125 0.80078 0 1.5938 0.074219 2.375 0.21875 0.78125 0.13672 1.5547 0.35156 2.3281 0.64062z"/>
  </symbol>
 </defs>
 <g>
  <path d="m269.3 121.86c-7.9766 5.3555-13.609 13.551-15.754 22.914-2.1445 9.3672-0.63672 19.195 4.2188 27.488l68.992 118.94c2.9297 5.0664 8.9297 7.4883 14.559 5.8789 5.6328-1.6133 9.4414-6.8555 9.2383-12.711l-4.7031-137.76v0.003906c-0.33594-9.8555-4.5117-19.188-11.641-26-7.125-6.8125-16.637-10.566-26.496-10.457 2.543-7.3711 3.5898-15.18 3.082-22.961-2.2969-25.312-23.297-43.625-24.191-44.352-1.7695-1.5117-4.293-1.7734-6.3359-0.65234-2.0391 1.1211-3.1758 3.3867-2.8477 5.6914 0 0 2.6875 18.984 4.7617 41.945 0 1.9023 0.33594 3.9219 0.50391 5.6016l-2.6875-5.207c-10.359-20.551-18.09-37.91-18.145-38.078l-0.003906-0.003906c-0.94531-2.1367-3.1172-3.4609-5.4492-3.3242s-4.332 1.707-5.0234 3.9414c-0.33594 1.1211-8.457 28 2.9688 50.398 3.6523 7.1914 8.7422 13.559 14.953 18.703zm54.434 4.7031h-0.003906c6.7461 4.7461 10.887 12.367 11.203 20.609l0.39062 12.098-20.047 5.6016v-0.003907c-1.5 0.34375-2.7891 1.2891-3.5703 2.6133-0.77734 1.3242-0.98047 2.9102-0.55859 4.3867 0.42188 1.4766 1.4336 2.7148 2.7969 3.4258 1.3633 0.70703 2.957 0.82813 4.4102 0.32813l17.305-4.9844 3.9219 114.13c0.011718 0.70703-0.45313 1.3398-1.1367 1.5391-0.67969 0.19531-1.4102-0.089843-1.7773-0.69922l-28-48.887 14.617-4.1992v-0.003906c1.4961-0.34375 2.7852-1.2891 3.5664-2.6133 0.78125-1.3242 0.98438-2.9102 0.55859-4.3867-0.42187-1.4766-1.4336-2.7148-2.7969-3.4258-1.3633-0.70703-2.957-0.82813-4.4102-0.32422l-16.129 4.6484v-0.003906c-0.37109 0.14844-0.73047 0.33594-1.0625 0.5625l-12.152-19.77 11.93-3.4141c3.0469-0.88281 4.8008-4.0664 3.918-7.1133-0.87891-3.0469-4.0664-4.8008-7.1094-3.918l-14.617 4.1992-14.449-24.977 10.586-3.0234c1.4961-0.34766 2.7852-1.2891 3.5664-2.6133 0.78125-1.3242 0.98438-2.9102 0.55859-4.3867-0.42188-1.4766-1.4336-2.7148-2.7969-3.4258-1.3633-0.71094-2.957-0.82812-4.4102-0.32812l-12.77 3.6406h0.003907c-2.3906-6.8945-1.8359-14.469 1.5352-20.941 3.3672-6.4727 9.2539-11.273 16.27-13.273l17.586-5.0391c2.4023-0.69922 4.8906-1.0586 7.3906-1.0664 5.6367-0.015625 11.133 1.7695 15.68 5.0977zm-24.137-38.359c0.5625 8.3398-0.9375 16.688-4.3711 24.305-0.50391-8.1211-1.1758-16.129-1.8477-23.801-0.78516-8.793-1.6797-16.801-2.4648-23.801h0.003906c4.7461 6.9453 7.7266 14.941 8.6797 23.297zm-29.793 7c3.4727 6.8867 7.168 14 11.199 21.168-7.0312-4.6172-12.801-10.91-16.801-18.312-3.5742-7.5859-5.2461-15.926-4.8711-24.301 2.9102 6.3828 6.6641 13.832 10.473 21.445z"/>
  <path d="m206.3 163.07c6.8516 13.816 14.711 27.105 23.52 39.762l3.8086 5.6016c1.8242 2.3516 5.1758 2.8672 7.6211 1.1641 2.4453-1.6992 3.1328-5.0195 1.5625-7.5508l-3.8086-5.6016v0.003907c-7.7773-11.164-14.793-22.84-21-34.945 4.7031-7.1133 23.574-38.023 15.398-67.762-9.1289-33.152-47.992-50.398-49.617-51.129l0.003907 0.003907c-2.4922-0.98828-5.332-0.070313-6.7773 2.1836-1.0625 1.457-25.594 36.176-16.465 69.328 7.5625 27.16 35.449 43.68 45.754 48.941zm-22.738-108.02c9.6875 5.1523 32.984 19.543 39.199 41.719 5.6016 20.047-4.3125 41.887-10.473 52.754h0.003906c-7.5859-16.555-13.656-33.762-18.145-51.406l-1.625-6.4414c-0.75781-3-3.8047-4.8164-6.8047-4.0586-3 0.75781-4.8164 3.8008-4.0586 6.8008l1.5117 6.3867c3.8398 14.977 8.7812 29.652 14.785 43.902-10.359-7.4492-22.398-18.93-26.602-33.938-6.1602-22.004 6.5508-46.367 12.207-55.719z"/>
  <path d="m164.75 266.05c-2.1523 3.2148-5.3984 5.5391-9.1328 6.543-3.7383 1-7.7109 0.60938-11.18-1.0977-3.4727-1.707-6.2031-4.6172-7.6875-8.1875-1.1758-2.8633-4.4492-4.2266-7.3086-3.0508-2.8633 1.1719-4.2305 4.4453-3.0547 7.3047 2.5234 6.0977 7.1797 11.066 13.098 13.98 5.9219 2.9141 12.695 3.5742 19.066 1.8555 6.3711-1.7148 11.898-5.6914 15.551-11.188 1.7148-2.582 1.0117-6.0664-1.5703-7.7812-2.582-1.7188-6.0664-1.0156-7.7812 1.5664z"/>
  <path d="m254.13 288.01c0 5.7031 2.2656 11.172 6.2969 15.207 4.0352 4.0312 9.5039 6.2969 15.207 6.2969 5.7031 0 11.172-2.2656 15.203-6.2969 4.0352-4.0352 6.3008-9.5039 6.3008-15.207 0-5.7031-2.2656-11.172-6.3008-15.207-4.0312-4.0312-9.5-6.2969-15.203-6.2969-5.6992 0.015625-11.16 2.2852-15.191 6.3164-4.0273 4.0273-6.2969 9.4883-6.3125 15.188zm31.809 0c0 4.168-2.5117 7.9258-6.3633 9.5195-3.8477 1.5938-8.2812 0.71484-11.227-2.2344-2.9492-2.9453-3.832-7.3789-2.2344-11.227 1.5938-3.8516 5.3516-6.3633 9.5195-6.3633 2.7305 0 5.3516 1.0859 7.2852 3.0195 1.9336 1.9336 3.0195 4.5508 3.0195 7.2852z"/>
  <path d="m530.38 144.31c5.7031 0 11.176-2.2656 15.207-6.3008 4.0312-4.0312 6.2969-9.5 6.2969-15.203s-2.2656-11.172-6.2969-15.207c-4.0312-4.0312-9.5039-6.2969-15.207-6.2969s-11.172 2.2656-15.203 6.2969c-4.0352 4.0352-6.3008 9.5039-6.3008 15.207 0.015625 5.6992 2.2852 11.16 6.3164 15.188 4.0273 4.0312 9.4883 6.3008 15.188 6.3164zm0-31.809c4.168 0 7.9258 2.5117 9.5195 6.3594 1.5977 3.8516 0.71484 8.2852-2.2344 11.23-2.9453 2.9453-7.3789 3.8281-11.227 2.2344-3.8516-1.5938-6.3633-5.3516-6.3633-9.5195-0.011718-2.7422 1.0664-5.3789 3-7.3242 1.9336-1.9414 4.5625-3.0352 7.3047-3.0352z"/>
  <path d="m372.12 107.07c5.7031 0 11.172-2.2656 15.203-6.2969 4.0352-4.0312 6.3008-9.5039 6.3008-15.207s-2.2656-11.172-6.3008-15.203c-4.0312-4.0352-9.5-6.3008-15.203-6.3008s-11.176 2.2656-15.207 6.3008c-4.0312 4.0312-6.2969 9.5-6.2969 15.203 0.011718 5.6992 2.2852 11.16 6.3125 15.191 4.0312 4.0273 9.4922 6.3008 15.191 6.3125zm0-31.809v0.003906c4.168 0 7.9219 2.5078 9.5195 6.3594 1.5938 3.8516 0.71094 8.2812-2.2344 11.23-2.9453 2.9453-7.3789 3.8281-11.23 2.2305-3.8477-1.5938-6.3594-5.3516-6.3594-9.5195 0-2.7305 1.0859-5.3516 3.0156-7.2852 1.9336-1.9336 4.5547-3.0156 7.2891-3.0156z"/>
  <path d="m132.33 181.33c5.7031 0 11.172-2.2656 15.207-6.2969 4.0312-4.0352 6.2969-9.5039 6.2969-15.207s-2.2656-11.172-6.2969-15.207c-4.0352-4.0312-9.5039-6.2969-15.207-6.2969s-11.172 2.2656-15.207 6.2969c-4.0312 4.0352-6.2969 9.5039-6.2969 15.207 0.015625 5.6992 2.2852 11.16 6.3164 15.188 4.0273 4.0312 9.4883 6.3008 15.188 6.3164zm0-31.809c4.168 0 7.9258 2.5117 9.5195 6.3594 1.5938 3.8516 0.71484 8.2852-2.2344 11.23-2.9453 2.9492-7.3789 3.8281-11.227 2.2344-3.8516-1.5938-6.3633-5.3516-6.3633-9.5195 0-2.7344 1.0859-5.3555 3.0195-7.2852 1.9297-1.9336 4.5508-3.0195 7.2852-3.0195z"/>
  <path d="m207.48 387.3c-1.5469-2.6914-4.9805-3.6211-7.6719-2.0742s-3.6172 4.9844-2.0742 7.6719c1.7539 3.0977 3.6211 6.1211 5.6016 9.0703v0.003906c1.7148 2.582 5.2031 3.2852 7.7852 1.5664 2.582-1.7148 3.2852-5.1992 1.5664-7.7812-1.793-2.7656-3.5273-5.582-5.207-8.457z"/>
  <path d="m272.95 448c-3.6406-1.8477-7.2812-3.8633-10.809-5.9375-3.5273-2.0703-8.3438-5.2656-12.266-8.0625-6.7461-4.8789-13.098-10.293-18.984-16.184l-2.1289-2.0703 0.003907-0.003906c-1.2383-1.1719-2.3984-2.4258-3.4727-3.75-1.9961-2.3672-5.5312-2.668-7.8984-0.67188-2.3633 1.9961-2.6641 5.5312-0.67188 7.8945 1.3203 1.6211 2.7422 3.1562 4.2578 4.5938l1.9609 1.9609c6.3203 6.3203 13.137 12.125 20.383 17.359 4.1992 3.0234 8.5664 5.9375 13.105 8.625 4.5352 2.6875 7.5586 4.3672 11.199 6.3281v-0.003906c1.332 0.80469 2.9414 1.0156 4.4375 0.58594 1.4961-0.43359 2.7422-1.4648 3.4453-2.8555 0.70313-1.3906 0.79688-3.0078 0.25781-4.4688-0.54297-1.4609-1.6641-2.6289-3.1016-3.2266z"/>
  <path d="m593.38 135.63c-3.5078-2.9453-8.1523-4.1641-12.652-3.3164-4.5039 0.84375-8.3867 3.6641-10.586 7.6836l-16.238 29.566h-0.003907c-7.0273-2.6914-14.676-3.3516-22.062-1.9023-8.1758 1.9062-15.617 6.1719-21.391 12.266l-24.078 24.586-0.003906-0.003906c-25.148 25.613-54.012 47.285-85.625 64.289l-26.266 14.168h0.003906c-17.555 9.2188-31.629 23.902-40.098 41.832-0.83984 1.8477-1.5117 3.8086-2.2383 5.6016l-92.121-0.003906h0.33594c2.4336-1.2383 3.6172-4.0547 2.8008-6.6641l-18.367-59.191c7.707-1.5195 14.379-6.3047 18.289-13.113 3.9141-6.8125 4.6875-14.984 2.1211-22.41-2.5664-7.4219-8.2227-13.371-15.508-16.309-7.2852-2.9414-15.488-2.582-22.488 0.98437-0.44922 0-0.78516 0.55859-1.2305 0.78516-0.45312-1.2617-0.97656-2.4961-1.5703-3.6953-4.5781-9.1602-12.984-15.816-22.949-18.176-9.9648-2.3555-20.461-0.17188-28.66 5.9648-8.1992 6.1367-13.25 15.594-13.797 25.816-9.1367-2.3242-18.824-0.82031-26.824 4.1641-8.0039 4.9844-13.625 13.016-15.57 22.238-1.9453 9.2227-0.042968 18.844 5.2656 26.633-5.6797 11.004-5.0625 24.203 1.6289 34.625 6.6875 10.422 18.43 16.484 30.797 15.902 12.371-0.58203 23.492-7.7188 29.176-18.723l15.902 21.168h-25.367c-3.0938 0-5.6016 2.5078-5.6016 5.6016 0 102.2 80.586 173.6 196 173.6 115.42 0 196-71.402 196-173.6 0-1.4844-0.58984-2.9102-1.6367-3.9609-1.0508-1.0508-2.4766-1.6406-3.9609-1.6406h-6.2734l51.406-101.08h0.003906c6.2539-12.828 5.5586-27.953-1.8477-40.152l18.871-34.496c1.6836-3.1016 2.2461-6.6875 1.5938-10.156-0.65625-3.4688-2.4844-6.6055-5.1797-8.8828zm-427.45 158.59c-0.86719-1.3906-2.3008-2.332-3.9219-2.5742-3.0586-0.39844-5.8672 1.7578-6.2734 4.8164-0.95703 7.1211-5.125 13.41-11.309 17.07-6.1875 3.6562-13.707 4.2773-20.41 1.6836-6.7031-2.5898-11.848-8.1133-13.961-14.98-2.1133-6.8672-0.96484-14.324 3.1211-20.238v-0.39062c0.33984-0.65234 0.58594-1.3516 0.72656-2.0742 0.16406-1.4648-0.26172-2.9336-1.1758-4.0859-4.8125-5.6094-6.707-13.156-5.1055-20.371 1.6016-7.2148 6.5078-13.254 13.242-16.297 6.7344-3.0469 14.512-2.7383 20.984 0.82812 0.91406 0.47266 1.9414 0.6875 2.9688 0.61328h1.1758c3.0117-0.66797 4.9141-3.6484 4.2539-6.6641-1.4414-6.3906-0.14062-13.098 3.582-18.492 3.7227-5.3906 9.5312-8.9844 16.023-9.9023 6.4883-0.91797 13.066 0.92188 18.141 5.0703 5.0742 4.1484 8.1797 10.23 8.5664 16.773 0.12109 1.5664 0.89453 3.0078 2.1289 3.9766 0.28516 0.17578 0.58594 0.32422 0.89844 0.44922l0.72656 0.39062c2.2305 0.79297 4.7188 0.097656 6.2148-1.7344 2.9883-3.707 7.4688-5.8906 12.23-5.9492 4.7578-0.058594 9.2969 2.0078 12.375 5.6367 3.0742 3.6328 4.3711 8.4453 3.5352 13.133-0.83594 4.6836-3.7227 8.75-7.8672 11.09-2.7344 1.375-5.8047 1.9375-8.8477 1.625-1.4805-0.15625-2.957 0.28125-4.1133 1.2148s-1.8945 2.2891-2.0469 3.7695c-0.082031 1.043 0.12891 2.0938 0.61328 3.0234l18.871 60.535-10.754 5.6016-20.16-39.984h0.003907c-1.3906-2.7695-4.7617-3.8867-7.5312-2.4922-2.7695 1.3906-3.8828 4.7617-2.4922 7.5312l18.703 37.574h-15.848zm178.47 204.18c-94.922 0-163.07-48.105-180.43-123.2h360.87c-17.359 75.098-85.512 123.2-180.43 123.2zm182.56-134.4h-365.12c-1.2266-7.4102-1.9727-14.895-2.2383-22.398h369.6c-0.26562 7.5039-1.0117 14.988-2.2383 22.398zm-182.56-33.602c0-0.33594 0-0.72656 0.39062-1.0625h0.003907c7.4844-15.598 19.824-28.348 35.168-36.344l26.039-14.168c32.633-17.586 62.426-39.996 88.367-66.473l8.0625-8.2305 9.5195 0.89453h0.003906c4.9844 0.63281 9.2578 3.875 11.199 8.5117 3.1875 7.6445 9.9297 13.234 18.031 14.953h0.89453c4.2383 1.0312 7.7539 3.9688 9.5234 7.9531l5.6016 12.207-41.219 81.758zm242.76-181.1-20.441 37.297c-0.019531 0.25781-0.019531 0.51953 0 0.78125-0.14844 0.36328-0.26172 0.73828-0.33594 1.1211-0.058593 0.70703-0.058593 1.418 0 2.1289 0.10938 0.38672 0.26172 0.76172 0.44922 1.1172 0.09375 0.25391 0.20703 0.49609 0.33594 0.73047 3.3125 4.5547 5.332 9.9219 5.8438 15.531s-0.5 11.25-2.9336 16.332l-5.9375 11.703-1.9609-4.2578 0.003906 0.003906c-3.3398-7.2148-9.8711-12.438-17.641-14.113h-0.89453c-4.5-0.94922-8.2461-4.0469-10.023-8.2891-3.5273-8.3359-11.234-14.164-20.219-15.285h-1.0078l5.8789-6.0469 0.003906-0.003906c4.2344-4.5312 9.7031-7.7227 15.734-9.1836 6.7773-1.25 13.781-0.18359 19.879 3.0234 0.30078 0.023437 0.59766 0.023437 0.89844 0 0.35156 0.035156 0.71094 0.035156 1.0625 0 0.35547 0.035156 0.71094 0.035156 1.0664 0 0.70703-0.007813 1.3945-0.24219 1.957-0.67188 0.31641-0.15625 0.61719-0.34375 0.89844-0.55859 0.26953-0.25391 0.51172-0.53516 0.72656-0.83984 0.22656-0.22656 0.43359-0.46875 0.61719-0.72656l18.594-33.602h-0.003906c0.58594-1.0781 1.625-1.832 2.832-2.0586 1.2031-0.23047 2.4453 0.09375 3.3867 0.88281 1.5117 1.1758 2.0234 3.2383 1.2305 4.9844z"/>
  <path d="m492.13 231.34c-8.5664 7.5586-17.641 14.727-26.938 21.449-1.2695 0.83984-2.1445 2.1641-2.418 3.6641-0.27344 1.5 0.074218 3.0469 0.96875 4.2852 0.89453 1.2344 2.25 2.0547 3.7617 2.2656 1.5117 0.21094 3.043-0.20312 4.2383-1.1445 9.5742-6.8867 18.93-14.336 28-22.121 1.1914-0.95703 1.9375-2.3594 2.0703-3.8828 0.12891-1.5195-0.36719-3.0312-1.3789-4.1758-1.0078-1.1484-2.4414-1.832-3.9688-1.8945-1.5234-0.066406-3.0117 0.49609-4.1133 1.5547z"/>
  <path d="m426.05 277.26-26.32 13.941c-10.383 5.5703-19.648 13.012-27.328 21.953-1.0273 1.1133-1.5586 2.5938-1.4766 4.1094 0.085937 1.5117 0.77734 2.9258 1.9219 3.918 1.1445 0.99219 2.6445 1.4805 4.1523 1.3516 1.5117-0.13281 2.9023-0.86719 3.8594-2.043 6.7891-7.8047 14.949-14.297 24.082-19.152l26.266-14.168h-0.003906c2.7227-1.4688 3.7383-4.8672 2.2695-7.5898-1.4688-2.7188-4.8672-3.7344-7.5898-2.2656z"/>
  <path d="m417.2 228.7c1.6562 2.2852 4.75 2.9805 7.2266 1.625 6.4961-3.5273 63.391-35.281 70.113-65.016h-0.003906c3.6641-13.703 0.14453-28.328-9.3516-38.863-5.0742-5.3711-11.141-9.707-17.863-12.77 10.652-2.8477 20.121-9.0039 27.047-17.582 12.434-17.699 7.5625-42.113 7.3945-43.121-0.56641-2.875-3.2539-4.8281-6.1602-4.4805-4.1445 0.49219-8.2305 1.375-12.211 2.6328-2.2148-10.895-6.5547-21.246-12.766-30.465-1.6602-2.3125-4.793-3.0117-7.2812-1.625-1.1211 0.61719-28 15.848-33.602 41.551-4.0312 17.863 3.2461 35.504 8.3438 44.801h0.003906c-10.641-1.6016-21.512-0.46094-31.586 3.3047-13.141 5.4922-22.59 17.285-25.09 31.305-6.6602 29.68 31.195 82.77 35.785 88.703zm67.816-139.1c-6.6172 7.6406-15.645 12.797-25.59 14.613-1.2148-10.047 1.0586-20.211 6.4375-28.781 6.6211-7.6406 15.648-12.797 25.594-14.617 1.2109 10.047-1.0625 20.211-6.4414 28.785zm-44.297-26.547c3.4141-15.121 16.801-26.266 23.688-31.305v0.003906c4.1953 7.3477 7.043 15.391 8.4023 23.742-6.2852 3.0898-11.766 7.5938-16.016 13.16-6.2422 9.3125-9.3242 20.387-8.793 31.582-4.1992-8.0078-10.473-22.848-7.2812-37.184zm-48.383 79.352c1.7617-10.402 8.7383-19.176 18.48-23.238 5.5977-2.1875 11.574-3.25 17.582-3.1367 5.8086 0.054688 11.594 0.75 17.25 2.0742 11.684 2.0352 22.48 7.5586 30.969 15.848 7.0469 7.8398 9.582 18.746 6.7188 28.895-4.5352 19.375-41.609 44.352-60.258 55.215-12.148-17.695-35.055-56.277-30.742-75.656z"/>
  <path d="m423.98 182.28c-6.4961-14.559-9.0703-26.152-7.3906-33.602 1.0469-5.1172 3.293-9.9141 6.5508-14 1.9805-2.3828 1.6523-5.918-0.73047-7.8945-2.3789-1.9805-5.9141-1.6562-7.8945 0.72656-4.3906 5.4453-7.4258 11.855-8.8477 18.703-2.2383 9.9102 0.50391 23.574 8.1211 40.602 1.2656 2.8281 4.5898 4.0938 7.418 2.8281 2.832-1.2695 4.0977-4.5898 2.8281-7.4219z"/>
  
 </g>
</svg>
