<?xml version="1.0" encoding="UTF-8"?>
<svg width="700pt" height="700pt" version="1.1" viewBox="120 0 550 550" xmlns="http://www.w3.org/2000/svg" xmlns:xlink="http://www.w3.org/1999/xlink">
 <defs>
  <symbol id="s" overflow="visible">
   <path d="m18.766-1.125c-0.96875 0.5-1.9805 0.875-3.0312 1.125-1.043 0.25781-2.1367 0.39062-3.2812 0.39062-3.3984 0-6.0898-0.94531-8.0781-2.8438-1.9922-1.9062-2.9844-4.4844-2.9844-7.7344 0-3.2578 0.99219-5.8359 2.9844-7.7344 1.9883-1.9062 4.6797-2.8594 8.0781-2.8594 1.1445 0 2.2383 0.13281 3.2812 0.39062 1.0508 0.25 2.0625 0.625 3.0312 1.125v4.2188c-0.98047-0.65625-1.9453-1.1406-2.8906-1.4531-0.94922-0.3125-1.9492-0.46875-3-0.46875-1.875 0-3.3516 0.60547-4.4219 1.8125-1.0742 1.1992-1.6094 2.8555-1.6094 4.9688 0 2.1055 0.53516 3.7617 1.6094 4.9688 1.0703 1.1992 2.5469 1.7969 4.4219 1.7969 1.0508 0 2.0508-0.14844 3-0.45312 0.94531-0.3125 1.9102-0.80078 2.8906-1.4688z"/>
  </symbol>
  <symbol id="c" overflow="visible">
   <path d="m13.734-11.141c-0.4375-0.19531-0.87109-0.34375-1.2969-0.4375-0.41797-0.10156-0.83984-0.15625-1.2656-0.15625-1.2617 0-2.2305 0.40625-2.9062 1.2188-0.67969 0.80469-1.0156 1.9531-1.0156 3.4531v7.0625h-4.8906v-15.312h4.8906v2.5156c0.625-1 1.3438-1.7266 2.1562-2.1875 0.82031-0.46875 1.8008-0.70312 2.9375-0.70312 0.16406 0 0.34375 0.011719 0.53125 0.03125 0.19531 0.011719 0.47656 0.039062 0.84375 0.078125z"/>
  </symbol>
  <symbol id="a" overflow="visible">
   <path d="m17.641-7.7031v1.4062h-11.453c0.125 1.1484 0.53906 2.0078 1.25 2.5781 0.70703 0.57422 1.7031 0.85938 2.9844 0.85938 1.0312 0 2.082-0.14844 3.1562-0.45312 1.082-0.3125 2.1914-0.77344 3.3281-1.3906v3.7656c-1.1562 0.4375-2.3125 0.76562-3.4688 0.98438-1.1562 0.22656-2.3125 0.34375-3.4688 0.34375-2.7734 0-4.9297-0.70312-6.4688-2.1094-1.5312-1.4062-2.2969-3.3789-2.2969-5.9219 0-2.5 0.75391-4.4609 2.2656-5.8906 1.5078-1.4375 3.582-2.1562 6.2188-2.1562 2.4062 0 4.332 0.73047 5.7812 2.1875 1.4453 1.4492 2.1719 3.3828 2.1719 5.7969zm-5.0312-1.625c0-0.92578-0.27344-1.6719-0.8125-2.2344-0.54297-0.57031-1.25-0.85938-2.125-0.85938-0.94922 0-1.7188 0.26562-2.3125 0.79688s-0.96484 1.2969-1.1094 2.2969z"/>
  </symbol>
  <symbol id="f" overflow="visible">
   <path d="m9.2188-6.8906c-1.0234 0-1.793 0.17188-2.3125 0.51562-0.51172 0.34375-0.76562 0.85547-0.76562 1.5312 0 0.625 0.20703 1.1172 0.625 1.4688 0.41406 0.34375 0.98828 0.51562 1.7188 0.51562 0.92578 0 1.7031-0.32812 2.3281-0.98438 0.63281-0.66406 0.95312-1.4922 0.95312-2.4844v-0.5625zm7.4688-1.8438v8.7344h-4.9219v-2.2656c-0.65625 0.92969-1.3984 1.6055-2.2188 2.0312-0.82422 0.41406-1.8242 0.625-3 0.625-1.5859 0-2.8711-0.45703-3.8594-1.375-0.99219-0.92578-1.4844-2.1289-1.4844-3.6094 0-1.7891 0.61328-3.1016 1.8438-3.9375 1.2383-0.84375 3.1797-1.2656 5.8281-1.2656h2.8906v-0.39062c0-0.76953-0.30859-1.332-0.92188-1.6875-0.61719-0.36328-1.5703-0.54688-2.8594-0.54688-1.0547 0-2.0312 0.10547-2.9375 0.3125-0.89844 0.21094-1.7305 0.52344-2.5 0.9375v-3.7344c1.0391-0.25 2.0859-0.44141 3.1406-0.57812 1.0625-0.13281 2.125-0.20312 3.1875-0.20312 2.7578 0 4.75 0.54688 5.9688 1.6406 1.2266 1.0859 1.8438 2.8555 1.8438 5.3125z"/>
  </symbol>
  <symbol id="b" overflow="visible">
   <path d="m7.7031-19.656v4.3438h5.0469v3.5h-5.0469v6.5c0 0.71094 0.14062 1.1875 0.42188 1.4375s0.83594 0.375 1.6719 0.375h2.5156v3.5h-4.1875c-1.9375 0-3.3125-0.39844-4.125-1.2031-0.80469-0.8125-1.2031-2.1797-1.2031-4.1094v-6.5h-2.4219v-3.5h2.4219v-4.3438z"/>
  </symbol>
  <symbol id="e" overflow="visible">
   <path d="m12.766-13.078v-8.2031h4.9219v21.281h-4.9219v-2.2188c-0.66797 0.90625-1.4062 1.5703-2.2188 1.9844s-1.7578 0.625-2.8281 0.625c-1.8867 0-3.4336-0.75-4.6406-2.25-1.2109-1.5-1.8125-3.4258-1.8125-5.7812 0-2.3633 0.60156-4.2969 1.8125-5.7969 1.207-1.5 2.7539-2.25 4.6406-2.25 1.0625 0 2 0.21484 2.8125 0.64062 0.82031 0.42969 1.5664 1.0859 2.2344 1.9688zm-3.2188 9.9219c1.0391 0 1.8359-0.37891 2.3906-1.1406 0.55078-0.76953 0.82812-1.8828 0.82812-3.3438 0-1.457-0.27734-2.5664-0.82812-3.3281-0.55469-0.76953-1.3516-1.1562-2.3906-1.1562-1.043 0-1.8398 0.38672-2.3906 1.1562-0.55469 0.76172-0.82812 1.8711-0.82812 3.3281 0 1.4609 0.27344 2.5742 0.82812 3.3438 0.55078 0.76172 1.3477 1.1406 2.3906 1.1406z"/>
  </symbol>
  <symbol id="i" overflow="visible">
   <path d="m10.5-3.1562c1.0508 0 1.8516-0.37891 2.4062-1.1406 0.55078-0.76953 0.82812-1.8828 0.82812-3.3438 0-1.457-0.27734-2.5664-0.82812-3.3281-0.55469-0.76953-1.3555-1.1562-2.4062-1.1562-1.0547 0-1.8594 0.38672-2.4219 1.1562-0.55469 0.77344-0.82812 1.8828-0.82812 3.3281 0 1.4492 0.27344 2.5586 0.82812 3.3281 0.5625 0.77344 1.3672 1.1562 2.4219 1.1562zm-3.25-9.9219c0.67578-0.88281 1.4219-1.5391 2.2344-1.9688 0.82031-0.42578 1.7656-0.64062 2.8281-0.64062 1.8945 0 3.4453 0.75 4.6562 2.25 1.207 1.5 1.8125 3.4336 1.8125 5.7969 0 2.3555-0.60547 4.2812-1.8125 5.7812-1.2109 1.5-2.7617 2.25-4.6562 2.25-1.0625 0-2.0078-0.21094-2.8281-0.625-0.8125-0.42578-1.5586-1.0859-2.2344-1.9844v2.2188h-4.8906v-21.281h4.8906z"/>
  </symbol>
  <symbol id="h" overflow="visible">
   <path d="m0.34375-15.312h4.8906l4.125 10.391 3.5-10.391h4.8906l-6.4375 16.766c-0.64844 1.6953-1.4023 2.8828-2.2656 3.5625-0.86719 0.6875-2 1.0312-3.4062 1.0312h-2.8438v-3.2188h1.5312c0.83203 0 1.4375-0.13672 1.8125-0.40625 0.38281-0.26172 0.67969-0.73047 0.89062-1.4062l0.14062-0.42188z"/>
  </symbol>
  <symbol id="g" overflow="visible">
   <path d="m2.5781-20.406h6.6875l4.6562 10.922 4.6719-10.922h6.6875v20.406h-4.9844v-14.938l-4.7031 11.016h-3.3281l-4.7031-11.016v14.938h-4.9844z"/>
  </symbol>
  <symbol id="r" overflow="visible">
   <path d="m12.422-21.281v3.2188h-2.7031c-0.6875 0-1.1719 0.125-1.4531 0.375-0.27344 0.25-0.40625 0.6875-0.40625 1.3125v1.0625h4.1875v3.5h-4.1875v11.812h-4.8906v-11.812h-2.4375v-3.5h2.4375v-1.0625c0-1.6641 0.46094-2.8984 1.3906-3.7031 0.92578-0.80078 2.3672-1.2031 4.3281-1.2031z"/>
  </symbol>
  <symbol id="d" overflow="visible">
   <path d="m9.6406-12.188c-1.0859 0-1.9141 0.39062-2.4844 1.1719-0.57422 0.78125-0.85938 1.9062-0.85938 3.375s0.28516 2.5938 0.85938 3.375c0.57031 0.77344 1.3984 1.1562 2.4844 1.1562 1.0625 0 1.875-0.38281 2.4375-1.1562 0.57031-0.78125 0.85938-1.9062 0.85938-3.375s-0.28906-2.5938-0.85938-3.375c-0.5625-0.78125-1.375-1.1719-2.4375-1.1719zm0-3.5c2.6328 0 4.6914 0.71484 6.1719 2.1406 1.4766 1.418 2.2188 3.3867 2.2188 5.9062 0 2.5117-0.74219 4.4805-2.2188 5.9062-1.4805 1.418-3.5391 2.125-6.1719 2.125-2.6484 0-4.7148-0.70703-6.2031-2.125-1.4922-1.4258-2.2344-3.3945-2.2344-5.9062 0-2.5195 0.74219-4.4883 2.2344-5.9062 1.4883-1.4258 3.5547-2.1406 6.2031-2.1406z"/>
  </symbol>
  <symbol id="q" overflow="visible">
   <path d="m16.547-12.766c0.61328-0.94531 1.3477-1.6719 2.2031-2.1719 0.85156-0.5 1.7891-0.75 2.8125-0.75 1.7578 0 3.0977 0.54688 4.0156 1.6406 0.92578 1.0859 1.3906 2.6562 1.3906 4.7188v9.3281h-4.9219v-7.9844-0.35938c0.007813-0.13281 0.015625-0.32031 0.015625-0.5625 0-1.082-0.16406-1.8633-0.48438-2.3438-0.3125-0.48828-0.82422-0.73438-1.5312-0.73438-0.92969 0-1.6484 0.38672-2.1562 1.1562-0.51172 0.76172-0.77344 1.8672-0.78125 3.3125v7.5156h-4.9219v-7.9844c0-1.6953-0.14844-2.7852-0.4375-3.2656-0.29297-0.48828-0.8125-0.73438-1.5625-0.73438-0.9375 0-1.6641 0.38672-2.1719 1.1562-0.51172 0.76172-0.76562 1.8594-0.76562 3.2969v7.5312h-4.9219v-15.312h4.9219v2.2344c0.60156-0.86328 1.2891-1.5156 2.0625-1.9531 0.78125-0.4375 1.6406-0.65625 2.5781-0.65625 1.0625 0 2 0.25781 2.8125 0.76562 0.8125 0.51172 1.4258 1.2305 1.8438 2.1562z"/>
  </symbol>
  <symbol id="p" overflow="visible">
   <path d="m17.75-9.3281v9.3281h-4.9219v-7.1094c0-1.3438-0.03125-2.2656-0.09375-2.7656s-0.16797-0.86719-0.3125-1.1094c-0.1875-0.3125-0.44922-0.55469-0.78125-0.73438-0.32422-0.17578-0.69531-0.26562-1.1094-0.26562-1.0234 0-1.8242 0.39844-2.4062 1.1875-0.58594 0.78125-0.875 1.8711-0.875 3.2656v7.5312h-4.8906v-21.281h4.8906v8.2031c0.73828-0.88281 1.5195-1.5391 2.3438-1.9688 0.83203-0.42578 1.75-0.64062 2.75-0.64062 1.7695 0 3.1133 0.54688 4.0312 1.6406 0.91406 1.0859 1.375 2.6562 1.375 4.7188z"/>
  </symbol>
  <symbol id="o" overflow="visible">
   <path d="m2.5781-20.406h5.875l7.4219 14v-14h4.9844v20.406h-5.875l-7.4219-14v14h-4.9844z"/>
  </symbol>
  <symbol id="n" overflow="visible">
   <path d="m2.1875-5.9688v-9.3438h4.9219v1.5312c0 0.83594-0.007813 1.875-0.015625 3.125-0.011719 1.25-0.015625 2.0859-0.015625 2.5 0 1.2422 0.03125 2.1328 0.09375 2.6719 0.070313 0.54297 0.17969 0.93359 0.32812 1.1719 0.20703 0.32422 0.47266 0.57422 0.79688 0.75 0.32031 0.16797 0.69141 0.25 1.1094 0.25 1.0195 0 1.8203-0.39062 2.4062-1.1719 0.58203-0.78125 0.875-1.8672 0.875-3.2656v-7.5625h4.8906v15.312h-4.8906v-2.2188c-0.74219 0.89844-1.5234 1.5586-2.3438 1.9844-0.82422 0.41406-1.7344 0.625-2.7344 0.625-1.7617 0-3.1055-0.53906-4.0312-1.625-0.92969-1.082-1.3906-2.6602-1.3906-4.7344z"/>
  </symbol>
  <symbol id="m" overflow="visible">
   <path d="m17.75-9.3281v9.3281h-4.9219v-7.1406c0-1.3203-0.03125-2.2344-0.09375-2.7344s-0.16797-0.86719-0.3125-1.1094c-0.1875-0.3125-0.44922-0.55469-0.78125-0.73438-0.32422-0.17578-0.69531-0.26562-1.1094-0.26562-1.0234 0-1.8242 0.39844-2.4062 1.1875-0.58594 0.78125-0.875 1.8711-0.875 3.2656v7.5312h-4.8906v-15.312h4.8906v2.2344c0.73828-0.88281 1.5195-1.5391 2.3438-1.9688 0.83203-0.42578 1.75-0.64062 2.75-0.64062 1.7695 0 3.1133 0.54688 4.0312 1.6406 0.91406 1.0859 1.375 2.6562 1.375 4.7188z"/>
  </symbol>
  <symbol id="l" overflow="visible">
   <path d="m2.5781-20.406h8.7344c2.5938 0 4.582 0.57812 5.9688 1.7344 1.3945 1.1484 2.0938 2.7891 2.0938 4.9219 0 2.1367-0.69922 3.7812-2.0938 4.9375-1.3867 1.1562-3.375 1.7344-5.9688 1.7344h-3.4844v7.0781h-5.25zm5.25 3.8125v5.7031h2.9219c1.0195 0 1.8047-0.25 2.3594-0.75 0.5625-0.5 0.84375-1.2031 0.84375-2.1094 0-0.91406-0.28125-1.6172-0.84375-2.1094-0.55469-0.48828-1.3398-0.73438-2.3594-0.73438z"/>
  </symbol>
  <symbol id="k" overflow="visible">
   <path d="m2.3594-15.312h4.8906v15.031c0 2.0508-0.49609 3.6172-1.4844 4.7031-0.98047 1.082-2.4062 1.625-4.2812 1.625h-2.4219v-3.2188h0.85938c0.92578 0 1.5625-0.21094 1.9062-0.625 0.35156-0.41797 0.53125-1.2461 0.53125-2.4844zm0-5.9688h4.8906v4h-4.8906z"/>
  </symbol>
  <symbol id="j" overflow="visible">
   <path d="m14.719-14.828v3.9844c-0.65625-0.45703-1.3242-0.79688-2-1.0156-0.66797-0.21875-1.3594-0.32812-2.0781-0.32812-1.3672 0-2.4336 0.40234-3.2031 1.2031-0.76172 0.79297-1.1406 1.9062-1.1406 3.3438 0 1.4297 0.37891 2.543 1.1406 3.3438 0.76953 0.79297 1.8359 1.1875 3.2031 1.1875 0.75781 0 1.4844-0.10938 2.1719-0.32812 0.6875-0.22656 1.3203-0.56641 1.9062-1.0156v4c-0.76172 0.28125-1.5391 0.48828-2.3281 0.625-0.78125 0.14453-1.5742 0.21875-2.375 0.21875-2.7617 0-4.9219-0.70703-6.4844-2.125-1.5547-1.4141-2.3281-3.3828-2.3281-5.9062 0-2.5312 0.77344-4.5039 2.3281-5.9219 1.5625-1.4141 3.7227-2.125 6.4844-2.125 0.80078 0 1.5938 0.074219 2.375 0.21875 0.78125 0.13672 1.5547 0.35156 2.3281 0.64062z"/>
  </symbol>
 </defs>
 <g>
  <path d="m391.69 503.57c1.8359 0 3.6406-0.90234 4.7148-2.5664 1.6758-2.5977 0.92578-6.0664-1.6758-7.7461-95.23-61.402-194.69-89.695-261.37-102.61-3.0625-0.59766-5.9688 1.3984-6.5625 4.4297-0.58984 3.0352 1.3945 5.9766 4.4297 6.5625 65.699 12.734 163.7 40.602 257.43 101.04 0.9375 0.59766 1.9922 0.89062 3.0273 0.89062z"/>
  <path d="m133.64 438.95c-3.0078-0.72266-6.043 1.082-6.7812 4.0898-0.74609 3 1.0859 6.0352 4.0898 6.7812 52.551 12.992 102.74 31.031 149.17 53.613 0.78516 0.38672 1.625 0.56641 2.4453 0.56641 2.0781 0 4.0781-1.1602 5.0391-3.1484 1.3477-2.7812 0.19141-6.1328-2.5859-7.4883-47.137-22.926-98.062-41.234-151.38-54.414z"/>
  <path d="m574.7 264.58c-0.11328-3.0977-2.957-5.5664-5.7969-5.3945-0.42578 0.015625-24.371 1.0039-62.539 7.4688v-27.676c1.3008 0.085937 2.7344 0.15234 4.3906 0.15234 8.7695 0 21.734-1.6641 30.297-10.227 13.707-13.707 9.7383-38.645 9.5664-39.703-0.39062-2.3633-2.2383-4.2109-4.6016-4.6016-1.043-0.17187-25.93-4.1328-39.648 9.5156l-0.003906-20.238c1.0586 0.054688 2.2188 0.089844 3.4766 0.089844 8.7656 0 21.723-1.668 30.285-10.23 13.703-13.703 9.7383-38.645 9.5664-39.703-0.39062-2.3633-2.2383-4.2109-4.6016-4.6016-1.0312-0.17188-24.852-3.9102-38.723 8.7031v-3.2461c5.5625-4.5938 18.969-17.305 18.969-33.008 0-19.387-20.434-34.215-21.312-34.844-1.9492-1.3906-4.5586-1.3906-6.5078 0-0.875 0.62109-21.312 15.457-21.312 34.844 0 15.703 13.406 28.41 18.969 33.008v25.621c-0.26953-0.29297-0.5-0.60547-0.77734-0.88672-13.707-13.707-38.652-9.7383-39.703-9.5664-2.3633 0.39062-4.2109 2.2383-4.6016 4.6016-0.17188 1.0547-4.1367 26 9.5664 39.703 8.5625 8.5664 21.52 10.23 30.285 10.23 2.043 0 3.7539-0.10156 5.2344-0.21094v20.273c-13.738-13.539-38.512-9.6133-39.555-9.4375-2.3633 0.39062-4.2109 2.2383-4.6016 4.6016-0.17188 1.0547-4.1367 25.996 9.5703 39.703 8.5625 8.5664 21.527 10.23 30.297 10.227 1.6133 0 3.0195-0.0625 4.2969-0.14453v9.0273c-29.301 5.4258-65.488 13.898-105.18 27.121-5.1641 1.0195-10.426 2.7383-15.309 5.3633-0.18359 0.042968-0.37109 0.011718-0.55469 0.078124-4.1562 1.4727-8.2383 3.1211-12.363 4.6641v-30.016c1.9805 0.15234 4.3867 0.26953 7.0859 0.26953 11.781 0 29.098-2.2227 40.465-13.59 18.258-18.262 12.918-51.84 12.684-53.262-0.39062-2.3633-2.2383-4.2109-4.6016-4.6016-1.4219-0.23047-35.012-5.582-53.262 12.68-0.85547 0.85547-1.6055 1.7734-2.3633 2.6875v-10.969c6.8477-5.4922 26.355-23.051 26.355-44.816 0-25.816-27.523-45.797-28.695-46.633-1.9609-1.3906-4.5586-1.3906-6.5195 0-1.1719 0.83594-28.688 20.816-28.688 46.633 0 21.762 19.504 39.324 26.348 44.816v42.953c-1.3945-2.1172-2.9531-4.1562-4.8008-6.0078-18.258-18.262-51.84-12.918-53.262-12.684-2.3633 0.39063-4.2109 2.2383-4.6016 4.6016-0.23437 1.4219-5.5781 35.004 12.684 53.262 11.363 11.367 28.668 13.59 40.461 13.59 3.9531 0 7.2461-0.25391 9.5273-0.48828v5.8008c-10.852 4.2578-21.594 8.6758-32.055 13.355-0.14062 0.0625-0.23047 0.18359-0.36328 0.25781-12.652-1.7188-23.566 0.023437-24.359 0.15234-2.3633 0.39063-4.2109 2.2383-4.6016 4.6016-0.027343 0.17188-0.13281 0.85156-0.26953 1.9219-27.719-8.2617-53.34-14.234-75.488-18.547l-0.027344-37.43c1.793 0.14453 3.9922 0.25781 6.5 0.25781 10.375 0 25.637-1.9609 35.688-12.012 16.121-16.117 11.426-45.652 11.219-46.898-0.39062-2.3633-2.2383-4.2109-4.6016-4.6016-1.2539-0.20312-30.777-4.8984-46.895 11.223-0.6875 0.6875-1.293 1.4336-1.9102 2.1719v-28.684c1.5742 0.10156 3.3711 0.17969 5.3867 0.17969 10.375 0 25.633-1.9609 35.684-12.012 16.129-16.117 11.43-45.652 11.223-46.898-0.39062-2.3633-2.2383-4.2109-4.6016-4.6016-1.25-0.20313-30.781-4.8945-46.898 11.223-0.28516 0.28516-0.51562 0.60547-0.78906 0.89453v-7.2188c6.2539-5.0859 22.883-20.355 22.883-39.285 0-22.797-24.191-40.355-25.223-41.094-1.9609-1.3906-4.5625-1.3906-6.5117 0-1.0352 0.73828-25.234 18.297-25.234 41.094 0 18.922 16.621 34.195 22.887 39.277v34.574c-0.89062-1.1719-1.8555-2.2969-2.918-3.3594-16.121-16.121-45.641-11.418-46.898-11.219-2.3633 0.39062-4.2109 2.2383-4.6016 4.6016-0.20703 1.25-4.9062 30.777 11.223 46.895 10.059 10.059 25.324 12.02 35.695 12.02 2.9961 0 5.5664-0.16406 7.5039-0.34766v28.719c-0.58203-0.6875-1.1484-1.3945-1.7969-2.043-16.117-16.117-45.641-11.418-46.895-11.219-2.3633 0.39062-4.2109 2.2383-4.6016 4.6016-0.20703 1.25-4.9062 30.773 11.219 46.895 10.051 10.059 25.316 12.02 35.688 12.02 2.4531 0 4.6211-0.11328 6.3945-0.25391v10.438c-42.184-7.5781-69.234-8.832-69.664-8.8477-3.0586-0.17188-5.6992 2.2617-5.8281 5.3594-0.12891 3.0898 2.2695 5.6992 5.3594 5.8281 0.67578 0.027343 67.895 3.1641 156.21 29.82 0.078125 11.77 2.4023 28.656 13.574 39.828 11.367 11.367 28.672 13.59 40.461 13.59 3.2578 0 6.0664-0.17188 8.2422-0.36328v12.84c-85.934-39.629-166.95-56.316-217.52-63.281-3.1289-0.47656-5.8984 1.7188-6.3125 4.7812-0.42578 3.0625 1.7188 5.8906 4.7812 6.3125 76.609 10.566 224.03 43.668 350.69 146.72 1.043 0.84375 2.2852 1.2617 3.5273 1.2617 1.6289 0 3.2422-0.70703 4.3438-2.0664 1.9531-2.3984 1.5898-5.9258-0.8125-7.875-41.383-33.672-84.926-59.965-127.55-80.543v-44.844c79.398 33.152 147.81 78.07 203.41 133.68 1.0938 1.0938 2.5273 1.6406 3.9609 1.6406 1.4336 0 2.8672-0.54687 3.9609-1.6406 2.1914-2.1914 2.1914-5.7305 0-7.918-23.145-23.152-48.484-44.453-75.836-63.891 23.793-8.418 48.344-15.848 73.227-21.996 3-0.74609 4.832-3.7812 4.0898-6.7812-0.74609-3-3.793-4.8164-6.7812-4.0898-27.871 6.8945-55.395 15.316-81.867 24.988-13.688-9.2773-27.871-18.09-42.516-26.438 40.797-15.359 83.383-27.434 126.8-35.852 3.0352-0.58203 5.0195-3.5273 4.4297-6.5625-0.58984-3.0312-3.5039-5.0586-6.5625-4.4297-47.176 9.1445-93.406 22.508-137.45 39.723-15.137-8.1992-30.766-15.898-46.848-23.117 8.8086-1.4453 18.16-4.6992 25.465-11.312 65.359-24.039 123.43-35.207 160.66-40.344 3.0625-0.42188 5.207-3.2461 4.7812-6.3125-0.41406-3.0625-3.1797-5.2539-6.3125-4.7812-35.027 4.8281-88.219 14.934-148.6 35.801 6.8711-17.555 3.707-37.711 3.5234-38.801-0.14453-0.88672-0.54688-1.6523-1.0547-2.3477 84.312-24.477 146.42-27.055 147.1-27.074 3.0859-0.12109 5.5039-2.7188 5.3867-5.8125zm-60.477-62.5c6.9102-6.9102 19.254-7.2422 25.738-6.8477 0.36328 6.4805 0.035157 18.891-6.832 25.754-6.9062 6.9102-19.281 7.2227-25.738 6.8477-0.35547-6.4844-0.019531-18.895 6.832-25.754zm-0.92188-65.168c6.9062-6.9062 19.285-7.2188 25.738-6.8477 0.35938 6.4805 0.027344 18.895-6.832 25.754-6.9102 6.9102-19.242 7.2539-25.738 6.8477-0.36328-6.4766-0.027344-18.887 6.832-25.754zm-19.988 46.367c-6.4688 0.375-18.883 0.035156-25.754-6.832-6.9141-6.9141-7.2305-19.281-6.8477-25.754 6.457-0.37109 18.828-0.066406 25.754 6.8477 6.9141 6.9141 7.2305 19.266 6.8477 25.738zm0.92969 65.164c-6.4922 0.33984-18.895 0.023438-25.754-6.832-6.9102-6.9102-7.2305-19.266-6.8555-25.738 6.457-0.375 18.891-0.027344 25.754 6.832 6.918 6.9141 7.2305 19.262 6.8555 25.738zm-6.8477-156.56c0-9.7812 8.5195-18.754 13.367-23.055 4.8438 4.3047 13.367 13.273 13.367 23.055s-8.5195 18.75-13.367 23.051c-4.8438-4.3047-13.367-13.27-13.367-23.051zm-115.37 133.38c10.941-10.938 30.793-10.684 39.363-10.008 0.71094 8.5742 0.96875 28.363-10.02 39.355-10.949 10.949-30.766 10.703-39.367 10.012-0.14453-1.7461-0.24219-4.043-0.25781-6.5586v-2.0898c0.19141-9.6602 2.1523-22.586 10.281-30.711zm-36.629-61.023c0-15.484 14.191-29.34 20.754-34.914 6.5703 5.5625 20.746 19.375 20.746 34.914 0 15.477-14.184 29.328-20.754 34.906-6.5625-5.5781-20.746-19.426-20.746-34.906zm12.438 129.04c-8.5742 0.69531-28.414 0.92969-39.355-10.012-10.941-10.941-10.707-30.766-10.012-39.355 8.5898-0.67578 28.414-0.92969 39.355 10.012 10.941 10.941 10.707 30.766 10.012 39.355zm-124.61-63c9.0547-9.0508 25.375-9.0781 33.012-8.5273 0.65625 8.8633-0.11328 24.523-8.5625 32.977-9.0547 9.0508-25.391 9.0898-33.02 8.5234-0.65234-8.8633 0.12109-24.516 8.5703-32.973zm-22.207 57.867c-7.6289 0.55859-23.941 0.50781-32.977-8.5273-9.0508-9.0508-9.082-25.379-8.5234-33.012 8.8633-0.66016 24.516 0.11719 32.973 8.5625 9.0312 9.043 9.0781 25.332 8.5273 32.977zm21.086-136.49c9.043-9.0391 25.344-9.0898 32.977-8.5273 0.55859 7.6445 0.50781 23.934-8.5273 32.977-9.0508 9.0547-25.387 9.0781-33.012 8.5234-0.066407-0.94141-0.11328-1.9922-0.14062-3.0742v-3.1133c0.14062-8.8008 1.9727-20.055 8.7031-26.785zm-31.586-53.527c0-12.801 11.523-24.371 17.316-29.371 6.7305 5.8008 17.254 17.414 17.254 29.371 0 12.809-11.523 24.375-17.309 29.379-6.7422-5.8008-17.262-17.414-17.262-29.379zm9.3711 111.39c-7.6445 0.56641-23.93 0.5-32.973-8.5273-9.0547-9.0547-9.0898-25.379-8.5273-33.012 8.8633-0.66016 24.516 0.11328 32.977 8.5625 9.0391 9.043 9.0859 25.332 8.5234 32.977zm202.76 135.63c-10.938 10.941-30.781 10.695-39.363 10.008-0.71094-8.5742-0.96875-28.363 10.02-39.355 10.949-10.938 30.766-10.695 39.367-10.012 0.70312 8.5742 0.96875 28.363-10.023 39.359zm-52.109-23.09v18.598c-1.0703-1.4336-2.2188-2.8242-3.5117-4.1172-3.4648-3.4727-7.4922-6.082-11.742-8.043 5.0742-2.1602 10.09-4.3789 15.254-6.4375zm-1.4219 61.758c-8.5781 0.69531-28.414 0.92969-39.355-10.012s-10.707-30.777-10.012-39.367c8.5859-0.69531 28.371-0.95703 39.363 10.023 10.934 10.938 10.699 30.762 10.004 39.355z"/>
 </g>
</svg>
