<?xml version="1.0" encoding="UTF-8"?>
<svg width="700pt" height="700pt" version="1.1" viewBox="0 0 700 700" xmlns="http://www.w3.org/2000/svg" xmlns:xlink="http://www.w3.org/1999/xlink">
 <defs>
  <symbol id="t" overflow="visible">
   <path d="m3.6562-0.21875c-0.1875 0.09375-0.38672 0.16797-0.59375 0.21875-0.19922 0.050781-0.40625 0.078125-0.625 0.078125-0.66797 0-1.1992-0.17969-1.5938-0.54688-0.38672-0.375-0.57812-0.87891-0.57812-1.5156 0-0.64453 0.19141-1.1484 0.57812-1.5156 0.39453-0.375 0.92578-0.5625 1.5938-0.5625 0.21875 0 0.42578 0.027344 0.625 0.078125 0.20703 0.054687 0.40625 0.125 0.59375 0.21875v0.82812c-0.1875-0.125-0.375-0.21875-0.5625-0.28125-0.17969-0.0625-0.37109-0.09375-0.57812-0.09375-0.36719 0-0.65625 0.12109-0.875 0.35938-0.21094 0.23047-0.3125 0.55469-0.3125 0.96875 0 0.40625 0.10156 0.73047 0.3125 0.96875 0.21875 0.23047 0.50781 0.34375 0.875 0.34375 0.20703 0 0.39844-0.023437 0.57812-0.078125 0.1875-0.0625 0.375-0.16016 0.5625-0.29688z"/>
  </symbol>
  <symbol id="d" overflow="visible">
   <path d="m2.6875-2.1719c-0.085938-0.039063-0.16797-0.070313-0.25-0.09375-0.085938-0.019531-0.16797-0.03125-0.25-0.03125-0.25 0-0.44531 0.085937-0.57812 0.25-0.125 0.15625-0.1875 0.38281-0.1875 0.67188v1.375h-0.96875v-2.9844h0.96875v0.48438c0.11328-0.19531 0.25-0.33594 0.40625-0.42188 0.16406-0.09375 0.35938-0.14062 0.57812-0.14062h0.10938c0.039063 0 0.09375 0.007812 0.15625 0.015625z"/>
  </symbol>
  <symbol id="a" overflow="visible">
   <path d="m3.4375-1.5v0.26562h-2.2344c0.03125 0.23047 0.11328 0.40234 0.25 0.51562 0.13281 0.10547 0.32812 0.15625 0.57812 0.15625 0.20703 0 0.41406-0.023438 0.625-0.078125 0.20703-0.0625 0.42188-0.15625 0.64062-0.28125v0.73438c-0.21875 0.09375-0.44531 0.16406-0.67188 0.20312-0.23047 0.039062-0.45312 0.0625-0.67188 0.0625-0.54297 0-0.96484-0.13281-1.2656-0.40625-0.30469-0.28125-0.45312-0.67188-0.45312-1.1719 0-0.47656 0.14453-0.85938 0.4375-1.1406 0.30078-0.28125 0.70703-0.42188 1.2188-0.42188 0.46875 0 0.84375 0.14062 1.125 0.42188s0.42188 0.66406 0.42188 1.1406zm-0.96875-0.32812c0-0.17578-0.058594-0.31641-0.17188-0.42188-0.10547-0.11328-0.24219-0.17188-0.40625-0.17188-0.1875 0-0.33984 0.054687-0.45312 0.15625-0.11719 0.10547-0.1875 0.25-0.21875 0.4375z"/>
  </symbol>
  <symbol id="k" overflow="visible">
   <path d="m1.7969-1.3438c-0.19922 0-0.35156 0.039062-0.45312 0.10938-0.09375 0.0625-0.14062 0.16406-0.14062 0.29688 0 0.11719 0.035156 0.21094 0.10938 0.28125 0.082031 0.0625 0.19531 0.09375 0.34375 0.09375 0.17578 0 0.32812-0.0625 0.45312-0.1875s0.1875-0.28516 0.1875-0.48438v-0.10938zm1.4688-0.35938v1.7031h-0.96875v-0.4375c-0.125 0.17969-0.27344 0.30859-0.4375 0.39062-0.15625 0.082031-0.35156 0.125-0.57812 0.125-0.3125 0-0.57031-0.085938-0.76562-0.26562-0.1875-0.1875-0.28125-0.42188-0.28125-0.70312 0-0.35156 0.11719-0.61328 0.35938-0.78125 0.23828-0.16406 0.61719-0.25 1.1406-0.25h0.5625v-0.0625c0-0.15625-0.0625-0.26562-0.1875-0.32812-0.11719-0.070312-0.29688-0.10938-0.54688-0.10938-0.21094 0-0.40234 0.023437-0.57812 0.0625-0.17969 0.042969-0.33984 0.10156-0.48438 0.17188v-0.71875c0.19531-0.050781 0.39844-0.085938 0.60938-0.10938 0.20703-0.03125 0.41406-0.046875 0.625-0.046875 0.53906 0 0.92969 0.10938 1.1719 0.32812 0.23828 0.21094 0.35938 0.55469 0.35938 1.0312z"/>
  </symbol>
  <symbol id="c" overflow="visible">
   <path d="m1.5-3.8438v0.85938h0.98438v0.67188h-0.98438v1.2812c0 0.13672 0.023438 0.23047 0.078125 0.28125 0.0625 0.042969 0.17578 0.0625 0.34375 0.0625h0.48438v0.6875h-0.8125c-0.38672 0-0.65625-0.078125-0.8125-0.23438s-0.23438-0.42188-0.23438-0.79688v-1.2812h-0.46875v-0.67188h0.46875v-0.85938z"/>
  </symbol>
  <symbol id="j" overflow="visible">
   <path d="m2.5-2.5469v-1.6094h0.95312v4.1562h-0.95312v-0.4375c-0.13672 0.17969-0.28125 0.30859-0.4375 0.39062-0.15625 0.082031-0.33984 0.125-0.54688 0.125-0.375 0-0.68359-0.14453-0.92188-0.4375-0.23047-0.28906-0.34375-0.67188-0.34375-1.1406 0-0.45703 0.11328-0.83203 0.34375-1.125 0.23828-0.28906 0.54688-0.4375 0.92188-0.4375 0.19531 0 0.375 0.042969 0.53125 0.125 0.16406 0.085938 0.31641 0.21484 0.45312 0.39062zm-0.64062 1.9375c0.20703 0 0.36328-0.070313 0.46875-0.21875 0.11328-0.15625 0.17188-0.37891 0.17188-0.67188 0-0.28125-0.058594-0.49219-0.17188-0.64062-0.10547-0.15625-0.26172-0.23438-0.46875-0.23438-0.19922 0-0.35547 0.078125-0.46875 0.23438-0.10547 0.14844-0.15625 0.35938-0.15625 0.64062 0 0.29297 0.050781 0.51562 0.15625 0.67188 0.11328 0.14844 0.26953 0.21875 0.46875 0.21875z"/>
  </symbol>
  <symbol id="i" overflow="visible">
   <path d="m2.0469-0.60938c0.20703 0 0.36328-0.070313 0.46875-0.21875 0.11328-0.15625 0.17188-0.37891 0.17188-0.67188 0-0.28125-0.058594-0.49219-0.17188-0.64062-0.10547-0.15625-0.26172-0.23438-0.46875-0.23438-0.19922 0-0.35547 0.078125-0.46875 0.23438-0.10547 0.14844-0.15625 0.35938-0.15625 0.64062 0 0.29297 0.050781 0.51562 0.15625 0.67188 0.11328 0.14844 0.26953 0.21875 0.46875 0.21875zm-0.625-1.9375c0.125-0.17578 0.26562-0.30469 0.42188-0.39062 0.16406-0.082031 0.35156-0.125 0.5625-0.125 0.36328 0 0.66406 0.14844 0.90625 0.4375 0.23828 0.29297 0.35938 0.66797 0.35938 1.125 0 0.46875-0.12109 0.85156-0.35938 1.1406-0.24219 0.29297-0.54297 0.4375-0.90625 0.4375-0.21094 0-0.39844-0.042969-0.5625-0.125-0.15625-0.082031-0.29688-0.21094-0.42188-0.39062v0.4375h-0.96875v-4.1562h0.96875z"/>
  </symbol>
  <symbol id="h" overflow="visible">
   <path d="m0.0625-2.9844h0.95312l0.8125 2.0156 0.6875-2.0156h0.95312l-1.2656 3.2656c-0.125 0.33203-0.27344 0.56641-0.4375 0.70312-0.16797 0.13281-0.39062 0.20312-0.67188 0.20312h-0.54688v-0.64062h0.29688c0.16406 0 0.28516-0.027344 0.35938-0.078125 0.070313-0.054688 0.12891-0.14062 0.17188-0.26562l0.03125-0.09375z"/>
  </symbol>
  <symbol id="e" overflow="visible">
   <path d="m3.2344-2.5c0.11328-0.17578 0.25391-0.3125 0.42188-0.40625 0.16406-0.10156 0.35156-0.15625 0.5625-0.15625 0.33203 0 0.58594 0.10938 0.76562 0.32812 0.1875 0.21094 0.28125 0.51172 0.28125 0.90625v1.8281h-0.96875v-1.5625c0.007813-0.019531 0.015625-0.039062 0.015625-0.0625v-0.10938c0-0.21875-0.03125-0.375-0.09375-0.46875s-0.16406-0.14062-0.29688-0.14062c-0.1875 0-0.33594 0.078125-0.4375 0.23438-0.09375 0.14844-0.14062 0.35938-0.14062 0.64062v1.4688h-0.96875v-1.5625c0-0.33203-0.03125-0.54688-0.09375-0.64062-0.054688-0.09375-0.15234-0.14062-0.29688-0.14062-0.17969 0-0.32031 0.078125-0.42188 0.23438-0.09375 0.14844-0.14062 0.35938-0.14062 0.64062v1.4688h-0.96875v-2.9844h0.96875v0.4375c0.11328-0.17578 0.24219-0.30469 0.39062-0.39062 0.15625-0.082031 0.32812-0.125 0.51562-0.125 0.20703 0 0.39062 0.054688 0.54688 0.15625 0.15625 0.09375 0.27344 0.23047 0.35938 0.40625z"/>
  </symbol>
  <symbol id="b" overflow="visible">
   <path d="m1.875-2.375c-0.21094 0-0.37109 0.078125-0.48438 0.23438-0.10547 0.14844-0.15625 0.35938-0.15625 0.64062 0 0.29297 0.050781 0.51562 0.15625 0.67188 0.11328 0.14844 0.27344 0.21875 0.48438 0.21875 0.20703 0 0.36719-0.070313 0.48438-0.21875 0.11328-0.15625 0.17188-0.37891 0.17188-0.67188 0-0.28125-0.058594-0.49219-0.17188-0.64062-0.11719-0.15625-0.27734-0.23438-0.48438-0.23438zm0-0.6875c0.51953 0 0.92188 0.14062 1.2031 0.42188 0.28906 0.27344 0.4375 0.65234 0.4375 1.1406 0 0.5-0.14844 0.89062-0.4375 1.1719-0.28125 0.27344-0.68359 0.40625-1.2031 0.40625-0.51172 0-0.91406-0.13281-1.2031-0.40625-0.29297-0.28125-0.4375-0.67188-0.4375-1.1719 0-0.48828 0.14453-0.86719 0.4375-1.1406 0.28906-0.28125 0.69141-0.42188 1.2031-0.42188z"/>
  </symbol>
  <symbol id="g" overflow="visible">
   <path d="m3.4688-1.8281v1.8281h-0.96875v-1.3906c0-0.25781-0.007812-0.4375-0.015625-0.53125-0.011719-0.10156-0.03125-0.17578-0.0625-0.21875-0.03125-0.0625-0.085937-0.10938-0.15625-0.14062-0.0625-0.039062-0.13281-0.0625-0.20312-0.0625-0.21094 0-0.37109 0.078125-0.48438 0.23438-0.10547 0.15625-0.15625 0.37109-0.15625 0.64062v1.4688h-0.96875v-2.9844h0.96875v0.4375c0.13281-0.17578 0.28516-0.30469 0.45312-0.39062 0.16406-0.082031 0.34375-0.125 0.53125-0.125 0.34375 0 0.60156 0.10938 0.78125 0.32812 0.1875 0.21094 0.28125 0.51172 0.28125 0.90625z"/>
  </symbol>
  <symbol id="f" overflow="visible">
   <path d="m0.45312-4.1562h0.96875v2.2656l1.0938-1.0938h1.1094l-1.4531 1.3594 1.5625 1.625h-1.1562l-1.1562-1.25v1.25h-0.96875z"/>
  </symbol>
  <symbol id="s" overflow="visible">
   <path d="m0.45312-2.9844h0.96875v2.9844h-0.96875zm0-1.1719h0.96875v0.78125h-0.96875z"/>
  </symbol>
  <symbol id="r" overflow="visible">
   <path d="m2.4219-4.1562v0.625h-0.51562c-0.13672 0-0.23438 0.027344-0.29688 0.078125-0.054687 0.054687-0.078125 0.13672-0.078125 0.25v0.21875h0.82812v0.67188h-0.82812v2.3125h-0.95312v-2.3125h-0.46875v-0.67188h0.46875v-0.21875c0-0.32031 0.085937-0.5625 0.26562-0.71875 0.1875-0.15625 0.47266-0.23438 0.85938-0.23438z"/>
  </symbol>
  <symbol id="q" overflow="visible">
   <path d="m3.4688-1.8281v1.8281h-0.96875v-1.3906c0-0.25781-0.007812-0.4375-0.015625-0.53125-0.011719-0.10156-0.03125-0.17578-0.0625-0.21875-0.03125-0.0625-0.085937-0.10938-0.15625-0.14062-0.0625-0.039062-0.13281-0.0625-0.20312-0.0625-0.21094 0-0.37109 0.078125-0.48438 0.23438-0.10547 0.15625-0.15625 0.37109-0.15625 0.64062v1.4688h-0.96875v-4.1562h0.96875v1.6094c0.13281-0.17578 0.28516-0.30469 0.45312-0.39062 0.16406-0.082031 0.34375-0.125 0.53125-0.125 0.34375 0 0.60156 0.10938 0.78125 0.32812 0.1875 0.21094 0.28125 0.51172 0.28125 0.90625z"/>
  </symbol>
  <symbol id="p" overflow="visible">
   <path d="m0.5-3.9844h1.1562l1.4375 2.7344v-2.7344h0.98438v3.9844h-1.1562l-1.4375-2.7344v2.7344h-0.98438z"/>
  </symbol>
  <symbol id="o" overflow="visible">
   <path d="m0.42188-1.1719v-1.8125h0.96875v0.29688 0.60938 0.48438c0 0.24219 0.003906 0.41797 0.015625 0.53125 0.007812 0.10547 0.03125 0.17969 0.0625 0.21875 0.039062 0.0625 0.09375 0.11719 0.15625 0.15625 0.0625 0.03125 0.13281 0.046875 0.21875 0.046875 0.19531 0 0.35156-0.078125 0.46875-0.23438 0.11328-0.15625 0.17188-0.36719 0.17188-0.64062v-1.4688h0.95312v2.9844h-0.95312v-0.4375c-0.14844 0.17969-0.30469 0.30859-0.46875 0.39062-0.15625 0.082031-0.33594 0.125-0.53125 0.125-0.34375 0-0.60938-0.10156-0.79688-0.3125-0.17969-0.21875-0.26562-0.53125-0.26562-0.9375z"/>
  </symbol>
  <symbol id="n" overflow="visible">
   <path d="m0.5-3.9844h1.7031c0.50781 0 0.89844 0.11719 1.1719 0.34375 0.26953 0.21875 0.40625 0.53906 0.40625 0.95312 0 0.41797-0.13672 0.74219-0.40625 0.96875-0.27344 0.21875-0.66406 0.32812-1.1719 0.32812h-0.67188v1.3906h-1.0312zm1.0312 0.75v1.1094h0.5625c0.19531 0 0.34766-0.046875 0.45312-0.14062 0.11328-0.10156 0.17188-0.24219 0.17188-0.42188 0-0.17578-0.058594-0.3125-0.17188-0.40625-0.10547-0.09375-0.25781-0.14062-0.45312-0.14062z"/>
  </symbol>
  <symbol id="m" overflow="visible">
   <path d="m0.45312-2.9844h0.96875v2.9375c0 0.39453-0.10156 0.69531-0.29688 0.90625-0.1875 0.21875-0.46484 0.32812-0.82812 0.32812h-0.48438v-0.64062h0.17188c0.17578 0 0.29688-0.042969 0.35938-0.125 0.070312-0.074219 0.10938-0.23047 0.10938-0.46875zm0-1.1719h0.96875v0.78125h-0.96875z"/>
  </symbol>
  <symbol id="l" overflow="visible">
   <path d="m2.875-2.8906v0.76562c-0.125-0.082031-0.25781-0.14453-0.39062-0.1875-0.13672-0.039062-0.27344-0.0625-0.40625-0.0625-0.27344 0-0.48047 0.078125-0.625 0.23438-0.14844 0.15625-0.21875 0.37109-0.21875 0.64062 0 0.28125 0.070313 0.5 0.21875 0.65625 0.14453 0.15625 0.35156 0.23438 0.625 0.23438 0.14453 0 0.28516-0.019531 0.42188-0.0625 0.13281-0.039063 0.25781-0.10938 0.375-0.20312v0.78125c-0.14844 0.0625-0.29688 0.10156-0.45312 0.125-0.15625 0.03125-0.3125 0.046875-0.46875 0.046875-0.54297 0-0.96484-0.13281-1.2656-0.40625-0.30469-0.28125-0.45312-0.67188-0.45312-1.1719 0-0.48828 0.14844-0.86719 0.45312-1.1406 0.30078-0.28125 0.72266-0.42188 1.2656-0.42188 0.15625 0 0.3125 0.015625 0.46875 0.046875 0.15625 0.023437 0.30469 0.0625 0.45312 0.125z"/>
  </symbol>
 </defs>
 <g>
  <path d="m603.75 428.75h-52.258c0.88281-2.0117 1.75-4.0352 2.6016-6.0703h0.003906c15.484-37.297 23.438-77.293 23.402-117.68v-7.5039c0.0625-23.219-9.168-45.496-25.629-61.871-4.0547-4.0508-8.4922-7.6992-13.254-10.887l-9.7344 14.539c3.8125 2.5547 7.3633 5.4766 10.609 8.7227 14.09 14.078 21.508 33.496 20.395 53.383s-10.656 38.352-26.23 50.77c-0.55859-7.7188-4.0156-14.938-9.6797-20.207-5.668-5.2695-13.113-8.1992-20.852-8.1992h-0.75l11.312-11.312c5.9375-5.9531 9.4219-13.918 9.7617-22.316 0.34375-8.3984-2.4805-16.621-7.9141-23.039 6.2266-12.266 9.4688-25.828 9.4648-39.582 0-1.4258-0.039062-2.9648-0.11719-4.7031-0.007812-0.18359-0.023437-0.36719-0.042968-0.54688-1.2383-20.586-9.7109-40.074-23.918-55.027-14.211-14.949-33.242-24.398-53.738-26.684-20.5-2.2852-41.145 2.7461-58.297 14.199l9.7344 14.539v0.003906c13.758-9.1836 30.32-13.199 46.758-11.332 16.434 1.8633 31.676 9.4844 43.027 21.516s18.078 27.691 18.984 44.207c0.007813 0.125 0.015625 0.24609 0.027344 0.37109 0.054687 1.2812 0.078125 2.418 0.078125 3.457h0.003906c0.003906 10.223-2.2344 20.324-6.5547 29.59-6.5508-2.2656-13.641-2.4453-20.297-0.51562 0.023437-0.03125 0.046874-0.0625 0.066406-0.09375v-0.003907c8.7422-12.996 11.195-29.227 6.6914-44.23-4.5078-15-15.504-27.191-29.961-33.219-14.457-6.0273-30.855-5.2578-44.684 2.0977s-23.633 20.523-26.711 35.883c-3.0352 15.688 1.1094 31.906 11.293 44.219-2.3672 4.4297-3.6016 9.375-3.5938 14.398v6.3086c-17.863-14.867-28.336-39.016-25.82-62.223 1.5781-14.461 7.6641-28.059 17.391-38.875l-13.039-11.672c-10.363 11.535-17.449 25.637-20.516 40.836h-36.766v-39.375c0-10.5-5.3789-20.27-14.254-25.883-8.875-5.6133-20.008-6.2891-29.496-1.7891v-16.078c0-10.5-5.3789-20.27-14.254-25.883-8.875-5.6133-20.008-6.2891-29.496-1.7891v-16.078c0-10.941-5.8359-21.051-15.312-26.523-9.4766-5.4688-21.148-5.4688-30.625 0-9.4766 5.4727-15.312 15.582-15.312 26.523v0.75l-11.312-11.312c-8.4766-8.3945-20.777-11.645-32.293-8.5391-11.52 3.1055-20.516 12.102-23.621 23.621-3.1055 11.516 0.14453 23.816 8.5391 32.293l11.312 11.312h-0.75c-6.6289-0.019531-13.082 2.1328-18.375 6.125l10.512 13.992c2.2656-1.707 5.0273-2.625 7.8633-2.6172h21.875c3.5391 0 6.7305-2.1328 8.0859-5.4023 1.3516-3.2695 0.60547-7.0312-1.8984-9.5352l-26.25-26.25c-4.043-4.043-5.6211-9.9336-4.1406-15.453s5.793-9.832 11.312-11.312 11.41 0.097656 15.453 4.1406l26.25 26.25c2.5039 2.5039 6.2656 3.25 9.5352 1.8984 3.2695-1.3555 5.4023-4.5469 5.4023-8.0859v-21.875c0-7.25 5.875-13.125 13.125-13.125s13.125 5.875 13.125 13.125v48.125c0 4.832 3.918 8.75 8.75 8.75s8.75-3.918 8.75-8.75v-4.375c0-7.25 5.875-13.125 13.125-13.125s13.125 5.875 13.125 13.125v48.125c0 4.832 3.918 8.75 8.75 8.75s8.75-3.918 8.75-8.75v-4.375c0-7.25 5.875-13.125 13.125-13.125s13.125 5.875 13.125 13.125v79.5l-125.06-125.06-12.375 12.375 125.06 125.06h-79.5c-7.25 0-13.125-5.875-13.125-13.125s5.875-13.125 13.125-13.125h4.375c4.832 0 8.75-3.918 8.75-8.75s-3.918-8.75-8.75-8.75h-48.125c-7.25 0-13.125-5.875-13.125-13.125s5.875-13.125 13.125-13.125h4.375c4.832 0 8.75-3.918 8.75-8.75s-3.918-8.75-8.75-8.75h-48.125c-7.2461-0.007812-13.117-5.8789-13.125-13.125h-17.5c0.007812 8.1211 3.2383 15.902 8.9805 21.645 5.7422 5.7422 13.523 8.9727 21.645 8.9805h16.078c-3.5781 7.543-3.9258 16.219-0.95312 24.023 2.9688 7.8008 8.9961 14.051 16.688 17.305-17.555 16.52-27.488 39.566-27.438 63.672v7.5039c-0.12891 59.473 17.121 117.69 49.625 167.5h-40.875c-4.832 0-8.75 3.918-8.75 8.75 0 33.773 29.219 61.25 65.133 61.25 35.914 0 65.133-27.477 65.133-61.25 0-2.3203-0.92188-4.5469-2.5625-6.1875s-3.8672-2.5625-6.1875-2.5625h-50.738c-24.848-34.957-41.57-75.02-48.945-117.27 16.578 18.922 40.512 29.773 65.668 29.77h280c25.133 0.003906 49.047-10.828 65.625-29.719-3.6641 20.82-9.6016 41.176-17.699 60.703-2.5078 6.0469-5.2031 11.973-8.0195 17.641-13.453 27.215-31.109 52.145-52.312 73.875h-5.0938v17.5h8.75c2.3203 0 4.5469-0.92188 6.1875-2.5625 9.9258-9.9375 19.16-20.539 27.641-31.734 9.9258 5.3281 21.023 8.0938 32.289 8.0469 35.914 0 65.133-27.477 65.133-61.25 0-2.3203-0.92188-4.5469-2.5625-6.1875s-3.8672-2.5625-6.1875-2.5625zm-416.12 96.25c-23 0-42.25-15.055-46.676-35h93.352c-4.4258 19.945-23.676 35-46.676 35zm222.09-276.28c-4.5938-6.125-7.1094-13.559-7.1836-21.219h69.891c-0.25391 6.8906-2.4258 13.574-6.2812 19.289-3.8516 5.7188-9.2266 10.242-15.52 13.059-4.0703-6.7656-10.598-11.703-18.219-13.777s-15.75-1.125-22.688 2.6484zm27.781-56.223c12.492 0.03125 24.027 6.6953 30.297 17.5h-60.602c6.2734-10.805 17.809-17.469 30.305-17.5zm-297.5 105c-0.023438-12.508 3.3125-24.793 9.6641-35.566 6.3516-10.777 15.48-19.648 26.438-25.684h1.8594c-4.5 9.4883-3.8281 20.617 1.7852 29.492 5.6133 8.875 15.379 14.258 25.879 14.258h97l23.688 23.688 12.375-12.375-23.688-23.688v-40.125h35.082c0.29688 22.715 10.008 45.273 25.812 61.617-7.2148 1.1289-13.785 4.8008-18.535 10.348-4.7461 5.5469-7.3555 12.609-7.3594 19.91v16.086c-9.4883-4.5-20.617-3.8281-29.492 1.7852-8.875 5.6133-14.254 15.379-14.258 25.879v4.375h-96.25c-18.559-0.019531-36.352-7.4023-49.473-20.527-13.125-13.121-20.508-30.914-20.527-49.473zm183.75 70v-4.375c0-7.25 5.875-13.125 13.125-13.125s13.125 5.875 13.125 13.125v4.375zm99.875 0 37.562-37.562-12.375-12.375-49.938 49.938h-31.375v-48.125c0-7.25 5.875-13.125 13.125-13.125s13.125 5.875 13.125 13.125v4.375h17.5v-48.125c-0.007812-3.4102 1.3203-6.6875 3.7031-9.125 0.058594-0.058594 0.10938-0.11328 0.16406-0.17578 3.3633-3.3438 8.2695-4.6172 12.836-3.3242 4.5625 1.293 8.0742 4.9453 9.1836 9.5586 0.24609 1.0039 0.36719 2.0352 0.36328 3.0664v21.875c0 3.5391 2.1328 6.7305 5.4023 8.0859 3.2695 1.3516 7.0312 0.60547 9.5352-1.8984l26.25-26.25c2.6953-2.6992 6.2656-4.3438 10.066-4.6406 3.8047-0.29688 7.5859 0.77344 10.668 3.0195 0.67188 0.49219 1.3047 1.0312 1.8906 1.6211 2.9961 3.0039 4.6797 7.0703 4.6797 11.312s-1.6836 8.3086-4.6797 11.312l-26.25 26.25c-2.5039 2.5039-3.25 6.2656-1.8984 9.5352 1.3555 3.2695 4.5469 5.4023 8.0859 5.4023h21.875c5.375-0.007812 10.207 3.2695 12.195 8.2617 1.9844 4.9922 0.72656 10.691-3.1836 14.379-7.1328 2.3906-14.609 3.6094-22.137 3.6094zm123.74 113.75c-7.6172 0.03125-15.145-1.6602-22.02-4.9492 6.4883-9.6719 12.426-19.707 17.777-30.051h50.918c-4.4258 19.945-23.672 35-46.676 35z"/>
  <path d="m317.56 120.92c12.215 12.223 28.781 19.09 46.059 19.09 17.277 0.003906 33.848-6.8594 46.066-19.074 12.215-12.219 19.078-28.789 19.074-46.066 0-17.277-6.8672-33.844-19.09-46.059-1.6406-1.6406-3.8672-2.5625-6.1875-2.5625s-4.5469 0.92188-6.1875 2.5625l-79.734 79.734c-1.6406 1.6406-2.5625 3.8672-2.5625 6.1875s0.92188 4.5469 2.5625 6.1875zm85.359-72.984c8.4375 12.328 10.605 27.898 5.8555 42.062-4.7461 14.164-15.863 25.281-30.027 30.027-14.164 4.75-29.734 2.582-42.062-5.8555z"/>
  <path d="m271.25 87.5h35c4.6406-0.003906 9.0859-1.8516 12.367-5.1328s5.1289-7.7266 5.1328-12.367v-35c-0.003906-4.6406-1.8516-9.0859-5.1328-12.367s-7.7266-5.1289-12.367-5.1328h-35c-4.6406 0.003906-9.0859 1.8516-12.367 5.1328s-5.1289 7.7266-5.1328 12.367v35c0.003906 4.6406 1.8516 9.0859 5.1328 12.367s7.7266 5.1289 12.367 5.1328zm0-52.5h35l0.011719 35h-35.012z"/>
  <path d="m218.75 297.5h-35c-4.832 0-8.75 3.918-8.75 8.75v35c0 2.3203 0.92188 4.5469 2.5625 6.1875s3.8672 2.5625 6.1875 2.5625h35c2.3203 0 4.5469-0.92188 6.1875-2.5625s2.5625-3.8672 2.5625-6.1875v-35c0-2.3203-0.92188-4.5469-2.5625-6.1875s-3.8672-2.5625-6.1875-2.5625zm-8.75 35h-17.5v-17.5h17.5z"/>
  <path d="m498.75 122.5v35c0 2.3203 0.92188 4.5469 2.5625 6.1875s3.8672 2.5625 6.1875 2.5625h35c2.3203 0 4.5469-0.92188 6.1875-2.5625s2.5625-3.8672 2.5625-6.1875v-35c0-2.3203-0.92188-4.5469-2.5625-6.1875s-3.8672-2.5625-6.1875-2.5625h-35c-4.832 0-8.75 3.918-8.75 8.75zm17.5 8.75h17.5v17.5h-17.5z"/>
  <path d="m304.78 327.29-12.141-18.207v0.003906c-4.3242-6.4844-11.324-10.688-19.074-11.453-7.7539-0.76562-15.441 1.9805-20.953 7.4922-5.5078 5.5078-8.2578 13.195-7.4883 20.949 0.76562 7.75 4.9688 14.75 11.453 19.074l18.207 12.141h-0.003906c3.4727 2.3125 8.0938 1.8555 11.043-1.0938l17.859-17.859c2.9531-2.9492 3.4102-7.5742 1.0977-11.047zm-26.25 11.453-12.238-8.1602v0.003906c-3.1172-2.0781-4.5078-5.9492-3.4258-9.5352 1.082-3.5859 4.3828-6.043 8.1289-6.0469 0.28125 0 0.5625 0.015625 0.84766 0.042969 2.5352 0.24609 4.8242 1.6211 6.2344 3.7461l8.1602 12.238z"/>
  <path d="m315.4 473.38c1.7695 0 3.5352-0.17578 5.2695-0.52344l22.301-4.4609h-0.003906c4.0898-0.81641 7.0352-4.4062 7.0352-8.5781v-26.25c0-4.1719-2.9453-7.7617-7.0352-8.5781l-22.297-4.4609c-7.3906-1.4805-15.059 0.23047-21.117 4.7109-6.0547 4.4805-9.9375 11.312-10.688 18.809-0.74609 7.4961 1.7109 14.961 6.7656 20.547 5.0547 5.5898 12.234 8.7812 19.77 8.7891zm-5.7852-33.793h-0.003906c1.6406-1.3438 3.6914-2.0781 5.8125-2.0781 0.60938 0.003906 1.2148 0.0625 1.8125 0.18359l15.266 3.0508v11.902l-15.266 3.0547c-4.1328 0.81641-8.2891-1.2773-10.09-5.082-1.8008-3.8086-0.78516-8.3516 2.4648-11.027z"/>
  <path d="m466.67 111.19c2.9492 2.9492 7.5703 3.4062 11.043 1.0938l18.207-12.141h-0.003906c6.4844-4.3203 10.688-11.324 11.457-19.074 0.76953-7.7539-1.9805-15.445-7.4922-20.953-5.5078-5.5117-13.199-8.2578-20.953-7.4883-7.7539 0.76562-14.754 4.9727-19.074 11.457l-12.141 18.207v-0.003906c-2.3125 3.4727-1.8555 8.0938 1.0938 11.043zm7.7461-37.398c1.4141-2.1211 3.7031-3.4961 6.2383-3.7461s5.0469 0.64844 6.8516 2.4492c1.8008 1.8047 2.6992 4.3164 2.4492 6.8516s-1.625 4.8242-3.7461 6.2383l-12.238 8.1602-7.7148-7.7148z"/>
  <path d="m437.5 472.5h-35c-4.6406 0.003906-9.0859 1.8516-12.367 5.1328s-5.1289 7.7266-5.1328 12.367v17.5h-122.5v17.5h122.5c0.003906 4.6406 1.8516 9.0859 5.1328 12.367s7.7266 5.1289 12.367 5.1328h35c4.6406-0.003906 9.0859-1.8516 12.367-5.1328s5.1289-7.7266 5.1328-12.367v-35c-0.003906-4.6406-1.8516-9.0859-5.1328-12.367s-7.7266-5.1289-12.367-5.1328zm0 52.5h-35v-35h35l0.011719 35z"/>
  <use x="70" y="576.40625" xlink:href="#t"/>
  <use x="74.011719" y="576.40625" xlink:href="#d"/>
  <use x="76.710938" y="576.40625" xlink:href="#a"/>
  <use x="80.417969" y="576.40625" xlink:href="#k"/>
  <use x="84.109375" y="576.40625" xlink:href="#c"/>
  <use x="86.722656" y="576.40625" xlink:href="#a"/>
  <use x="90.433594" y="576.40625" xlink:href="#j"/>
  <use x="96.25" y="576.40625" xlink:href="#i"/>
  <use x="100.167969" y="576.40625" xlink:href="#h"/>
  <use x="105.636719" y="576.40625" xlink:href="#e"/>
  <use x="111.332031" y="576.40625" xlink:href="#b"/>
  <use x="115.089844" y="576.40625" xlink:href="#g"/>
  <use x="118.984375" y="576.40625" xlink:href="#f"/>
  <use x="122.621094" y="576.40625" xlink:href="#s"/>
  <use x="124.496094" y="576.40625" xlink:href="#f"/>
  <use x="70" y="581.875" xlink:href="#r"/>
  <use x="72.378906" y="581.875" xlink:href="#d"/>
  <use x="75.078125" y="581.875" xlink:href="#b"/>
  <use x="78.832031" y="581.875" xlink:href="#e"/>
  <use x="86.4375" y="581.875" xlink:href="#c"/>
  <use x="89.050781" y="581.875" xlink:href="#q"/>
  <use x="92.941406" y="581.875" xlink:href="#a"/>
  <use x="98.554688" y="581.875" xlink:href="#p"/>
  <use x="103.132812" y="581.875" xlink:href="#b"/>
  <use x="106.890625" y="581.875" xlink:href="#o"/>
  <use x="110.785156" y="581.875" xlink:href="#g"/>
  <use x="116.582031" y="581.875" xlink:href="#n"/>
  <use x="120.589844" y="581.875" xlink:href="#d"/>
  <use x="123.285156" y="581.875" xlink:href="#b"/>
  <use x="127.042969" y="581.875" xlink:href="#m"/>
  <use x="128.917969" y="581.875" xlink:href="#a"/>
  <use x="132.625" y="581.875" xlink:href="#l"/>
  <use x="135.867188" y="581.875" xlink:href="#c"/>
 </g>
</svg>
