<?xml version="1.0" encoding="UTF-8"?>
<svg version="1.1" viewBox="200 0 550 550" xmlns="http://www.w3.org/2000/svg">
 <g>
  <path fill="#252525" d="m230 408c-8 78.398 49.602 136 128 128 8-78.398-49.602-136-128-128z"/>
  <path fill="#252525" d="m242.8 374.4c40 0 76.801 14.398 107.2 43.199 1.6016-1.6016 3.1992-3.1992 8-8-1.6016-14.398-4.8008-27.199-9.6016-35.199-19.199-46.398-67.199-68.801-118.4-64v11.199c0 19.199 3.1992 36.801 9.6016 52.801z"/>
  <path fill="#252525" d="m242.8 278.4c40 0 76.801 14.398 107.2 43.199 1.6016-1.6016 3.1992-3.1992 8-8-6.3984-62.398-57.602-105.6-128-99.199-1.6016 24 1.6016 44.801 9.6016 64z"/>
  <path fill="#252525" d="m242.8 182.4c40 0 76.801 12.801 107.2 43.199 1.6016-1.6016 3.1992-3.1992 8-8-6.3984-59.199-57.602-105.6-128-99.199-1.6016 24 1.6016 44.801 9.6016 64z"/>
  <path fill="#252525" d="m436.4 408c-28.801 4.8008-54.398 19.199-67.199 35.199 16 25.602 22.398 56 20.801 86.398 48-14.398 81.602-57.602 80-112v-11.199c-11.199 0-22.398 0-33.602 1.6016z"/>
  <path fill="#252525" d="m438 312c-28.801 4.8008-54.398 19.199-67.199 35.199 8 12.801 14.398 28.801 17.602 43.199 20.801-11.199 44.801-16 70.398-16h3.1992c6.3984-16 11.199-33.602 9.6016-51.199v-11.199c-12.801-1.6016-24-1.6016-33.602 0z"/>
  <path fill="#252525" d="m436.4 216c-30.398 4.8008-54.398 20.801-67.199 35.199 8 12.801 14.398 28.801 17.602 43.199 20.801-11.199 44.801-16 70.398-16h3.1992c6.3984-16 11.199-33.602 9.6016-51.199v-11.199c-11.199-1.6016-22.398-1.6016-33.602 0z"/>
  <path fill="#252525" d="m369.2 156.8c6.3984 9.6016 12.801 25.602 17.602 43.199 20.801-11.199 44.801-16 70.398-16h3.1992c8-19.199 12.801-40 9.6016-64-46.398-4.8008-83.199 14.398-100.8 36.801z"/>
  <path fill="#252525" d="m350 131.2c12.801-12.801 24-20.801 40-28.801-3.1992-28.801-16-56-40-78.398-24 20.801-36.801 49.602-40 78.398 16 8 27.199 16 40 28.801z"/>
 </g>
</svg>
